<?xml version="1.0" encoding="UTF-8"?>
<svg xmlns="http://www.w3.org/2000/svg" viewBox="0 0 1367.09 636.32">
  <defs>
    <style>
      .cls-1 {
        mix-blend-mode: difference;
      }

      .cls-2 {
        fill: none;
        stroke: #000;
        stroke-linecap: round;
        stroke-linejoin: round;
        stroke-width: 2px;
      }

      .cls-3 {
        isolation: isolate;
      }

      .cls-4 {
        mix-blend-mode: screen;
      }
    </style>
  </defs>
  <g class="cls-3">
    <g id="Layer_2" data-name="Layer 2">
      <g id="Layer_1-2" data-name="Layer 1">
        <g class="cls-1">
          <g class="cls-4">
            <g>
              <path class="cls-2" d="M759.38,350.46c6.48-11.18,22.01-16.83,54.86-18.2,19.89-.83,40.16-.15,60.27-.15"/>
              <path class="cls-2" d="M350.04,281.82c27.6-1.94,55.07-2.27,82.23,1.1"/>
              <path class="cls-2" d="M819.69,506.11c12.18,1.71,24.37,3.43,36.55,5.14"/>
              <path class="cls-2" d="M883.65,511.61c14.01-.86,28.02-1.71,42.03-2.57"/>
              <path class="cls-2" d="M775.83,347.53c21.44-7.99,48.69-7.38,74.94-8,9.07-.22,18.26.42,27.4.66"/>
              <path class="cls-2" d="M366.49,318.16c10.77,10.48,35.17,7.5,54.87,8.69,15.93.96,27.43-1.9,31.02-8.69"/>
              <path class="cls-2" d="M777.66,330.64c21.61-6.87,47.93-6.29,73.12-7.25,9-.34,18.25.4,27.39.64"/>
              <path class="cls-2" d="M602.22,104.88c20.1,1.1,40.2,2.2,60.31,3.3"/>
              <path class="cls-2" d="M867.2,560.44c-29.05-3.98-58.35-2.97-87.72-.73"/>
              <path class="cls-2" d="M863.55,567.78c-7.31-.98-14.75-2.92-21.9-2.75-19.57.45-39.01,1.77-58.5,2.75"/>
              <path class="cls-2" d="M549.23,380.56c7.31.98,14.62,1.96,21.93,2.94"/>
              <path class="cls-2" d="M781.31,554.56c1.38-3.34,6.53-4.42,14.62-4.45,19.5-.09,39-.67,58.47-.51,4.32.03,8.54,2.27,12.8,3.5"/>
              <path class="cls-2" d="M366.49,329.91c24.84,4.12,49.84,7.56,76.75,2.94"/>
              <path class="cls-2" d="M318.97,18.62c4.87-1.47,9.75-2.94,14.62-4.41"/>
              <path class="cls-2" d="M373.8,315.96c21.78,1.47,43.25,4.39,65.79,2.2"/>
              <path class="cls-2" d="M271.46,119.2c15.23.73,30.46,1.47,45.69,2.2"/>
              <path class="cls-2" d="M357.35,121.04c14.01-.37,28.02-.73,42.03-1.1"/>
              <path class="cls-2" d="M823.34,259.43c-20.71-4.16-41.42-8.32-62.13-12.48"/>
              <path class="cls-2" d="M678.98,451.78c1.22,1.71,1.2,4.11,4.03,4.94,2.49.73,8.16-.29,12.42-.53-1.22-1.96-1.5-4.13-3.91-5.81-2.49-1.74-7.05-3-10.71-4.46"/>
              <path class="cls-2" d="M286.08,46.52c1.22-1.71,2.48-3.42,3.62-5.14.23-.34.03-.73.03-1.1.61.12,1.22.24,1.83.37"/>
              <path class="cls-2" d="M534.61,260.9c6.19-8.28,17.81-14.38,40.2-16.15"/>
              <path class="cls-2" d="M503.54,402.59c9.14-1.22,18.16-2.62,27.44-3.63,12.62-1.37,10.47,3.57,14.59,5.83"/>
              <path class="cls-2" d="M273.29,128.38c16.45.12,32.89.24,49.34.37"/>
              <path class="cls-2" d="M596.74,406.26c15.84-.49,31.68-.98,47.51-1.47"/>
              <path class="cls-2" d="M856.24,548.69c1.92-5.18-3.52-7.15-16.47-6.74-4.1.13-8.5-1.33-12.77-2.07"/>
              <path class="cls-2" d="M322.63,11.28c10.58-3.28,9.93-7.43-1.9-9.48-3.82-.66-8.46-.55-12.72-.8"/>
              <path class="cls-2" d="M503.54,265.67c13.04-3.08,21.72-7.39,23.76-13.58"/>
              <path class="cls-2" d="M275.11,111.13c8.53.98,16.96,2.13,25.62,2.87,4.67.4,9.71.07,14.58.07"/>
              <path class="cls-2" d="M264.15,11.28c-1.22.49-2.22,1.2-3.69,1.43-16.81,2.67-20.18,1.96-23.65-5.11-1.07-2.17-1.29-4.4-1.9-6.6"/>
              <path class="cls-2" d="M322.63,309.35c-24.47-1.87-27.09-3.71-14.62-10.28"/>
              <path class="cls-2" d="M209.33,53.86c6.09-2.94,10.84-6.79,18.56-8.62,15.66-3.72,20.93-2.04,21.65,5.68"/>
              <path class="cls-2" d="M662.53,394.51c6.7-.24,13.39-.56,20.1-.72,9.59-.23,15.87-1.35,10.96-5.89"/>
              <path class="cls-2" d="M534.61,275.58c-.19,4.5,3.84,7.22,16.43,7.48,4.38.09,8.55,1.82,12.81,2.8"/>
              <path class="cls-2" d="M200.19,269.71c4.26-4.89,8.53-9.79,12.79-14.68"/>
              <path class="cls-2" d="M823.34,518.59h36.55"/>
              <path class="cls-2" d="M823.34,534.01c12.18.24,24.37.49,36.55.73"/>
              <path class="cls-2" d="M461.51,194.82c3.65-1.47,6.98-4.01,11.03-4.21,13.13-.65,10.78-4.24,10.9-7.54"/>
              <path class="cls-2" d="M496.23,393.78c11.57-.49,23.15-.98,34.72-1.47"/>
              <path class="cls-2" d="M827,523.73c8.09,5.28,20.41,2.29,31.07,2.57"/>
              <path class="cls-2" d="M763.04,98.64c.61-.73,1.81-1.48,1.71-2.2-.24-1.72-1.05-3.43-1.86-5.13-.04-.09-2.28-.01-3.5-.01v5.14"/>
              <path class="cls-2" d="M569.33,91.3c7.15-3.94,7.32-10.31,23.76-11.01"/>
              <path class="cls-2" d="M1090.15,141.96c-6.09-1.96-11.64-5.12-18.39-5.61-12.01-.87-15.44-3.5-16.33-7.61"/>
              <path class="cls-2" d="M757.55,475.27c1.22-4.41,2.44-8.81,3.65-13.22"/>
              <path class="cls-2" d="M350.04,27.43c3.05-3.92,6.09-7.83,9.14-11.75"/>
              <path class="cls-2" d="M318.97,28.9c19.65-1.92,22.15-7.97,21.93-14.68"/>
              <path class="cls-2" d="M293.39,296.14c3.65-3.92,7.31-7.83,10.96-11.75"/>
              <path class="cls-2" d="M695.42,473.8c-3.65-3.43-7.31-6.85-10.96-10.28"/>
              <path class="cls-2" d="M604.05,378.36h29.24"/>
              <path class="cls-2" d="M1020.7,368.08c0,1.22.17,2.45-.04,3.67-.43,2.52-7.19,5.82,5.45,6.76.54.04.07,2.3.07,3.52"/>
              <path class="cls-2" d="M501.72,328.44v-11.75"/>
              <path class="cls-2" d="M931.16,536.94c-.61-3.92-1.22-7.83-1.83-11.75"/>
              <path class="cls-2" d="M604.05,394.51h29.24"/>
              <path class="cls-2" d="M722.83,111.13c1.22-3.92,2.44-7.83,3.65-11.75"/>
              <path class="cls-2" d="M965.88,240.34c-9.75-1.96-19.49-3.92-29.24-5.87"/>
              <path class="cls-2" d="M8.31,463.53c-2.44-3.92-4.87-7.83-7.31-11.75"/>
              <path class="cls-2" d="M684.46,97.91c1.83-1.22,3.11-3.26,5.58-3.53,9.71-1.06,9.19-2.78,3.56-5.28"/>
              <path class="cls-2" d="M741.11,136.09c-.61-3.92-1.22-7.83-1.83-11.75"/>
              <path class="cls-2" d="M242.22,19.35c7.31.24,14.8.95,21.83.49,2.46-.16,3.76-3.18,5.58-4.89"/>
              <path class="cls-2" d="M21.1,478.94c-3.05-3.67-6.09-7.34-9.14-11.01"/>
              <path class="cls-2" d="M6.48,478.94c-1.83-3.67-3.65-7.34-5.48-11.01"/>
              <path class="cls-2" d="M191.05,462.06c1.22-3.43,2.44-6.85,3.65-10.28"/>
              <path class="cls-2" d="M839.79,438.56c.61-3.43,1.22-6.85,1.83-10.28"/>
              <path class="cls-2" d="M1366.09,456.18c-.61-3.43-1.22-6.85-1.83-10.28"/>
              <path class="cls-2" d="M260.49,52.39c-1.22-3.43-2.44-6.85-3.65-10.28"/>
              <path class="cls-2" d="M662.53,225.66v-10.28"/>
              <path class="cls-2" d="M322.63,197.76v-10.28"/>
              <path class="cls-2" d="M932.99,520.79v-10.28"/>
              <path class="cls-2" d="M1366.09,440.03c-.61-3.43-1.22-6.85-1.83-10.28"/>
              <path class="cls-2" d="M724.66,83.23c-6.38,2.88-11.68,5.67,3.65,6.61"/>
              <path class="cls-2" d="M403.03,17.89c-14.62-1.34-25.32-4.04-23.76-11.01"/>
              <path class="cls-2" d="M764.86,113.33c-.79-2.71,8.18-6.99-7.31-7.34"/>
              <path class="cls-2" d="M662.53,428.29c-2.82-2.39,6.65-6.75-7.31-7.34"/>
              <path class="cls-2" d="M470.65,200.69c3.65-2.45,7.31-4.89,10.96-7.34"/>
              <path class="cls-2" d="M359.18,28.9c3.65-2.94,7.31-5.87,10.96-8.81"/>
              <path class="cls-2" d="M1079.18,147.83c2.27-4.83-8.38-4.47-14.62-5.87"/>
              <path class="cls-2" d="M757.55,459.12c.61-2.94,1.22-5.87,1.83-8.81"/>
              <path class="cls-2" d="M545.57,409.2c-7.31-2.2-14.62-4.41-21.93-6.61"/>
              <path class="cls-2" d="M741.11,119.94c.61-2.94,1.22-5.87,1.83-8.81"/>
              <path class="cls-2" d="M658.87,635.32v-8.81"/>
              <path class="cls-2" d="M507.2,444.44c-.61-2.94-1.22-5.87-1.83-8.81"/>
              <path class="cls-2" d="M726.49,81.76c-1.83-5.87-3.65-11.75-5.48-17.62"/>
              <path class="cls-2" d="M757.55,77.35c7.8-1.73,13.06-3.76,5.48-7.34"/>
              <path class="cls-2" d="M556.54,240.34c17.06-2.94,34.11-5.87,51.17-8.81"/>
              <path class="cls-2" d="M688.11,134.62v-8.81"/>
              <path class="cls-2" d="M81.41,476.74v-8.81"/>
              <path class="cls-2" d="M689.94,74.42c-1.83-3.92-3.65-7.83-5.48-11.75"/>
              <path class="cls-2" d="M534.61,268.24c12.18-2.2,24.37-4.41,36.55-6.61"/>
              <path class="cls-2" d="M1002.43,403.32v-8.81"/>
              <path class="cls-2" d="M673.49,130.21c1.22-2.45,2.44-4.89,3.65-7.34"/>
              <path class="cls-2" d="M359.18,12.75c2.44-2.69,4.87-5.38,7.31-8.08"/>
              <path class="cls-2" d="M792.28,86.16c1.83-2.69,3.65-5.38,5.48-8.08"/>
              <path class="cls-2" d="M693.59,86.16c4.68-4.53,1.79-7.98-9.14-10.28"/>
              <path class="cls-2" d="M560.19,255.02c15.84-2.45,31.68-4.89,47.51-7.34"/>
              <path class="cls-2" d="M680.8,155.18c1.22-4.41,2.44-8.81,3.65-13.22"/>
              <path class="cls-2" d="M1086.49,156.64c-9.75,4.08-19.49,1.57-29.24,0"/>
              <path class="cls-2" d="M322.63,178.67v-7.34"/>
              <path class="cls-2" d="M790.45,528.13v-7.34"/>
              <path class="cls-2" d="M85.06,460.59v-7.34"/>
              <path class="cls-2" d="M351.87,43.58c1.22-2.45,2.44-4.89,3.65-7.34"/>
              <path class="cls-2" d="M344.56,37.71c1.22-2.45,2.44-4.89,3.65-7.34"/>
              <path class="cls-2" d="M231.26,27.06c.61-2.81,1.22-5.63,1.83-8.44"/>
              <path class="cls-2" d="M1250.96,429.75v-7.34"/>
              <path class="cls-2" d="M684.46,419.48c-1.22-2.45-2.44-4.89-3.65-7.34"/>
              <path class="cls-2" d="M662.53,417.27c-2.44-2.2-4.87-4.41-7.31-6.61"/>
              <path class="cls-2" d="M554.71,337.25c-.61-3.92-1.22-7.83-1.83-11.75"/>
              <path class="cls-2" d="M1221.72,310.82h18.27"/>
              <path class="cls-2" d="M686.29,150.04c2.44-.98,6.14-1.8,7.03-2.97,1.6-2.08,1.5-4.37,2.1-6.57"/>
              <path class="cls-2" d="M593.09,241.81c13.4-1.47,26.8-2.94,40.2-4.41"/>
              <path class="cls-2" d="M792.28,106.72c5.48-.24,10.96-.49,16.45-.73"/>
              <path class="cls-2" d="M695.42,441.5c-.61-2.2-1.22-4.41-1.83-6.61"/>
              <path class="cls-2" d="M677.15,222.72v-10.28"/>
              <path class="cls-2" d="M340.9,48.72v-6.61"/>
              <path class="cls-2" d="M655.22,438.56v-10.28"/>
              <path class="cls-2" d="M571.16,407.73v-5.87"/>
              <path class="cls-2" d="M987.81,401.86v-5.87"/>
              <path class="cls-2" d="M1250.96,445.91v-5.87"/>
              <path class="cls-2" d="M651.56,127.28v-5.87"/>
              <path class="cls-2" d="M509.02,409.2h14.62"/>
              <path class="cls-2" d="M750.25,234.47c-.81,6.85,13,4.89,21.93,5.87"/>
              <path class="cls-2" d="M1177.86,423.88v-5.87"/>
              <path class="cls-2" d="M571.16,429.75v-5.87"/>
              <path class="cls-2" d="M348.21,55.33v-5.87"/>
              <path class="cls-2" d="M600.4,437.1c-1.22-3.43-2.44-6.85-3.65-10.28"/>
              <path class="cls-2" d="M563.85,86.16c.61-1.71,1.22-3.43,1.83-5.14"/>
              <path class="cls-2" d="M1020.7,363.68c-.61-1.71-1.22-3.43-1.83-5.14"/>
              <path class="cls-2" d="M1020.7,353.4c-1.22-1.47-2.44-2.94-3.65-4.41"/>
              <path class="cls-2" d="M198.36,50.92c.61-1.71,1.22-3.43,1.83-5.14"/>
              <path class="cls-2" d="M788.62,111.13c1.22-4.41,2.44-8.81,3.65-13.22"/>
              <path class="cls-2" d="M823.34,287.33c-2.2-3.03-4.76-5.92-14.62-5.87"/>
              <path class="cls-2" d="M695.42,432.69c-4.26.73-8.53,1.47-12.79,2.2-1.22-1.71-2.44-3.43-3.65-5.14"/>
              <path class="cls-2" d="M761.21,445.91c.61-.98,1.22-1.96,1.83-2.94"/>
              <path class="cls-2" d="M794.1,102.32c4.87.24,9.75.49,14.62.73"/>
              <path class="cls-2" d="M289.73,17.15c2.44-.49,4.87-.98,7.31-1.47"/>
              <path class="cls-2" d="M567.5,106.72c-1.22-.49-2.44-.98-3.65-1.47"/>
              <path class="cls-2" d="M1020.7,387.17c1.22-.49,2.44-.98,3.65-1.47"/>
              <path class="cls-2" d="M498.06,274.11c1.22-.49,2.44-.98,3.65-1.47"/>
              <path class="cls-2" d="M688.11,166.19c9.43-.11,7.61-2.94,6.97-5.12-.18-.6-4.53-1-6.97-1.48-.61,2.2-1.22,4.41-1.83,6.61"/>
            </g>
          </g>
        </g>
      </g>
    </g>
  </g>
</svg>