<?xml version="1.0" encoding="UTF-8"?>
<svg xmlns="http://www.w3.org/2000/svg" viewBox="0 0 1666.81 637.89">
  <defs>
    <style>
      .cls-1 {
        mix-blend-mode: difference;
      }

      .cls-2 {
        fill: none;
        stroke: #000;
        stroke-linecap: round;
        stroke-linejoin: round;
        stroke-width: 2px;
      }

      .cls-3 {
        isolation: isolate;
      }

      .cls-4 {
        mix-blend-mode: screen;
      }
    </style>
  </defs>
  <g class="cls-3">
    <g id="Layer_2" data-name="Layer 2">
      <g id="Layer_1-2" data-name="Layer 1">
        <g class="cls-1">
          <g class="cls-4">
            <g>
              <path class="cls-2" d="M225.12,81.86c57.1-.98,114.19-2.06,171.3-2.87,15.44-.22,30.95.42,46.42.66"/>
              <path class="cls-2" d="M1478.6,535.21c3.74.86,7.92,1.45,11.12,2.62,9.49,3.46,10.76-.05,12.89-2.99"/>
              <path class="cls-2" d="M237.93,198.59c22.41-.49,44.86-.75,67.22-1.54,17.14-.61,34.14-1.97,51.25-2.83,9.02-.45,18.13-.64,27.21-.75,45.36-.53,90.71-1.08,136.08-1.35,4.24-.03,8.53,1.82,12.8,2.8"/>
              <path class="cls-2" d="M124.27,1.1c9.61.49,19.21.98,28.82,1.47"/>
              <path class="cls-2" d="M570.91,45.15c44.82,1.96,89.64,3.96,134.49,5.81,5.25.22,10.66-.43,16-.67"/>
              <path class="cls-2" d="M1068.78,446.74c52.67-2.77,105.24-6.13,158.49-5.13,11.21.21,22.41.48,33.62.73"/>
              <path class="cls-2" d="M1038.36,117.1c25.24-.13,50.35.32,75.39-2.68,12.49-1.49,26.53-.26,39.87-.26"/>
              <path class="cls-2" d="M503.67,250.72c12.27.49,24.55.98,36.82,1.47"/>
              <path class="cls-2" d="M1232.07,335.88c32.02.49,64.03.98,96.05,1.47"/>
              <path class="cls-2" d="M564.51,322.67c4.8.24,9.61.49,14.41.73"/>
              <path class="cls-2" d="M1243.28,115.63c4.54.73,11.83,2.67,13.18,2.02,12.19-5.91,20.15-.94,30.25,1.48,8.64,2.07,18.94,2.75,28.63,3.82,16.49,1.82,33.07,3.45,49.61,5.17"/>
              <path class="cls-2" d="M1267.29,351.67c10.14-.12,20.28-.24,30.42-.37"/>
              <path class="cls-2" d="M349.99,244.11c13.34.24,26.68.65,40.02.7,29.88.11,59.83.6,89.63-.12,32.63-.79,65.11-2.81,97.68-4.2,3.13-.13,6.39.44,9.6.68"/>
              <path class="cls-2" d="M1014.35,392.41q-12.18-5.86-28.82-.73"/>
              <path class="cls-2" d="M956.72,409.3c5.34-1.22,10.63-2.49,16.02-3.66,5.82-1.27,11.73-2.46,17.6-3.68"/>
              <path class="cls-2" d="M1009.55,396.08c28.6-15.02,65.28-10.59,100.86-8.82,1.58.08,3.2.01,4.8.01"/>
              <path class="cls-2" d="M657.36,533.37c24.55.73,49.1,1.45,73.64,2.21,5.35.17,10.67.48,16.01.72"/>
              <path class="cls-2" d="M1,422.51c16.01.98,31.97,2.16,48.04,2.89,30.38,1.38,60.84,2.42,91.24,3.74,25.64,1.11,51.19,2.71,76.87,3.47,7.3.21,14.92-1.78,22.39-2.75"/>
              <path class="cls-2" d="M1275.29,393.88c-.32,6.13-10.14,5.19-17.5,4.23-6.91-.9-12.91-3.25-19.32-4.97"/>
              <path class="cls-2" d="M1308.91,367.82c7.47.37,14.94.73,22.41,1.1"/>
              <path class="cls-2" d="M846.26,286.69c6.09,5.12,14.03,5.59,24.09,2.25,3.82-1.27,8.46-2,12.73-2.98"/>
              <path class="cls-2" d="M897.49,307.98c-9.07,5.13-17.47,4.39-27.4.09-10.5-4.55-18.4-4.06-28.63.65"/>
              <path class="cls-2" d="M398.02,350.56c36.82.49,73.64.93,110.46,1.52,4.83.08,9.61.92,14.41,1.41-3.2,1.47-6.24,3.02-9.67,4.37-1.76.69-4.2,1.01-6.34,1.5"/>
              <path class="cls-2" d="M1016.75,303.58c6.14.98,12.27,1.96,18.41,2.94"/>
              <path class="cls-2" d="M1278.49,193.45c2.13-.24,4.27-.49,6.4-.73"/>
              <path class="cls-2" d="M1286.5,192.72c4.8.49,10.52.38,14.24,1.58,11.67,3.76,21.94,3.39,34.03.07,7.23-1.98,16.84-2.14,25.37-3.12"/>
              <path class="cls-2" d="M1060.78,125.91c13.87.49,27.79,1.51,41.61,1.3,11.26-.17,22.42-1.79,33.63-2.77"/>
              <path class="cls-2" d="M820.65,423.98c16.23,9.11,38.61,8.44,60.83,8.09,6.4-.1,12.81-.02,19.21-.02"/>
              <path class="cls-2" d="M804.64,440.87c10.14.24,20.84-.38,30.31.9,27.52,3.72,51.89,2.7,72.14-7.51"/>
              <path class="cls-2" d="M1299.31,323.03c12.27-.12,24.55-.24,36.82-.37"/>
              <path class="cls-2" d="M172.29,3.3c5.87-.73,11.74-1.47,17.61-2.2"/>
              <path class="cls-2" d="M220.32,8.08c6.64.49,13.12,2.51,19.4-1.03,5.57-3.15,12.34-2.17,17.34.69,5.2,2.98,10,3.01,17.87,1.65,9.52-1.65,19.77-3.15,30.73.18,3.22.98,12.32-2.11,18.72-3.33"/>
              <path class="cls-2" d="M700.58,315.32c7.5-3.62,12.78-.37,17.48,1.53,12.2,4.94,11.95,5.07,24.14-.8"/>
              <path class="cls-2" d="M481.26,45.88c22.41-.73,44.82-1.47,67.24-2.2"/>
              <path class="cls-2" d="M447.64,157.48c7.33,4.89,15.42,4.57,24.01.73"/>
              <path class="cls-2" d="M1569.85,268.34c-3.2.24-6.4.49-9.61.73"/>
              <path class="cls-2" d="M221.92,479.78c19.29.32,34.38-4.34,49.63-8.81"/>
              <path class="cls-2" d="M177.1,208.14c9.41-4.35,18.86-8.63,33.62-4.41"/>
              <path class="cls-2" d="M194.71,153.07c6.4-.49,14.58-2.36,18.87-1.2,12.1,3.26,21.77,1.39,32.46-.9,3.07-.66,7.37-.1,11.1-.1"/>
              <path class="cls-2" d="M670.16,265.4c22.85-7.08,17.41-6.86,38.18.15,10.08,3.4,16.78,2.97,24.26-.89"/>
              <path class="cls-2" d="M68.24,478.31c9.61,1.22,19.21,2.45,28.82,3.67"/>
              <path class="cls-2" d="M135.47,485.65c10.1-.34,17.98,1.49,24.01,5.14"/>
              <path class="cls-2" d="M532.49,435.73h60.83"/>
              <path class="cls-2" d="M940.71,261.73c9.82-2.15,17.33-.31,24.01,2.94"/>
              <path class="cls-2" d="M481.26,595.78c4.27-.24,8.54-.49,12.81-.73"/>
              <path class="cls-2" d="M274.75,400.49h56.03"/>
              <path class="cls-2" d="M859.07,170.69c13.91-4.71,22.45.43,32.02,3.67"/>
              <path class="cls-2" d="M151.48,268.34h57.63"/>
              <path class="cls-2" d="M1329.72,465.09c8.54.24,17.08.49,25.61.73"/>
              <path class="cls-2" d="M1398.56,488.22c5.87,1.1,11.74,2.2,17.61,3.3"/>
              <path class="cls-2" d="M799.83,167.76c-18.7-2.38-27.18-.24-32.02,8.08"/>
              <path class="cls-2" d="M436.44,1.1c-4.8,1.71-9.66,3.4-14.39,5.15-5.56,2.06-10.58,5.6-17.72.75-2.07-1.41-5.24-2.48-7.91-3.7"/>
              <path class="cls-2" d="M370.8,11.01c6.94-3.06,13.87-6.12,20.81-9.18"/>
              <path class="cls-2" d="M676.57,415.91c13.43,1.38,24.07-1.94,35.22-4.41"/>
              <path class="cls-2" d="M993.54,449.68c11.61,1.46,22.47.17,33.74-1.27,5.17-.66,11.62.78,17.49,1.27"/>
              <path class="cls-2" d="M726.19,345.43c7.7-6.42,16.45-5.07,25.61-.73"/>
              <path class="cls-2" d="M194.71,608.99c8.73-2.92,17.33-4.49,27.42-.86,2.31.83,7.4.42,10.97.07,13.4-1.33,26.71-2.88,40.05-4.35"/>
              <path class="cls-2" d="M1203.25,478.31c3.2.24,6.4.49,9.61.73"/>
              <path class="cls-2" d="M490.87,83.33c9.07-.24,18.14-.49,27.21-.73"/>
              <path class="cls-2" d="M1288.1,152.34c31.49.33,62.4-1.51,92.85-5.14"/>
              <path class="cls-2" d="M1313.71,275.68c15.07-1.53,25.53,2.11,35.22,6.61"/>
              <path class="cls-2" d="M727.8,125.18c10.67,4.16,21.22,8.39,32.08,12.45,4.45,1.67,9.55,2.97,14.35,4.44"/>
              <path class="cls-2" d="M89.05,277.15c7.47,1.47,14.94,2.94,22.41,4.41"/>
              <path class="cls-2" d="M113.06,281.55c12.27-.24,24.55-.45,36.82-.75,6.95-.17,13.88-.48,20.81-.72"/>
              <path class="cls-2" d="M1161.63,236.03c5.89-3.09,12.31-2.39,19.27-.79,3.41.79,7.41,1.03,11.15,1.52"/>
              <path class="cls-2" d="M463.65,276.05c4.93-.93,8.66-3.37,14.76.24,8.18,4.85,18.86.73,28.46.13"/>
              <path class="cls-2" d="M911.9,338.08c-11.28-5.35-21.69-2.65-32.02.73"/>
              <path class="cls-2" d="M905.49,363.78c11.21-.98,22.41-1.96,33.62-2.94"/>
              <path class="cls-2" d="M393.21,376.26c6.94-.98,13.87-1.96,20.81-2.94"/>
              <path class="cls-2" d="M1313.71,181.71c16.42.09,33.17-.72,48.03,3.67"/>
              <path class="cls-2" d="M202.71,396.08h41.62"/>
              <path class="cls-2" d="M556.5,276.41c15.48-.49,30.95-.98,46.43-1.47"/>
              <path class="cls-2" d="M511.68,271.27q12.12-2.32,27.21,2.2"/>
              <path class="cls-2" d="M1120.01,304.68c5.93,1.44,10.57,1.47,16.45-.87,2.78-1.11,10.23.26,15.57.5"/>
              <path class="cls-2" d="M436.44,462.16c21.34-.49,42.69-.98,64.03-1.47"/>
              <path class="cls-2" d="M900.69,437.93c6.25,6.34,16.42,3.8,25.53,2.11,5.24-.97,9.68-2.85,14.49-4.32"/>
              <path class="cls-2" d="M548.5,394.61c11.74-.49,23.48-.98,35.22-1.47"/>
              <path class="cls-2" d="M1560.25,537.78c13.82-.4,26.94.5,38.42,4.41"/>
              <path class="cls-2" d="M420.43,365.25h44.82"/>
              <path class="cls-2" d="M604.53,169.23c10.69,5.83,18.55.62,27.21-1.47"/>
              <path class="cls-2" d="M625.34,140.59c-3.74-1.22-7.93-2.24-11.12-3.71-9.23-4.27-16.42-3.45-22.5,1.51"/>
              <path class="cls-2" d="M923.1,310.92c-9.05,3.46-15.85,2.46-20.81-2.2"/>
              <path class="cls-2" d="M1134.42,519.42c14.41,1.96,28.83,3.9,43.19,5.92.79.11,1.1.93,1.63,1.42"/>
              <path class="cls-2" d="M412.42,122.24c13.34-.24,26.68-.49,40.02-.73"/>
              <path class="cls-2" d="M606.13,528.97h-25.61"/>
              <path class="cls-2" d="M1541.04,443.8c19.74-.49,39.49-.98,59.23-1.47"/>
              <path class="cls-2" d="M1264.09,207.4c-1.6.49-3.46.86-4.76,1.49-13.14,6.29-12.99,7.14,3.23,11.68,3.82,1.07,8.47,1.52,12.74,2.25,1.07-2.45,2.13-4.89,3.2-7.34"/>
              <path class="cls-2" d="M1179.24,523.83c4.38-1.97,8.26-3.34,14.55-.81,8.42,3.39,17.32,2.42,25.47-.66"/>
              <path class="cls-2" d="M1304.11,244.11c-7.95-2.66-15.7-6.02-25.61-1.47"/>
              <path class="cls-2" d="M1436.98,62.04c20.95-6.34,27.14-5.9,51.23,3.67"/>
              <path class="cls-2" d="M279.55,604.59c13.87.24,27.75.49,41.62.73"/>
              <path class="cls-2" d="M823.85,385.8c8.8.98,17.6,1.98,26.42,2.93,2.9.31,7.44,1.18,8.56.64,11.73-5.7,23.05-1.67,31.88,1.09,8.43,2.64,11.8,1.64,18.26-.84,5.66-2.17,13.61-3.08,20.54-4.55"/>
              <path class="cls-2" d="M650.95,349.1c23.65-1.29,42.6,4.42,62.43,8.81"/>
              <path class="cls-2" d="M522.88,355.7c3.95,6.62,14.21,3.13,22.41,2.94"/>
              <path class="cls-2" d="M865.47,110.49c-6.4,1.22-12.81,2.45-19.21,3.67"/>
              <path class="cls-2" d="M1272.09,391.68c8.56,1.97,15.2,7.58,27.3,2.98.95-.36,3.92-.36,4.6,0,13.96,7.51,25.03.87,36.94-1.51"/>
              <path class="cls-2" d="M378.81,55.43c11.74-1.22,23.4-2.66,35.26-3.57,5.13-.39,10.46-3.65,16.55.46,2.35,1.59,11.17,1.16,17.04,1.65"/>
              <path class="cls-2" d="M511.68,444.54c13.34-.24,26.68-.49,40.02-.73"/>
              <path class="cls-2" d="M142.68,153.81c7.74-.49,15.5-1.44,23.2-1.33,6.98.09,13.88,1.33,20.82,2.07"/>
              <path class="cls-2" d="M1243.28,413.7c29.81.74,55.6,5.69,76.84,15.42"/>
              <path class="cls-2" d="M285.96,140.59c18.04-1.03,32.81-5.68,47.76-9.75,5.79-1.58,9.05-2.5,14.72-.56,13.2,4.51,15.56,4.2,27.17-2.91"/>
              <path class="cls-2" d="M692.58,340.29c9.61,1.96,19.21,3.92,28.82,5.87"/>
              <path class="cls-2" d="M684.57,114.9c5.27,1.7,10.64,1.9,14.3-.77,6.26-4.57,10.87-2.25,17.91-.1,18.1,5.53,37.27,10.33,55.77,15.6,5.76,1.64,10.74,3.87,16.08,5.82"/>
              <path class="cls-2" d="M1180.84,191.98c8,1.71,16.01,3.43,24.01,5.14"/>
              <path class="cls-2" d="M642.95,216.21h32.02"/>
              <path class="cls-2" d="M988.74,302.11c4.27.73,8.54,1.47,12.81,2.2"/>
              <path class="cls-2" d="M410.82,512.08c10.67-2.94,21.34-5.87,32.02-8.81"/>
              <path class="cls-2" d="M689.37,457.75c10.67-.98,21.26-2.27,32.04-2.87,18.08-.99,36.27-1.54,54.41-2.27"/>
              <path class="cls-2" d="M814.24,284.49q20.02,5.78,40.02-1.47"/>
              <path class="cls-2" d="M1214.46,296.24c10.67,1.71,21.34,3.43,32.02,5.14"/>
              <path class="cls-2" d="M503.67,535.57c11.74-.73,23.46-1.59,35.24-2.09,1.97-.08,4.25,1.35,6.38,2.09-2.67.24-5.34.49-8,.73"/>
              <path class="cls-2" d="M721.39,409.3c13.15,9.03,24.73,1.43,36.82-.73"/>
              <path class="cls-2" d="M881.48,120.04c10.79-.38,19.78-6.26,32.02-2.2"/>
              <path class="cls-2" d="M1087.99,161.88c6.94-4.11,13.87-1.96,20.81,0"/>
              <path class="cls-2" d="M385.21,512.08c9.07-3.67,18.05-7.4,27.4-10.91.75-.28,4.76.64,6.08,1.42,2.62,1.54,4.41,3.38,6.55,5.09"/>
              <path class="cls-2" d="M1067.18,319.73c4.27.24,8.54.49,12.81.73"/>
              <path class="cls-2" d="M1475.4,58.37c16.3-3.14,28.13,1.05,40.02,5.14"/>
              <path class="cls-2" d="M546.9,382.13h17.61"/>
              <path class="cls-2" d="M1184.04,186.11c11.21,1.71,22.41,3.43,33.62,5.14"/>
              <path class="cls-2" d="M1217.66,288.89c10.67,1.71,21.35,3.43,32.02,5.14"/>
              <path class="cls-2" d="M1099.2,238.97c6.94-1.47,13.87-2.94,20.81-4.41"/>
              <path class="cls-2" d="M580.52,449.68c11.74-.24,23.48-.49,35.22-.73"/>
              <path class="cls-2" d="M716.59,264.67c5.67-1.07,9.65-4.98,17.61-2.2"/>
              <path class="cls-2" d="M1403.36,341.75c10.67-1.22,21.34-2.45,32.02-3.67"/>
              <path class="cls-2" d="M361.2,4.77c2.13-1.22,4.15-3.45,6.42-3.51,13.3-.34,26.69-.37,39.98,0,2.82.08,5.36,2.28,8.03,3.5"/>
              <path class="cls-2" d="M642.95,205.93c13.08.62,22.23,3.46,25.61,9.54"/>
              <path class="cls-2" d="M500.47,390.94c11.21-.98,22.41-1.96,33.62-2.94"/>
              <path class="cls-2" d="M830.25,263.2c9.4-6.32,20.28-5.85,32.02-1.47"/>
              <path class="cls-2" d="M831.85,203.73c10.14-1.22,20.28-2.45,30.42-3.67"/>
              <path class="cls-2" d="M1118.41,103.88c11.21.24,22.41.49,33.62.73"/>
              <path class="cls-2" d="M1262.49,276.41q-19.82-2.93-32.19,2.2h22.58"/>
              <path class="cls-2" d="M1363.34,189.78c1.43-4.27,7.97-5.19,16.01-5.14"/>
              <path class="cls-2" d="M1281.7,216.21c9.61,2.45,18.87,5.28,28.95,7.19,5.65,1.07,12.67.64,19.08.88"/>
              <path class="cls-2" d="M1518.63,310.19c5.34.73,10.72,1.41,16,2.22,5.92.91,11.75,1.94,17.62,2.92"/>
              <path class="cls-2" d="M383.61,617.07c10.02,3.48,18.89,8.18,33.62,6.61"/>
              <path class="cls-2" d="M535.69,412.97c6.4,0,12.84.18,19.2-.06,4.86-.19,9.62-.92,14.42-1.41"/>
              <path class="cls-2" d="M1396.96,208.14c-13.34,3.92-26.68,7.83-40.02,11.75"/>
              <path class="cls-2" d="M462.05,373.32c-8.83-.66-14.82.35-14.41,5.14"/>
              <path class="cls-2" d="M465.25,633.95c1.6-.73,4.11-2.23,4.67-2.09,15.99,4.01,33.21,1.41,49.76,2.09"/>
              <path class="cls-2" d="M124.27,626.61c3.93,4,6.86,7.29,17.95,2.37,9.15-4.06,26.46-3.71,30.07-11.18"/>
              <path class="cls-2" d="M487.66,309.45c10.67.24,21.34.49,32.02.73"/>
              <path class="cls-2" d="M282.75,292.57c10.67-.98,21.34-1.96,32.02-2.94"/>
              <path class="cls-2" d="M1340.93,194.19c12.58,4.99,14.61,5.19,18.64-.82,2.52-3.76,4.8-2.02,8.59-1.4,13.57,2.21,20.2-.63,22.4-6.59"/>
              <path class="cls-2" d="M353.19,516.49c15.15-5.94,33.07-2.03,49.63-2.94"/>
              <path class="cls-2" d="M1067.18,158.95c7.93-.52,14.34.13,16.01,4.41"/>
              <path class="cls-2" d="M807.84,246.31c8.54-.24,17.21-.14,25.57-.83,7.97-.66,6.94-7.02,17.65-6.51"/>
              <path class="cls-2" d="M68.24,636.89c13.77.07,25.27-1.76,35.56-6.45,6.7-3.05,16.37-5.03,25.47-6.5,2.96-.48,8.33,2.18,12.6,3.4"/>
              <path class="cls-2" d="M506.88,541.45c16.01-.73,32.02-1.47,48.03-2.2"/>
              <path class="cls-2" d="M779.82,285.96c6.67,1.71,12.96,4.04,20.12,4.97,7.36.95,17.18,1.9,17.5-4.23"/>
              <path class="cls-2" d="M1128.01,126.64c4.27-.98,8.39-2.14,12.84-2.9,10.32-1.78,20-2.74,32.13-2.05,11.93.68,21.83.35,28.91,5.62,2.22,1.65,7.23,2.51,10.97,3.74"/>
              <path class="cls-2" d="M787.03,96.91c3.74.12,7.47.24,11.21.37"/>
              <path class="cls-2" d="M526.09,548.06c2.67.24,5.32.52,8.01.73,3.72.28,7.47.5,11.2.74"/>
              <path class="cls-2" d="M1217.66,468.77c4.58-4.09,10.62-4.95,19.3-2.26,4.29,1.33,9.52,2.02,14.32,3"/>
              <path class="cls-2" d="M791.83,113.43c10.04,3.14,17.97,2.91,22.41-2.94"/>
              <path class="cls-2" d="M806.24,451.15c13.74,1.06,26.86,1.87,39.03,6.25,7.07,2.54,21.41,6.96,29.81-1.12"/>
              <path class="cls-2" d="M550.1,266.14c10.14-1.47,20.28-2.94,30.42-4.41"/>
              <path class="cls-2" d="M796.63,59.1c9.07,2.06,17.74,5.89,27.69.17,1.35-.78,9.73.37,13.65,1.5,1.69.49,1.7,4.19-.03,4.72-3.19.98-8.5,1.21-12.41.77-2.63-.3-4.36-2.27-6.5-3.49"/>
              <path class="cls-2" d="M1046.37,553.93c10.14-.24,20.28-.49,30.42-.73"/>
              <path class="cls-2" d="M830.25,186.11c10.14-1.71,20.28-3.43,30.42-5.14"/>
              <path class="cls-2" d="M878.28,205.93c9.61-1.71,19.21-3.43,28.82-5.14"/>
              <path class="cls-2" d="M1493.01,172.9c6.09,2.99,11.63,6.7,22.41,3.67"/>
              <path class="cls-2" d="M337.18,155.28c7.46,3.37,11.93,10.38,26.32,2.47,5.06-2.78,17.29-6.29,28.11-1.74"/>
              <path class="cls-2" d="M325.98,157.48c5.43-6.51,11.45-7.43,25.54-3.62,3.15.85,5.41,2.39,8.07,3.62"/>
              <path class="cls-2" d="M1481.81,142.06c5.87-.73,11.74-1.47,17.61-2.2"/>
              <path class="cls-2" d="M1104,274.95c9.61-1.71,19.21-3.43,28.82-5.14"/>
              <path class="cls-2" d="M1100.8,266.14c9.61-1.96,19.21-3.92,28.82-5.87"/>
              <path class="cls-2" d="M1094.39,248.52c9.61-1.96,19.21-3.92,28.82-5.87"/>
              <path class="cls-2" d="M550.1,88.47c9.5,1.15,18.29,7.1,29.07.82.76-.44,5.09.4,7.75.64"/>
              <path class="cls-2" d="M85.85,284.49c9.61,1.47,19.21,2.94,28.82,4.41"/>
              <path class="cls-2" d="M1248.08,494.46c9.61-1.71,19.21-3.43,28.82-5.14"/>
              <path class="cls-2" d="M551.7,169.23c15.95,5.21,16.3,5.18,24.01-2.2"/>
              <path class="cls-2" d="M689.37,249.25c11.21.24,22.41.49,33.62.73"/>
              <path class="cls-2" d="M1557.05,368.18c5.34.24,10.67.49,16.01.73"/>
              <path class="cls-2" d="M1350.53,160.42c9.61-.98,19.21-1.96,28.82-2.94"/>
              <path class="cls-2" d="M457.25,9.91h28.82"/>
              <path class="cls-2" d="M1444.99,295.5c6.4.98,12.81,1.96,19.21,2.94"/>
              <path class="cls-2" d="M1465.8,298.44c11.21,2.45,22.41,4.89,33.62,7.34"/>
              <path class="cls-2" d="M1251.28,443.07c.53.24,1.14.46,1.59.74,7.57,4.68,19.09-6.48,28.11,2,5.32,5,19.4,8.03,29.54,11.94"/>
              <path class="cls-2" d="M1144.02,597.24c9.61.98,19.21,1.96,28.82,2.94"/>
              <path class="cls-2" d="M1136.02,574.49c9.61-1.71,19.21-3.43,28.82-5.14"/>
              <path class="cls-2" d="M766.22,588.43c9.61.98,19.21,1.96,28.82,2.94"/>
              <path class="cls-2" d="M1131.21,329.27c9.61,3.45,19.21,3.91,28.82,0"/>
              <path class="cls-2" d="M722.99,51.76h28.82"/>
              <path class="cls-2" d="M478.06,470.23c9.61-.24,19.21-.49,28.82-.73"/>
              <path class="cls-2" d="M1107.2,283.76c9.61-1.71,19.21-3.43,28.82-5.14"/>
              <path class="cls-2" d="M325.98,420.31h27.21"/>
              <path class="cls-2" d="M522.88,310.92h27.21"/>
              <path class="cls-2" d="M513.28,85.53c5.34-.49,10.63-1.16,16.02-1.4,3.12-.14,7.79-.11,9.35.76,6.41,3.57,5.92,3.53,13.13,2.19,2.75-.51,6.33-.08,9.53-.08"/>
              <path class="cls-2" d="M1134.42,505.47c9.07-1.47,18.14-2.94,27.21-4.41"/>
              <path class="cls-2" d="M106.66,15.05c9.07,1.71,18.14,3.43,27.21,5.14"/>
              <path class="cls-2" d="M97.05,100.95c9.07.98,18.14,1.96,27.21,2.94"/>
              <path class="cls-2" d="M106.66,249.98c9.07,1.47,18.14,2.94,27.21,4.41"/>
              <path class="cls-2" d="M1134.42,567.14c9.07-1.47,18.14-2.94,27.21-4.41"/>
              <path class="cls-2" d="M103.46,21.66c9.07,1.47,18.14,2.94,27.21,4.41"/>
              <path class="cls-2" d="M1387.35,78.92c9.07,1.71,18.14,3.43,27.21,5.14"/>
              <path class="cls-2" d="M1505.82,158.21c9.07,1.47,18.14,2.94,27.21,4.41"/>
              <path class="cls-2" d="M100.25,147.2c9.07-1.47,18.14-2.94,27.21-4.41"/>
              <path class="cls-2" d="M1539.44,381.4c9.07,1.47,18.14,2.94,27.21,4.41"/>
              <path class="cls-2" d="M1390.56,416.64c9.07,1.71,18.14,3.43,27.21,5.14"/>
              <path class="cls-2" d="M420.43,623.67c9.52-1.67,17.88-1.92,25.87,2.1,5.03,2.53,12.55,4.02,18.95,5.98"/>
              <path class="cls-2" d="M1614.68,559.07c9.07-1.71,18.14-3.43,27.21-5.14"/>
              <path class="cls-2" d="M1382.55,432.79h27.21"/>
              <path class="cls-2" d="M1617.88,567.88c9.07-1.71,18.14-3.43,27.21-5.14"/>
              <path class="cls-2" d="M1542.64,374.06c9.07.98,18.14,1.96,27.21,2.94"/>
              <path class="cls-2" d="M1449.79,276.05c3.2-.12,6.4-.24,9.61-.37"/>
              <path class="cls-2" d="M1496.21,277.88c9.61-.98,19.21-1.96,28.82-2.94"/>
              <path class="cls-2" d="M1635.49,434.26c.78,3.05,3.21,5.83,11.09,4.28,6.95-1.37,13.08-3.7,19.1-5.88.64-.23-1.18-2.92-3.13-3.41-3.74-.94-9.69-2.15-12.43-1.42-13.3,3.53-25.84,7.65-38.64,11.57"/>
              <path class="cls-2" d="M1246.48,489.32c9.07-1.47,18.14-2.94,27.21-4.41"/>
              <path class="cls-2" d="M998.34,547.32c4.06,3.8,7.93,7.82,19.21,3.67"/>
              <path class="cls-2" d="M827.05,349.83c9.07,1.47,18.14,2.94,27.21,4.41"/>
              <path class="cls-2" d="M1006.35,220.62c9.07-1.47,18.14-2.94,27.21-4.41"/>
              <path class="cls-2" d="M618.94,506.21c9.07-.98,18.14-1.96,27.21-2.94"/>
              <path class="cls-2" d="M1475.4,529.7c9.07-.49,18.14-.98,27.21-1.47"/>
              <path class="cls-2" d="M1469,135.45c12.27-5.13,24.55-2.76,36.82,0"/>
              <path class="cls-2" d="M1076.79,203.73c9.07-1.96,18.14-3.92,27.21-5.87"/>
              <path class="cls-2" d="M1079.99,209.6c9.07-1.47,18.14-2.94,27.21-4.41"/>
              <path class="cls-2" d="M1087.99,231.63c9.07-1.96,18.14-3.92,27.21-5.87"/>
              <path class="cls-2" d="M357.99,163.35c15.44,1.04,28.44-.93,40.3-5.73,4.1-1.66,11.46-1.61,17.33-2.35"/>
              <path class="cls-2" d="M1099.2,256.59c9.07-1.71,18.14-3.43,27.21-5.14"/>
              <path class="cls-2" d="M546.9,536.31c3.74.24,7.47.49,11.21.73"/>
              <path class="cls-2" d="M799.83,312.39c.61-4.62,7.84-7.11,15.99-7.03,5.41.05,10.69,3.11,16.02,4.82"/>
              <path class="cls-2" d="M1131.21,562.74c9.07-1.47,18.14-2.94,27.21-4.41"/>
              <path class="cls-2" d="M77.84,313.12c12.81,1.71,25.61,3.43,38.42,5.14"/>
              <path class="cls-2" d="M1153.63,106.09c8,.55,16.01-5.33,24.01,0"/>
              <path class="cls-2" d="M100.25,263.2c8.54.73,17.08,1.47,25.61,2.2"/>
              <path class="cls-2" d="M1611.48,552.46c8.54-1.47,17.08-2.94,25.61-4.41"/>
              <path class="cls-2" d="M586.92,233.1c10.14-.24,20.28-.49,30.42-.73"/>
              <path class="cls-2" d="M494.07,513.55h25.61"/>
              <path class="cls-2" d="M575.71,172.16c7.64.07,17.68,3.71,20.81-2.94"/>
              <path class="cls-2" d="M527.69,453.35c6.4-.98,12.68-2.5,19.24-2.81,10.03-.48,20.25-.13,30.39-.13"/>
              <path class="cls-2" d="M298.76,515.75c3.74-.24,7.69-.21,11.15-.8,5.33-.9,8.64-1.65,14.99.47,6.1,2.03,16.55,1.31,25.09,1.8"/>
              <path class="cls-2" d="M474.86,447.47c10.14.24,20.28.59,30.42.63,1.59,0,3.2-1.36,4.8-2.1"/>
              <path class="cls-2" d="M1276.89,245.58c8.54,1.71,17.08,3.43,25.61,5.14"/>
              <path class="cls-2" d="M1243.28,484.92c8.54-1.47,17.08-2.94,25.61-4.41"/>
              <path class="cls-2" d="M503.67,407.1c8.54,1.47,17.08,2.94,25.61,4.41"/>
              <path class="cls-2" d="M852.66,79.66c8.54-1.47,17.08-2.94,25.61-4.41"/>
              <path class="cls-2" d="M1531.43,396.82c8.54,1.47,17.08,2.94,25.61,4.41"/>
              <path class="cls-2" d="M1560.25,293.3h25.61"/>
              <path class="cls-2" d="M855.87,84.06c8.54-1.47,17.08-2.94,25.61-4.41"/>
              <path class="cls-2" d="M330.78,352.03h41.62"/>
              <path class="cls-2" d="M454.05,139.12h25.61"/>
              <path class="cls-2" d="M827.05,222.82v11.75"/>
              <path class="cls-2" d="M593.32,219.15h25.61"/>
              <path class="cls-2" d="M481.26,125.18h64.03"/>
              <path class="cls-2" d="M1521.03,316.06c3.99,4.82,3.78,9.49-2.4,13.95"/>
              <path class="cls-2" d="M1057.57,169.23c8.54-.24,17.08-.49,25.61-.73"/>
              <path class="cls-2" d="M103.46,255.12c8.54,1.47,17.08,2.94,25.61,4.41"/>
              <path class="cls-2" d="M1003.15,216.21c8.54-1.47,17.08-2.94,25.61-4.41"/>
              <path class="cls-2" d="M868.67,454.82c17.02,2.53,31.34,9.01,51.23,7.34"/>
              <path class="cls-2" d="M237.93,156.01c11.7,4.22,22.25.31,31.83-1.66,15.29-3.13,27.99-2.38,42.01,1.5,10.73,2.97,23.28,4.56,35.02,6.76"/>
              <path class="cls-2" d="M937.51,113.43c-1.6.49-4.37.89-4.6,1.48-1,2.65-1.27,5.37-1.8,8.06"/>
              <path class="cls-2" d="M907.09,459.22c8-1.47,16.01-2.94,24.01-4.41"/>
              <path class="cls-2" d="M1092.79,550.99c5.34,1.22,10.47,2.75,16.1,3.53,2.47.35,9.05,1.58,7.91-2.06"/>
              <path class="cls-2" d="M1180.84,109.02h36.82"/>
              <path class="cls-2" d="M1219.26,324.87c-1.07,3.67-2.13,7.34-3.2,11.01"/>
              <path class="cls-2" d="M511.68,447.47h24.01"/>
              <path class="cls-2" d="M1238.47,324.13c8.12.55,16.57,3.4,24.01-.73"/>
              <path class="cls-2" d="M1396.96,233.83c11.21-3.18,22.41-6.36,33.62-9.54"/>
              <path class="cls-2" d="M454.05,380.67q13.06-5.85,24.01-2.94"/>
              <path class="cls-2" d="M1499.42,166.29c8,1.96,16.01,3.92,24.01,5.87"/>
              <path class="cls-2" d="M649.35,217.68c7.65,6.6,13.28,2.11,19.21-.73"/>
              <path class="cls-2" d="M652.55,446.01c10.89,4.93,6.32,9.48-1.6,13.95"/>
              <path class="cls-2" d="M658.96,248.52c8,.24,16.01.49,24.01.73"/>
              <path class="cls-2" d="M726.19,313.12c6.94.98,14.83,1.3,20.63,3.06,16.85,5.12,36.2,4.31,54.61,5.75"/>
              <path class="cls-2" d="M703.78,354.24c3.75-5.02,13.06-3.41,20.81-3.67"/>
              <path class="cls-2" d="M527.69,215.48c1.83,9.15,6.16,10.07,24.01,5.14"/>
              <path class="cls-2" d="M1079.99,552.46c3.74,0,7.53-.19,11.19.05,3.81.25,7.49.93,11.22,1.42"/>
              <path class="cls-2" d="M343.59,606.05c11.17,7.03,12,6.86,28.22,3.91,3.65-.66,9.93,1.72,15,2.7"/>
              <path class="cls-2" d="M1172.84,310.92c12.81-.98,25.61-1.96,38.42-2.94"/>
              <path class="cls-2" d="M577.31,92.87c1.6.49,3.77,1.56,4.71,1.37,5-1.02,10.83-3.83,14.27-3.27,7.68,1.24,16.51,3.43,20.51,6.45,7.01,5.29,16.12,6.26,27.75,5.73"/>
              <path class="cls-2" d="M1403.36,370.39c7.47-.98,14.94-1.96,22.41-2.94"/>
              <path class="cls-2" d="M1400.16,389.48c7.47-.98,14.94-1.96,22.41-2.94"/>
              <path class="cls-2" d="M1267.29,445.27c5.34.24,11.17,1.25,15.92.6,20.7-2.84,41.35,1.74,48.11,11.14"/>
              <path class="cls-2" d="M1470.6,311.65c7.47-.98,14.94-1.96,22.41-2.94"/>
              <path class="cls-2" d="M322.78,134.72c13.3,6.12,13.52,6.11,30.42-1.47"/>
              <path class="cls-2" d="M1515.42,354.97c.53-2.94.93-5.88,1.63-8.81.94-3.92,2.1-7.83,3.17-11.75"/>
              <path class="cls-2" d="M1493.01,355.7c11.07.12,22.46-1.03,30.87,4.25,2.36,1.48,10.22,1.13,15.55,1.62"/>
              <path class="cls-2" d="M1316.92,161.88c12.81.24,25.61.49,38.42.73"/>
              <path class="cls-2" d="M1557.05,338.08c7.47-.98,14.94-1.96,22.41-2.94"/>
              <path class="cls-2" d="M1001.54,398.29c1.6-3.92.8-8.63,5.4-11.55,5.98-3.79,13.5-1.1,18.61,2"/>
              <path class="cls-2" d="M1412.97,298.44c7.47-.98,14.94-1.96,22.41-2.94"/>
              <path class="cls-2" d="M777.42,282.29c13.86-4.73,27.79-9.37,46.43-8.81"/>
              <path class="cls-2" d="M594.92,210.34c5.87-1.71,11.73-3.43,17.66-5.1.15-.04,1.32.42,1.48.71.26.46.07.97.07,1.46"/>
              <path class="cls-2" d="M1126.41,553.93c5.9-6.42,13.53-2.54,20.48.2-4.16-.31-8.32-.63-12.47-.94"/>
              <path class="cls-2" d="M218.72,500.33c1.07,1.96,1.48,5.45,3.31,5.62,9.53.85,18.23,6.06,28.52,2.35,7.99-2.88,12.89-3.56,16.2,1.58"/>
              <path class="cls-2" d="M1046.37,448.21h20.81"/>
              <path class="cls-2" d="M340.38,605.32c-4.8.49-9.61.98-14.41,1.47,4.99,4.38,12.62,1.48,19.21,1.47"/>
              <path class="cls-2" d="M1485.01,147.93c6.94.73,13.87,1.47,20.81,2.2"/>
              <path class="cls-2" d="M452.45,424.72c7.63-.76,12.77-2.98,23.33.07,9.37,2.7,26.83.01,35.9-5.94"/>
              <path class="cls-2" d="M127.47,487.12c4.63,6.05,14.83,7.27,27.21,6.61"/>
              <path class="cls-2" d="M1412.97,59.1c10.14-4.4,13.11.23,17.61,2.94"/>
              <path class="cls-2" d="M1195.25,311.65c-3.5,3.72-1.31,6.84,4.8,9.54"/>
              <path class="cls-2" d="M250.74,509.14c6.84,4.28,14.86.79,22.41.82,4.81.02,9.61.89,14.41,1.38"/>
              <path class="cls-2" d="M1513.82,534.84c6.94,1.71,13.87,3.43,20.81,5.14"/>
              <path class="cls-2" d="M553.3,131.05c9.07,1.81,16.94,5.82,27.75.21,5.08-2.64,12.38.18,15.48,3.46"/>
              <path class="cls-2" d="M1401.76,207.4c12.18,8.02,12.51,8.02,28.82,0"/>
              <path class="cls-2" d="M1465.8,219.88c-10.19-.22-16.74,1.5-17.66,6.61-.96,5.32-10.66,6.05-19.16,7.34"/>
              <path class="cls-2" d="M257.14,477.58c16.66,3.41,24.76,1.44,27.21-6.61"/>
              <path class="cls-2" d="M274.75,512.82c6.4.24,12.81.49,19.21.73"/>
              <path class="cls-2" d="M799.83,271.27c6.4-1.22,12.81-2.45,19.21-3.67"/>
              <path class="cls-2" d="M308.37,153.07c6.4-2.61,12.81-2.61,19.21,0"/>
              <path class="cls-2" d="M535.69,128.11c3.2-.24,6.4-.49,9.61-.73,3.2-.24,6.4-.49,9.61-.73"/>
              <path class="cls-2" d="M665.36,106.82c4.27,1.96,8.54,3.92,12.81,5.87"/>
              <path class="cls-2" d="M891.08,442.34c5.59.91,11.86,4.97,16.01-.73"/>
              <path class="cls-2" d="M1477,179.5c6.4.49,12.81.98,19.21,1.47"/>
              <path class="cls-2" d="M1078.39,188.31c6.4-1.22,12.81-2.45,19.21-3.67"/>
              <path class="cls-2" d="M793.43,439.4c9.76.66,22.76-3.81,18.55-6.38-6.69-4.09,4.13-4.5,3.86-6.83"/>
              <path class="cls-2" d="M593.32,241.17c6.33-.67,13.09-2.43,17.61,1.47"/>
              <path class="cls-2" d="M745.4,53.23c4.8.24,10.21,1.26,14.29.58,9.35-1.56,16.53-2.46,21.49,2.99.9.99,9.05.6,13.85.84"/>
              <path class="cls-2" d="M1483.41,266.14c2.67-.24,6.62-1.13,7.79-.63,6.8,2.87,12,7.1,23.08,2.32,1.48-.64,9.15,1.74,13.95,2.71"/>
              <path class="cls-2" d="M1169.64,107.56c5.87-.73,11.67-1.83,17.64-2.05,3.05-.12,6.38,1.32,9.58,2.05"/>
              <path class="cls-2" d="M564.51,258.79c8.54-.49,17.08-.98,25.61-1.47"/>
              <path class="cls-2" d="M1364.94,237.5c6.4-.49,12.81-.98,19.21-1.47"/>
              <path class="cls-2" d="M1091.19,216.21c6.4-1.22,12.81-2.45,19.21-3.67"/>
              <path class="cls-2" d="M551.7,194.92h19.21"/>
              <path class="cls-2" d="M763.01,435.73c13.87.24,27.75.49,41.62.73"/>
              <path class="cls-2" d="M1067.18,324.87c5.87.49,11.74.98,17.61,1.47"/>
              <path class="cls-2" d="M1209.66,321.93h17.61"/>
              <path class="cls-2" d="M620.54,158.95c5.87,1.22,11.74,2.45,17.61,3.67"/>
              <path class="cls-2" d="M886.28,376.26c5.87-.98,11.74-1.96,17.61-2.94"/>
              <path class="cls-2" d="M1300.91,421.04c4.05-1.85,3-7.9,14.41-3.67"/>
              <path class="cls-2" d="M100.25,633.95c11.85,4.23,21.39,1.76,30.42-2.2"/>
              <path class="cls-2" d="M367.6,613.4c5.33,2.98,10.9,4.73,17.61.73,4.25-2.53,9.01-2.96,14.41-.73"/>
              <path class="cls-2" d="M827.05,178.77c5.87-1.22,11.74-2.45,17.61-3.67"/>
              <path class="cls-2" d="M690.98,351.3c5.34-.49,10.67-.98,16.01-1.47"/>
              <path class="cls-2" d="M375.6,363.05c11.74.24,23.48.49,35.22.73"/>
              <path class="cls-2" d="M1425.78,56.16c8.42-1.07,12.31.63,12.81,4.41"/>
              <path class="cls-2" d="M1387.35,423.98c5.87,1.22,11.74,2.45,17.61,3.67"/>
              <path class="cls-2" d="M471.66,363.78c10.14-.24,20.28-.49,30.42-.73"/>
              <path class="cls-2" d="M1471.4,335.15c-1.54-5.46-7.33-11.05,2.4-16.15"/>
              <path class="cls-2" d="M1472.2,330.01c5.87-.73,11.74-1.47,17.61-2.2"/>
              <path class="cls-2" d="M1371.35,489.32c7.53,3.7,11.92-.52,17.61-1.47"/>
              <path class="cls-2" d="M478.06,273.48c7.97-4.8,11.79.85,17.61,1.47"/>
              <path class="cls-2" d="M903.89,334.41c1.6-1.22,2.9-3.35,4.86-3.49,4.62-.32,9.55.31,14.35.55-1.6,1.71-3.2,3.43-4.8,5.14"/>
              <path class="cls-2" d="M1278.49,223.55c6.69,1.34,12.59,1.46,16.01-2.2"/>
              <path class="cls-2" d="M1621.08,437.2c4.05,1.85,3,7.9,14.41,3.67"/>
              <path class="cls-2" d="M1332.92,223.55c9.89-2.44,18.47-3.69,30.82-1.15,9.91,2.04,23.38.32,30.01-5.46"/>
              <path class="cls-2" d="M756.61,187.58c5.87,1.22,11.74,2.45,17.61,3.67"/>
              <path class="cls-2" d="M1465.8,205.93c5.87,1.22,11.74,2.45,17.61,3.67"/>
              <path class="cls-2" d="M657.36,457.75c9.61-.24,19.21-.49,28.82-.73"/>
              <path class="cls-2" d="M306.77,261c3.74,1.71,7.47,3.43,11.21,5.14"/>
              <path class="cls-2" d="M183.5,494.46c5.97,6.5,15.72,10.33,32.02,9.54"/>
              <path class="cls-2" d="M1015.95,252.19c7.45-.21,15.96,1.15,20.81-2.94"/>
              <path class="cls-2" d="M779.02,418.11c5.87-1.22,11.74-2.45,17.61-3.67"/>
              <path class="cls-2" d="M1030.36,313.12c-4.27.24-8.87.12-12.72.84-4.14.77-7.56,2.35-11.3,3.57"/>
              <path class="cls-2" d="M618.94,96.54c13.04-1.89,23.38-.44,30.42,5.14"/>
              <path class="cls-2" d="M948.72,155.28c5.87-1.22,11.74-2.45,17.61-3.67"/>
              <path class="cls-2" d="M1057.57,161.88c7.97-4.8,11.79.85,17.61,1.47"/>
              <path class="cls-2" d="M258.74,6.97c5.61-1,11.72-4.33,16.01.73"/>
              <path class="cls-2" d="M782.22,55.43q12.64-1.82,12.81,2.2"/>
              <path class="cls-2" d="M1179.24,344.69h17.61"/>
              <path class="cls-2" d="M519.68,125.91c4.52.67,9.71,3.82,12.81-.73"/>
              <path class="cls-2" d="M695.78,116.37c8,2.94,15.46,6.35,24.37,8.5,2.45.59,9.25-2.62,14.05-4.09"/>
              <path class="cls-2" d="M489.27,362.31c9.06-4.77,19.36.72,28.82-.73"/>
              <path class="cls-2" d="M727.8,252.19c5.34.49,10.67.98,16.01,1.47"/>
              <path class="cls-2" d="M1342.53,222.82c4.44,1.76,8.42,5.36,14.41.73"/>
              <path class="cls-2" d="M596.52,95.81h16.01"/>
              <path class="cls-2" d="M791.83,448.94h16.01"/>
              <path class="cls-2" d="M1283.3,167.76c6.95-5.11,17.11-3.98,27.21-2.94"/>
              <path class="cls-2" d="M815.84,109.02c10.1.96,13.75,8.19,27.21,5.87"/>
              <path class="cls-2" d="M1204.85,109.76c8.79,4.08,20.54,4.84,28.96,2.3,2.24-.67,6.26-.1,9.46-.1"/>
              <path class="cls-2" d="M1195.25,122.24c4.8-.41,9.61-5.03,14.41,0"/>
              <path class="cls-2" d="M135.47,622.94c8.52-5.08,19.48-7.55,33.62-6.61"/>
              <path class="cls-2" d="M1193.65,464.36c5.37-5.17,14.41.63,20.81-1.47"/>
              <path class="cls-2" d="M1182.44,527.5c7.41,1.08,11.45-.31,12.81-3.67"/>
              <path class="cls-2" d="M180.3,493.73c-6.94-.73-13.87-1.47-20.81-2.2-.53,1.22-1.85,3.46-1.49,3.52,7.32,1.18,14.81,2.14,22.31,3.06,1.49.18,3.19.03,4.79.03"/>
              <path class="cls-2" d="M855.87,172.9c6.4.49,12.81.98,19.21,1.47"/>
              <path class="cls-2" d="M1054.37,365.25c24.55-.49,49.09-.98,73.64-1.47"/>
              <path class="cls-2" d="M295.56,515.02c4.57-3.31,8.07-3.49,14.41-.73"/>
              <path class="cls-2" d="M1598.67,440.13c8.54.73,17.08,1.47,25.61,2.2"/>
              <path class="cls-2" d="M1038.36,313.12c6.94-.24,13.88-.68,20.81-.62,2.16.02,6.08,1.37,6.06,2.09-.06,1.96-1.8,5.62-2.85,5.61-10.73-.02-4.97-4-6.41-6.35"/>
              <path class="cls-2" d="M1062.38,247.05c3.47,3.24,7.73,4.84,14.41,1.47"/>
              <path class="cls-2" d="M838.26,453.35c7.47-3.29,14.94-1.49,22.41,0"/>
              <path class="cls-2" d="M391.61,9.18c4.68,1.99,8.77,5.34,16.01,1.47"/>
              <path class="cls-2" d="M870.27,332.21c8.7-2.76,16.53-3.81,20.81,2.2"/>
              <path class="cls-2" d="M430.03,50.29h16.01"/>
              <path class="cls-2" d="M542.09,513.55c4.8-.24,9.61-.49,14.41-.73"/>
              <path class="cls-2" d="M303.56,253.65c.19,4.49,1.97,4.8,12.81,2.2"/>
              <path class="cls-2" d="M191.5,497.77c4.8.12,9.61.24,14.41.37"/>
              <path class="cls-2" d="M1603.47,542.18c4.16-5.11,10.66-6.75,20.81-2.94"/>
              <path class="cls-2" d="M692.58,321.93c11.68,4.97,19.61-.37,28.82-2.2"/>
              <path class="cls-2" d="M1385.75,442.34c4.93.22,7.6,5.12,14.41,1.47"/>
              <path class="cls-2" d="M859.07,390.94c9.97,2.75,20.08,6.68,28.82-.73"/>
              <path class="cls-2" d="M761.41,323.4h14.41"/>
              <path class="cls-2" d="M545.3,129.58c2.13.24,5.61.99,6.2.66,10.12-5.67,18.8-2.96,27.41.81"/>
              <path class="cls-2" d="M628.54,208.14v6.61"/>
              <path class="cls-2" d="M189.9,153.81c12.18,4.78,17.85,4.93,27.21.73"/>
              <path class="cls-2" d="M1451.39,371.86c9.61,3.3,19.21,3.3,28.82,0"/>
              <path class="cls-2" d="M375.6,124.44c4.84,4.9,7.66,5.03,16.01.73"/>
              <path class="cls-2" d="M348.39,128.85c7.5-3.28,16.01-4.09,25.61-2.2"/>
              <path class="cls-2" d="M1232.07,114.9c4.27-.24,8.54-.48,12.81-.74,3.74-.23,7.47-.49,11.21-.73"/>
              <path class="cls-2" d="M1408.17,232.36c1.07.73,1.99,2.04,3.23,2.1,4.74.25,9.58.1,14.38.1-1.6-1.71-3.2-3.43-4.8-5.14"/>
              <path class="cls-2" d="M1499.42,267.6c4.27-.98,8.54-1.96,12.81-2.94"/>
              <path class="cls-2" d="M1299.31,223.55c3.74.49,7.47.98,11.21,1.47"/>
              <path class="cls-2" d="M226.72,6.24c3.74-.98,7.47-1.96,11.21-2.94"/>
              <path class="cls-2" d="M442.84,633.22c3.74-.98,7.47-1.96,11.21-2.94"/>
              <path class="cls-2" d="M1281.7,416.64c4.27-.73,8.54-1.47,12.81-2.2"/>
              <path class="cls-2" d="M910.29,392.41c4.27.49,8.54.98,12.81,1.47"/>
              <path class="cls-2" d="M1152.03,123.71c6.4,2.57,12.81,2.74,19.21,0"/>
              <path class="cls-2" d="M990.34,304.31c4.27.24,8.54.49,12.81.73"/>
              <path class="cls-2" d="M1041.57,327.07c4.27-.24,8.54-.49,12.81-.73"/>
              <path class="cls-2" d="M1163.23,521.63c4.27-.49,8.54-.98,12.81-1.47"/>
              <path class="cls-2" d="M417.23,52.49c4.27.73,8.54,1.47,12.81,2.2"/>
              <path class="cls-2" d="M170.69,10.64c7.91,2.79,16.27,3.93,25.61,1.47"/>
              <path class="cls-2" d="M991.94,333.68c-3.56-4.82-1.93-7.65,11.17-8.25,9.42-.43,23.19.99,23.02-7.17-.04-1.68,5.97-3.84,12.61-.91,3.85,1.7,11.37,1.64,17.24,2.38"/>
              <path class="cls-2" d="M1544.24,538.51h12.81"/>
              <path class="cls-2" d="M727.8,457.02c3.2-.73,6.4-1.47,9.61-2.2"/>
              <path class="cls-2" d="M398.02,158.95c10.14,1.53,20.28,7.44,30.42,0"/>
              <path class="cls-2" d="M524.48,87c8-.49,16.01-.98,24.01-1.47"/>
              <path class="cls-2" d="M314.77,138.39c4.27.49,8.54.98,12.81,1.47"/>
              <path class="cls-2" d="M737.4,321.93c3.74-.98,7.47-1.96,11.21-2.94"/>
              <path class="cls-2" d="M1073.58,178.04c.53-1.71,1.07-3.43,1.6-5.14"/>
              <path class="cls-2" d="M1150.43,512.82c3.74-.49,7.47-.98,11.21-1.47"/>
              <path class="cls-2" d="M162.69,216.21c4.8-.24,10.62.21,14.18-.89,6.15-1.89,10.9-4.74,16.23-7.19"/>
              <path class="cls-2" d="M703.78,317.53c3.74,1.22,7.47,2.45,11.21,3.67"/>
              <path class="cls-2" d="M865.47,285.96c4.63-4.51,13.3-4.69,22.41-4.41"/>
              <path class="cls-2" d="M684.57,113.43c1.6-.98,3.5-1.89,4.71-2.96.99-.87,1.16-1.94,1.69-2.91-2.13,0-4.56-.3-6.34.07-2.87.59-3.54,4.28-1.67,6.54"/>
              <path class="cls-2" d="M686.17,265.4c-6.46,2.08-8.36,4.74-4.8,8.08"/>
              <path class="cls-2" d="M375.6,12.11c11.58,1.64,13.58.72,12.81-5.87"/>
              <path class="cls-2" d="M378.81,123.71c3.74.24,7.47.49,11.21.73"/>
              <path class="cls-2" d="M399.62,620c1.07-.73,2.51-1.41,3.11-2.22.88-1.17,1.16-2.43,1.69-3.66-2.13.49-4.58.81-6.32,1.51-1.96.79-3.29,1.91-4.89,2.89"/>
              <path class="cls-2" d="M402.82,506.94c1.07.73,2.51,1.41,3.11,2.22.88,1.17,1.16,2.43,1.69,3.66-2.13-.49-4.58-.81-6.32-1.51-1.96-.79-3.29-1.91-4.89-2.89"/>
              <path class="cls-2" d="M409.22,505.47c2.67,1.71,5.34,3.43,8,5.14"/>
              <path class="cls-2" d="M452.45,148.67c5.87,1.47,11.74,2.94,17.61,4.41"/>
              <path class="cls-2" d="M460.45,424.72c3.74.49,7.47.98,11.21,1.47"/>
              <path class="cls-2" d="M466.85,471.7c2.67-.49,5.34-.98,8-1.47-.53.73-1.07,1.47-1.6,2.2"/>
              <path class="cls-2" d="M500.47,446.01h9.61"/>
              <path class="cls-2" d="M514.88,550.99c7.56-.85,9.64-7.14,20.81-4.41"/>
              <path class="cls-2" d="M330.78,286.69c6.9,2.32,13.97,4.11,22.41,1.47"/>
              <path class="cls-2" d="M892.69,330.74h11.21"/>
              <path class="cls-2" d="M839.86,379.2c3.74-.49,7.47-.98,11.21-1.47"/>
              <path class="cls-2" d="M937.51,116.37c2.67-3.06,5.91-3.13,7.76.03.9,1.54-.82,3.4-1.35,5.11"/>
              <path class="cls-2" d="M567.71,381.4h9.61"/>
              <path class="cls-2" d="M714.99,313.12c11.84-1.11,15.22,2.09,16.01,6.61"/>
              <path class="cls-2" d="M1387.35,235.3c6.4.49,12.81.98,19.21,1.47"/>
              <path class="cls-2" d="M798.23,140.59c-1.61,5.49,3.13,7.24,14.41,5.14"/>
              <path class="cls-2" d="M854.26,458.49c.53-.49.8-1.15,1.65-1.44,3.08-1.06,6.35-1.99,9.56-2.97-1.6,1.71-3.2,3.43-4.8,5.14"/>
              <path class="cls-2" d="M404.42,378.46c4.8-.24,9.61-.49,14.41-.73"/>
              <path class="cls-2" d="M409.22,160.42c.53-.49.8-1.15,1.65-1.44,3.08-1.06,6.35-1.99,9.56-2.97-1.6,1.71-3.2,3.43-4.8,5.14"/>
              <path class="cls-2" d="M1502.62,271.27c.53,1.47,1.07,2.94,1.6,4.41"/>
              <path class="cls-2" d="M1252.88,214.01c8.54.49,17.08.98,25.61,1.47"/>
              <path class="cls-2" d="M470.06,421.78c6.4-1.71,12.81-3.43,19.21-5.14"/>
              <path class="cls-2" d="M737.4,344.69c4.8.24,9.61.49,14.41.73"/>
              <path class="cls-2" d="M849.46,344.69c4.83-2,9.64-4.01,4.8-7.34"/>
              <path class="cls-2" d="M519.68,552.46c7.47-.49,14.94-.98,22.41-1.47"/>
              <path class="cls-2" d="M269.95,150.14c-12.46-.37-13.6.24-9.61,5.14"/>
              <path class="cls-2" d="M558.1,443.07c11.74-.24,23.48-.49,35.22-.73"/>
              <path class="cls-2" d="M295.56,158.21c2.67-.24,5.34-.49,8-.73"/>
              <path class="cls-2" d="M1595.47,535.57c2.67.24,5.34.49,8,.73"/>
              <path class="cls-2" d="M1513.82,430.59c5.87-.24,11.74-.49,17.61-.73"/>
              <path class="cls-2" d="M359.6,363.05c-3.74.49-7.47.98-11.21,1.47,2.13.98,4.27,1.96,6.4,2.94"/>
              <path class="cls-2" d="M1204.85,126.64c.11-4.01,5.18-4.99,12.81-4.41"/>
              <path class="cls-2" d="M510.08,383.6h14.41"/>
              <path class="cls-2" d="M513.28,544.38c-.53.98-1.07,1.96-1.6,2.94"/>
              <path class="cls-2" d="M711.79,260.26h12.81"/>
              <path class="cls-2" d="M1470.6,129.58h12.81"/>
              <path class="cls-2" d="M454.05,633.22h6.4"/>
              <path class="cls-2" d="M241.13,10.64q6.4.11,6.4-4.41"/>
              <path class="cls-2" d="M316.37,515.75c2.13,0,4.27,0,6.4,0"/>
              <path class="cls-2" d="M641.35,222.09h12.81"/>
              <path class="cls-2" d="M634.94,205.93c2.13.73,4.27,1.47,6.4,2.2"/>
              <path class="cls-2" d="M1380.95,446.74c2.13-.24,4.27-.49,6.4-.73"/>
              <path class="cls-2" d="M535.69,194.19c2.13.24,4.27.49,6.4.73,2.13.24,4.27.49,6.4.73"/>
              <path class="cls-2" d="M535.69,195.66c2.13,0,4.38.19,6.37-.05,2.26-.27,4.3-.93,6.43-1.42"/>
              <path class="cls-2" d="M721.39,341.02c1.07-.24,2.09-.57,3.22-.69.4-.04,1.05.44,1.58.69"/>
              <path class="cls-2" d="M831.85,432.06c1.07.24,2.09.57,3.22.69.4.04,1.05-.44,1.58-.69"/>
              <path class="cls-2" d="M452.45,426.18c1.07.24,2.09.57,3.22.69.4.04,1.05-.44,1.58-.69"/>
              <path class="cls-2" d="M1275.29,414.44c1.07-.24,2.09-.57,3.22-.69.4-.04,1.05.44,1.58.69"/>
              <path class="cls-2" d="M249.13,433.53c1.07.24,2.09.57,3.22.69.4.04,1.05-.44,1.58-.69"/>
              <path class="cls-2" d="M570.91,540.71c1.07.24,2.09.57,3.22.69.4.04,1.05-.44,1.58-.69"/>
              <path class="cls-2" d="M695.78,458.49c1.07.24,2.09.57,3.22.69.4.04,1.05-.44,1.58-.69"/>
              <path class="cls-2" d="M217.12,157.48c1.07.24,2.09.57,3.22.69.4.04,1.05-.44,1.58-.69"/>
              <path class="cls-2" d="M1030.36,385.07c1.07-.24,2.09-.57,3.22-.69.4-.04,1.05.44,1.58.69"/>
              <path class="cls-2" d="M221.92,3.3c1.07-.24,2.09-.57,3.22-.69.4-.04,1.05.44,1.58.69"/>
              <path class="cls-2" d="M249.13,10.64c1.07.24,2.09.57,3.22.69.4.04,1.05-.44,1.58-.69"/>
              <path class="cls-2" d="M274.75,4.77c1.07-.24,2.09-.57,3.22-.69.4-.04,1.05.44,1.58.69"/>
              <path class="cls-2" d="M1480.2,150.14c1.07.24,2.09.57,3.22.69.4.04,1.05-.44,1.58-.69"/>
              <path class="cls-2" d="M442.84,161.88c1.07.24,2.09.57,3.22.69.4.04,1.05-.44,1.58-.69"/>
              <path class="cls-2" d="M809.44,317.53c-.27.73-.53,1.47-.8,2.2"/>
              <path class="cls-2" d="M617.34,205.93c1.07-.24,2.09-.57,3.22-.69.4-.04,1.05.44,1.58.69"/>
              <path class="cls-2" d="M1062.38,251.45c1.07.24,2.09.57,3.22.69.4.04,1.05-.44,1.58-.69"/>
              <path class="cls-2" d="M1193.65,305.78v2.2"/>
              <path class="cls-2" d="M727.8,269.07c1.07.24,2.09.57,3.22.69.39.04,1.05-.44,1.58-.69"/>
              <path class="cls-2" d="M316.37,606.79c1.07.24,2.09.57,3.22.69.4.04,1.05-.44,1.58-.69"/>
              <path class="cls-2" d="M1305.71,123.71c1.07.24,2.09.57,3.22.69.4.04,1.05-.44,1.58-.69"/>
              <path class="cls-2" d="M1196.85,527.5c1.07.24,2.09.57,3.22.69.4.04,1.05-.44,1.58-.69"/>
              <path class="cls-2" d="M1121.61,550.99c1.07-.24,2.09-.57,3.22-.69.4-.04,1.05.44,1.58.69"/>
              <path class="cls-2" d="M410.82,54.69c1.07.24,2.09.57,3.22.69.4.04,1.05-.44,1.58-.69"/>
              <path class="cls-2" d="M836.65,304.31c1.07-.24,2.09-.57,3.22-.69.4-.04,1.05.44,1.58.69"/>
              <path class="cls-2" d="M886.28,393.88c1.07.24,2.09.57,3.22.69.4.04,1.05-.44,1.58-.69"/>
              <path class="cls-2" d="M1086.39,158.95c1.07-.24,2.09-.57,3.22-.69.4-.04,1.05.44,1.58.69"/>
              <path class="cls-2" d="M1107.2,550.99c1.07-.24,2.09-.57,3.22-.69.4-.04,1.05.44,1.58.69"/>
              <path class="cls-2" d="M873.47,459.96c1.07.24,2.09.57,3.22.69.4.04,1.05-.44,1.58-.69"/>
              <path class="cls-2" d="M1332.92,197.12c1.07.24,2.09.57,3.22.69.4.04,1.05-.44,1.58-.69"/>
              <path class="cls-2" d="M428.43,426.18c1.07.24,2.09.57,3.22.69.4.04,1.05-.44,1.58-.69"/>
              <path class="cls-2" d="M1214.46,527.5c1.07.24,2.09.57,3.22.69.4.04,1.05-.44,1.58-.69"/>
              <path class="cls-2" d="M1387.35,236.77c1.07.24,2.09.57,3.22.69.4.04,1.05-.44,1.58-.69"/>
              <path class="cls-2" d="M428.43,161.88c1.07.24,2.09.57,3.22.69.4.04,1.05-.44,1.58-.69"/>
              <path class="cls-2" d="M1496.21,263.93c1.6-.24,3.2-.49,4.8-.73"/>
              <path class="cls-2" d="M817.44,114.9c1.07.24,2.09.57,3.22.69.4.04,1.05-.44,1.58-.69"/>
              <path class="cls-2" d="M366,515.75c1.07.24,2.09.57,3.22.69.4.04,1.05-.44,1.58-.69"/>
              <path class="cls-2" d="M1440.18,56.16c1.07-.24,2.09-.57,3.22-.69.4-.04,1.05.44,1.58.69"/>
              <path class="cls-2" d="M714.99,415.91c1.07.24,2.09.57,3.22.69.4.04,1.05-.44,1.58-.69"/>
              <path class="cls-2" d="M897.49,313.12c1.07.24,2.09.57,3.22.69.4.04,1.05-.44,1.58-.69"/>
              <path class="cls-2" d="M935.91,258.79c1.07-.24,2.09-.57,3.22-.69.4-.04,1.05.44,1.58.69"/>
              <path class="cls-2" d="M714.99,458.49c1.07.24,2.09.57,3.22.69.4.04,1.05-.44,1.58-.69"/>
              <path class="cls-2" d="M1230.47,465.83c1.6,1.47,3.2,2.94,4.8,4.41"/>
              <path class="cls-2" d="M1457.79,56.16c1.07-.24,2.09-.57,3.22-.69.4-.04,1.05.44,1.58.69"/>
              <path class="cls-2" d="M923.1,435.73c2.13-.98,4.27-1.96,6.4-2.94"/>
              <path class="cls-2" d="M801.44,423.98c2.13.49,4.27.98,6.4,1.47"/>
              <path class="cls-2" d="M364.4,160.42c8.41,4.23,9.57-1.52,14.41-2.2"/>
              <path class="cls-2" d="M791.83,283.02c2.13.98,4.27,1.96,6.4,2.94"/>
              <path class="cls-2" d="M609.33,209.6c1.6-.73,3.2-1.47,4.8-2.2"/>
            </g>
          </g>
        </g>
      </g>
    </g>
  </g>
</svg>