<?xml version="1.0" encoding="UTF-8"?>
<svg xmlns="http://www.w3.org/2000/svg" viewBox="0 0 1578.9 747.37">
  <defs>
    <style>
      .cls-1 {
        mix-blend-mode: difference;
      }

      .cls-2 {
        fill: none;
        stroke: #000;
        stroke-dasharray: .2 .2 .2 .2 .2 .2;
        stroke-miterlimit: 10;
        stroke-width: 2px;
      }

      .cls-3 {
        isolation: isolate;
      }

      .cls-4 {
        mix-blend-mode: screen;
      }
    </style>
  </defs>
  <g class="cls-3">
    <g id="Layer_2" data-name="Layer 2">
      <g id="Layer_1-2" data-name="Layer 1">
        <g class="cls-1">
          <g class="cls-4">
            <g>
              <g>
                <path class="cls-2" d="M706.3,556.12c-.3,10.03-.74,20.07-.82,30.1,0,.71.09,1.41.23,2.12"/>
                <path d="M707.21,593.56c-1.6-2.21-4.01-4.83-6.18-6.27l4.54.35,3.71-2.64c-1.12,2.35-1.83,5.84-2.06,8.56Z"/>
              </g>
              <g>
                <path class="cls-2" d="M747.42,542.17c-1.83,12.48-4.74,24.96-5.1,37.44-.18,6.32,1.92,12.64,3.73,18.97"/>
                <path d="M747.42,603.84c-1.57-2.23-3.94-4.88-6.1-6.34l4.53.4,3.74-2.59c-1.16,2.34-1.91,5.82-2.17,8.53Z"/>
              </g>
              <g>
                <path class="cls-2" d="M1143.97,356.42c20.37.48,24.85,1.43,22.26,8.96"/>
                <path d="M1164.07,370.37c.12-2.72-.14-6.27-.96-8.75l3.34,3.09,4.54.23c-2.34,1.15-5.06,3.44-6.93,5.43Z"/>
              </g>
              <g>
                <path class="cls-2" d="M1087.32,384.69c-15.86-.55-31.71-1.1-47.57-1.65"/>
                <path d="M1034.32,382.85c2.59-.86,5.81-2.37,7.84-4.01l-1.7,4.22,1.4,4.33c-1.91-1.78-5.02-3.51-7.54-4.54Z"/>
              </g>
              <g>
                <path class="cls-2" d="M677.98,99.46c4.64.9-16.8,3.76,1.83,3.7,33.52-.1,67.04-.04,100.56-.03"/>
                <path d="M785.79,103.13c-2.56.95-5.73,2.57-7.69,4.28l1.55-4.28-1.55-4.28c1.97,1.71,5.14,3.33,7.69,4.28Z"/>
              </g>
              <g>
                <path class="cls-2" d="M1385.19,136.91v35.68"/>
                <path d="M1385.19,178.02c-.95-2.56-2.57-5.73-4.28-7.69l4.28,1.55,4.28-1.55c-1.71,1.97-3.33,5.14-4.28,7.69Z"/>
              </g>
              <g>
                <path class="cls-2" d="M776.66,553.91c-5.96,2.71-6.24,5.42-4.06,8.14"/>
                <path d="M776.66,565.66c-2.52-1.04-5.95-2-8.56-2.07l4.04-2.1,1.76-4.2c.28,2.59,1.52,5.93,2.75,8.36Z"/>
              </g>
              <g>
                <path class="cls-2" d="M776.66,575.2c1.49,7.77,2.97,15.53,4.46,23.3"/>
                <path d="M782.14,603.84c-1.41-2.33-3.6-5.14-5.65-6.75l4.5.72,3.91-2.33c-1.31,2.25-2.31,5.67-2.76,8.36Z"/>
              </g>
              <g>
                <path class="cls-2" d="M781.23,216.93c.91,1.47,3.8,3.43,2.41,4.32-7.86,5.03-8.05,10.49-2.9,15.43,4.67,4.47-1.7,7.78-5.47,11.28"/>
                <path d="M773,252.9c.32-2.71.32-6.27-.32-8.8l3.11,3.32,4.52.57c-2.42.97-5.3,3.06-7.31,4.91Z"/>
              </g>
              <g>
                <path class="cls-2" d="M1432.7,35.59h-78.63"/>
                <path d="M1348.64,35.59c2.56-.95,5.73-2.57,7.69-4.28l-1.55,4.28,1.55,4.28c-1.97-1.71-5.14-3.33-7.69-4.28Z"/>
              </g>
              <g>
                <path class="cls-2" d="M1376.05,199.31c-25.6-.23-51.2-.46-76.8-.69"/>
                <path d="M1293.82,198.58c2.56-.93,5.75-2.52,7.73-4.21l-1.59,4.27,1.51,4.29c-1.95-1.73-5.11-3.38-7.65-4.35Z"/>
              </g>
              <g>
                <path class="cls-2" d="M1103.77,179.49v26.87"/>
                <path d="M1103.77,211.79c-.95-2.56-2.57-5.73-4.28-7.69l4.28,1.55,4.28-1.55c-1.71,1.97-3.33,5.14-4.28,7.69Z"/>
              </g>
              <g>
                <path class="cls-2" d="M445.89,287.41c0-1.47.52-2.97-.1-4.4-1.45-3.33.44-7.27-14.55-6.78-18.78.61-37.75.25-56.66.18"/>
                <path d="M369.14,276.4c2.56-.93,5.74-2.54,7.72-4.24l-1.57,4.27,1.53,4.29c-1.96-1.72-5.12-3.36-7.67-4.32Z"/>
              </g>
              <g>
                <path class="cls-2" d="M873.51,584.01c22.04-2.11,28.46-4.96,24.74-12.97"/>
                <path d="M895.44,566.39c2.11,1.73,5.11,3.65,7.58,4.48l-4.48.83-2.91,3.5c.49-2.56.28-6.12-.19-8.8Z"/>
              </g>
              <g>
                <path class="cls-2" d="M842.44,558.69c-10.37-.31-20.75-.62-31.12-.94"/>
                <path d="M805.9,557.58c2.58-.87,5.8-2.39,7.82-4.05l-1.68,4.23,1.42,4.32c-1.91-1.77-5.03-3.48-7.56-4.51Z"/>
              </g>
              <g>
                <path class="cls-2" d="M100.51,208.85c.48,7,.97,14.01,1.45,21.01"/>
                <path d="M102.34,235.28c-1.12-2.48-2.96-5.54-4.8-7.38l4.38,1.25,4.16-1.84c-1.57,2.08-2.97,5.35-3.74,7.97Z"/>
              </g>
              <g>
                <path class="cls-2" d="M535.44,128.1l-1.45,21.01"/>
                <path d="M533.61,154.53c-.77-2.62-2.17-5.89-3.74-7.97l4.16,1.84,4.38-1.25c-1.85,1.84-3.68,4.89-4.8,7.38Z"/>
              </g>
              <g>
                <path class="cls-2" d="M957.57,219.13c-.61,4.4-1.46,8.81-1.76,13.22-.18,2.59-.17,5.19-.13,7.78"/>
                <path d="M955.74,245.56c-.98-2.54-2.64-5.69-4.37-7.64l4.3,1.5,4.26-1.6c-1.69,1.99-3.27,5.18-4.18,7.74Z"/>
              </g>
              <g>
                <path class="cls-2" d="M725.49,528.95c-.48,6.52-.95,13.03-1.43,19.54"/>
                <path d="M723.66,553.91c-.76-2.62-2.14-5.9-3.71-7.98l4.16,1.86,4.38-1.23c-1.85,1.84-3.7,4.88-4.83,7.36Z"/>
              </g>
              <g>
                <path class="cls-2" d="M1524.07,200.04h-54.87"/>
                <path d="M1463.77,200.04c2.56-.95,5.73-2.57,7.69-4.28l-1.55,4.28,1.55,4.28c-1.97-1.71-5.14-3.33-7.69-4.28Z"/>
              </g>
              <g>
                <path class="cls-2" d="M1098.28,544c-9.76.31-19.53.62-29.29.93"/>
                <path d="M1063.56,545.1c2.52-1.03,5.64-2.75,7.55-4.52l-1.41,4.33,1.68,4.23c-2.02-1.65-5.24-3.17-7.82-4.03Z"/>
              </g>
              <g>
                <path class="cls-2" d="M869.86,258.78l-49.39,1.32"/>
                <path d="M815.03,260.25c2.53-1.02,5.66-2.72,7.58-4.48l-1.43,4.32,1.66,4.24c-2.01-1.66-5.22-3.19-7.8-4.07Z"/>
              </g>
              <g>
                <path class="cls-2" d="M775.74,503.26c-.68,5.3-1.37,10.6-2.05,15.9"/>
                <path d="M773,524.55c-.61-2.66-1.81-6.01-3.26-8.18l4.05,2.08,4.44-.99c-1.95,1.73-3.96,4.67-5.23,7.08Z"/>
              </g>
              <g>
                <path class="cls-2" d="M559.19,426.17c15.38,6.18,30.75,12.35,46.13,18.53"/>
                <path d="M610.36,446.72c-2.73-.07-6.27.25-8.73,1.1l3.03-3.39.16-4.55c1.19,2.32,3.52,5.01,5.54,6.84Z"/>
              </g>
              <g>
                <path class="cls-2" d="M709.04,204.45c-1.83,5.14-4.52,10.27-4.98,15.42-.08.92,1.64,1.87,3.72,2.83"/>
                <path d="M712.7,225.01c-2.72-.23-6.27-.11-8.78.61l3.22-3.22.41-4.53c1.05,2.39,3.24,5.2,5.15,7.14Z"/>
              </g>
              <g>
                <path class="cls-2" d="M1218.89,647.15c12.71,7.02,14.17,14.74,12.46,22.67"/>
                <path d="M1229.86,675.05c-.25-2.71-.99-6.2-2.13-8.54l3.73,2.61,4.53-.38c-2.17,1.45-4.55,4.09-6.13,6.32Z"/>
              </g>
              <g>
                <path class="cls-2" d="M840.62,680.19h-42.08"/>
                <path d="M793.1,680.19c2.56-.95,5.73-2.57,7.69-4.28l-1.55,4.28,1.55,4.28c-1.97-1.71-5.14-3.33-7.69-4.28Z"/>
              </g>
              <g>
                <path class="cls-2" d="M1023.36,57.62c14.16,5.69,28.32,11.38,42.47,17.06"/>
                <path d="M1070.87,76.7c-2.73-.07-6.27.25-8.73,1.1l3.03-3.39.16-4.55c1.19,2.32,3.52,5.01,5.54,6.84Z"/>
              </g>
              <g>
                <path class="cls-2" d="M829.65,245.56c-18.76,0-22.44,0-20.53,5.34"/>
                <path d="M811.38,255.84c-1.9-1.95-4.66-4.2-7.03-5.3l4.54-.32,3.29-3.15c-.77,2.49-.97,6.05-.8,8.77Z"/>
              </g>
              <g>
                <path class="cls-2" d="M853.41,427.64c-.86,8.28-17.55,11.91-29.77,16.85"/>
                <path d="M818.69,446.72c1.95-1.91,4.19-4.67,5.29-7.04l.33,4.54,3.16,3.28c-2.49-.77-6.05-.95-8.77-.78Z"/>
              </g>
              <g>
                <path class="cls-2" d="M1460.11,185.36c-7.04,7.33,4.12,14.12,4,21.29-.04,2.55,1.22,5.11,2.62,7.67"/>
                <path d="M1469.25,219.13c-2.02-1.83-4.93-3.89-7.35-4.84l4.51-.61,3.08-3.35c-.61,2.54-.58,6.1-.23,8.8Z"/>
              </g>
              <g>
                <path class="cls-2" d="M339.9,668.44h-38.43"/>
                <path d="M296.04,668.44c2.56-.95,5.73-2.57,7.69-4.28l-1.55,4.28,1.55,4.28c-1.97-1.71-5.14-3.33-7.69-4.28Z"/>
              </g>
              <g>
                <path class="cls-2" d="M778.48,443.79c-12.91-4.54-25.82-9.08-38.73-13.62"/>
                <path d="M734.63,428.37c2.73-.05,6.25-.52,8.68-1.49l-2.88,3.52.04,4.55c-1.29-2.27-3.74-4.85-5.84-6.59Z"/>
              </g>
              <g>
                <path class="cls-2" d="M568.33,154.16c-7.33.49-14.66.98-21.99,1.47"/>
                <path d="M540.92,155.99c2.49-1.12,5.54-2.94,7.39-4.78l-1.26,4.37,1.83,4.17c-2.08-1.58-5.35-2.98-7.96-3.76Z"/>
              </g>
              <g>
                <path class="cls-2" d="M391.07,449.66h-38.43"/>
                <path d="M347.21,449.66c2.56-.95,5.73-2.57,7.69-4.28l-1.55,4.28,1.55,4.28c-1.97-1.71-5.14-3.33-7.69-4.28Z"/>
              </g>
              <g>
                <path class="cls-2" d="M1383.36,185.36c-2.53,8.54-5.06,17.08-7.59,25.63"/>
                <path d="M1374.23,216.2c-.18-2.72-.83-6.22-1.92-8.59l3.66,2.7,4.54-.27c-2.2,1.4-4.65,3.98-6.29,6.16Z"/>
              </g>
              <g>
                <path class="cls-2" d="M1209.76,609.71c1.68,4.92,1.34,10.09,7.95,14.42"/>
                <path d="M1222.55,626.6c-2.7-.35-6.26-.38-8.8.22l3.36-3.07.61-4.51c.95,2.43,3,5.33,4.83,7.36Z"/>
              </g>
              <g>
                <path class="cls-2" d="M900.92,282.27c4.91.72,9.82,1.43,14.73,2.15"/>
                <path d="M921.02,285.21c-2.67.57-6.04,1.71-8.23,3.12l2.15-4.01-.91-4.46c1.7,1.98,4.6,4.04,6.99,5.35Z"/>
              </g>
              <g>
                <path class="cls-2" d="M1251.79,622.92h36.6"/>
                <path d="M1293.82,622.92c-2.56.95-5.73,2.57-7.69,4.28l1.55-4.28-1.55-4.28c1.97,1.71,5.14,3.33,7.69,4.28Z"/>
              </g>
              <g>
                <path class="cls-2" d="M639.6,405.61c7.98,1.8,15.96,3.61,23.94,5.41"/>
                <path d="M668.84,412.22c-2.7.36-6.15,1.24-8.45,2.48l2.45-3.83-.57-4.52c1.54,2.1,4.28,4.38,6.56,5.87Z"/>
              </g>
              <g>
                <path class="cls-2" d="M544.57,274.93h-34.77"/>
                <path d="M504.37,274.93c2.56-.95,5.73-2.57,7.69-4.28l-1.55,4.28,1.55,4.28c-1.97-1.71-5.14-3.33-7.69-4.28Z"/>
              </g>
              <g>
                <path class="cls-2" d="M888.13,32.65c-1.83,1.96-4.85,3.88-5.2,5.88-.2,1.17-.09,2.36.16,3.55"/>
                <path d="M884.47,47.34c-1.54-2.25-3.88-4.93-6.02-6.42l4.53.46,3.78-2.54c-1.19,2.32-1.99,5.79-2.29,8.5Z"/>
              </g>
              <g>
                <path class="cls-2" d="M959.4,266.85c7.17,3.6,11.35,7.37,9.26,11.51"/>
                <path d="M964.88,282.27c1.01-2.53,1.94-5.97,1.99-8.57l2.13,4.02,4.21,1.73c-2.59.31-5.92,1.57-8.34,2.83Z"/>
              </g>
              <g>
                <path class="cls-2" d="M1056.25,644.95c5.55,1.3,11.09,2.6,16.64,3.9"/>
                <path d="M1078.18,650.09c-2.7.34-6.16,1.19-8.47,2.41l2.48-3.81-.53-4.52c1.52,2.12,4.24,4.42,6.51,5.92Z"/>
              </g>
              <g>
                <path class="cls-2" d="M498.89,423.97c9.81,2.28,19.62,4.56,29.43,6.85"/>
                <path d="M533.61,432.04c-2.7.34-6.16,1.2-8.46,2.43l2.48-3.82-.54-4.52c1.53,2.11,4.25,4.41,6.52,5.91Z"/>
              </g>
              <g>
                <path class="cls-2" d="M730.97,653.76h-31.12"/>
                <path d="M694.42,653.76c2.56-.95,5.73-2.57,7.69-4.28l-1.55,4.28,1.55,4.28c-1.97-1.71-5.14-3.33-7.69-4.28Z"/>
              </g>
              <g>
                <path class="cls-2" d="M829.65,653.76h-31.12"/>
                <path d="M793.1,653.76c2.56-.95,5.73-2.57,7.69-4.28l-1.55,4.28,1.55,4.28c-1.97-1.71-5.14-3.33-7.69-4.28Z"/>
              </g>
              <g>
                <path class="cls-2" d="M961.23,301.36l1.12,8.56"/>
                <path d="M963.05,315.31c-1.27-2.41-3.29-5.35-5.24-7.07l4.45.98,4.04-2.09c-1.44,2.17-2.64,5.53-3.24,8.18Z"/>
              </g>
              <g>
                <path class="cls-2" d="M972.19,357.16c-2.57,3.39-3.81,6.75-1.96,10.05"/>
                <path d="M974.02,371.11c-2.43-1.23-5.77-2.46-8.36-2.75l4.19-1.77,2.09-4.04c.08,2.61,1.04,6.03,2.08,8.55Z"/>
              </g>
              <g>
                <path class="cls-2" d="M981.33,394.6c-8.55.2-17.09.4-25.64.61"/>
                <path d="M950.26,395.33c2.53-1.01,5.66-2.7,7.59-4.46l-1.45,4.32,1.65,4.24c-2.01-1.67-5.21-3.21-7.79-4.1Z"/>
              </g>
              <g>
                <path class="cls-2" d="M1264.58,396.8c-4.97,3.6-5.49,7.11-2.41,10.54"/>
                <path d="M1266.41,410.75c-2.57-.91-6.04-1.69-8.65-1.64l3.93-2.3,1.55-4.28c.41,2.57,1.81,5.85,3.17,8.21Z"/>
              </g>
              <g>
                <path class="cls-2" d="M789.45,705.15h-27.46"/>
                <path d="M756.55,705.15c2.56-.95,5.73-2.57,7.69-4.28l-1.55,4.28,1.55,4.28c-1.97-1.71-5.14-3.33-7.69-4.28Z"/>
              </g>
              <g>
                <path class="cls-2" d="M709.04,189.77c-.36,2.61-.72,5.22-1.08,7.83"/>
                <path d="M707.21,202.98c-.59-2.66-1.76-6.02-3.19-8.21l4.03,2.12,4.45-.95c-1.97,1.71-4,4.63-5.29,7.03Z"/>
              </g>
              <g>
                <path class="cls-2" d="M389.24,528.22v7.78"/>
                <path d="M389.24,541.43c-.95-2.56-2.57-5.73-4.28-7.69l4.28,1.55,4.28-1.55c-1.71,1.97-3.33,5.14-4.28,7.69Z"/>
              </g>
              <g>
                <path class="cls-2" d="M959.4,320.45c3.05,7.1,6.9,14.16,8.78,21.31.88,3.34-2.31,6.83-3.1,10.27-.11.49,1.07,1.02,2.2,1.55"/>
                <path d="M972.19,351.28c-2.09,1.75-4.54,4.33-5.82,6.61l.03-4.55-2.89-3.52c2.43.96,5.96,1.42,8.68,1.46Z"/>
              </g>
              <g>
                <path class="cls-2" d="M968.54,248.5c-28.21-4.89-34.16-3.43-34.54,8.81-.01.48.11.96.33,1.44"/>
                <path d="M937.47,263.18c-2.22-1.59-5.33-3.31-7.85-3.98l4.41-1.11,2.68-3.68c-.32,2.59.11,6.12.75,8.77Z"/>
              </g>
              <g>
                <path class="cls-2" d="M858.89,570.06h-27.46"/>
                <path d="M826,570.06c2.56-.95,5.73-2.57,7.69-4.28l-1.55,4.28,1.55,4.28c-1.97-1.71-5.14-3.33-7.69-4.28Z"/>
              </g>
              <g>
                <path class="cls-2" d="M804.07,439.38c.35,2.37.69,4.74,1.04,7.11"/>
                <path d="M805.9,451.86c-1.31-2.39-3.37-5.29-5.35-6.99l4.46.91,4.01-2.15c-1.41,2.19-2.55,5.57-3.12,8.23Z"/>
              </g>
              <g>
                <path class="cls-2" d="M674.32,133.23c1.22,3.43,2.44,6.87,3.66,10.3"/>
                <path d="M679.8,148.65c-1.75-2.09-4.34-4.54-6.61-5.81l4.55.02,3.51-2.89c-.96,2.43-1.42,5.96-1.45,8.68Z"/>
              </g>
              <g>
                <path class="cls-2" d="M469.65,218.4c-.35,2.37-.69,4.74-1.04,7.11"/>
                <path d="M467.82,230.88c-.57-2.67-1.71-6.04-3.12-8.23l4.01,2.15,4.46-.91c-1.98,1.7-4.04,4.6-5.35,6.99Z"/>
              </g>
              <g>
                <path class="cls-2" d="M584.78,129.56c.46,5.78.93,11.56,1.39,17.34"/>
                <path d="M586.6,152.32c-1.15-2.47-3.02-5.5-4.88-7.33l4.39,1.2,4.14-1.89c-1.55,2.1-2.91,5.39-3.65,8.01Z"/>
              </g>
              <g>
                <path class="cls-2" d="M467.82,202.98c.35,2.37.69,4.74,1.04,7.11"/>
                <path d="M469.65,215.46c-1.31-2.39-3.37-5.29-5.35-6.99l4.46.91,4.01-2.15c-1.41,2.19-2.55,5.57-3.12,8.23Z"/>
              </g>
              <g>
                <path class="cls-2" d="M515.33,34.12c.37,2.85.75,5.71,1.12,8.56"/>
                <path d="M517.16,48.07c-1.27-2.41-3.29-5.35-5.24-7.07l4.45.98,4.04-2.09c-1.44,2.17-2.64,5.53-3.24,8.18Z"/>
              </g>
              <g>
                <path class="cls-2" d="M1100.11,154.53v6.31"/>
                <path d="M1100.11,166.27c-.95-2.56-2.57-5.73-4.28-7.69l4.28,1.55,4.28-1.55c-1.71,1.97-3.33,5.14-4.28,7.69Z"/>
              </g>
              <g>
                <path class="cls-2" d="M807.72,232.35c-.33,2.13-.66,4.25-.99,6.38"/>
                <path d="M805.9,244.09c-.54-2.67-1.66-6.05-3.05-8.26l3.99,2.19,4.47-.87c-2,1.68-4.08,4.56-5.41,6.94Z"/>
              </g>
              <g>
                <path class="cls-2" d="M789.45,636.14h-23.81"/>
                <path d="M760.21,636.14c2.56-.95,5.73-2.57,7.69-4.28l-1.55,4.28,1.55,4.28c-1.97-1.71-5.14-3.33-7.69-4.28Z"/>
              </g>
              <g>
                <path class="cls-2" d="M222.95,354.22h23.81"/>
                <path d="M252.18,354.22c-2.56.95-5.73,2.57-7.69,4.28l1.55-4.28-1.55-4.28c1.97,1.71,5.14,3.33,7.69,4.28Z"/>
              </g>
              <g>
                <path class="cls-2" d="M1019.7,584.75v6.31"/>
                <path d="M1019.7,596.49c-.95-2.56-2.57-5.73-4.28-7.69l4.28,1.55,4.28-1.55c-1.71,1.97-3.33,5.14-4.28,7.69Z"/>
              </g>
              <g>
                <path class="cls-2" d="M709.04,634.67h-23.81"/>
                <path d="M679.8,634.67c2.56-.95,5.73-2.57,7.69-4.28l-1.55,4.28,1.55,4.28c-1.97-1.71-5.14-3.33-7.69-4.28Z"/>
              </g>
              <g>
                <path class="cls-2" d="M1505.8,495.18c-.42,4.07-.84,8.15-1.27,12.22"/>
                <path d="M1503.97,512.8c-.68-2.64-1.96-5.96-3.46-8.09l4.1,1.98,4.42-1.1c-1.91,1.78-3.84,4.77-5.05,7.21Z"/>
              </g>
              <g>
                <path class="cls-2" d="M615.84,142.78h-43.91"/>
                <path d="M566.5,142.78c2.56-.95,5.73-2.57,7.69-4.28l-1.55,4.28,1.55,4.28c-1.97-1.71-5.14-3.33-7.69-4.28Z"/>
              </g>
              <g>
                <path class="cls-2" d="M858.89,117.82v6.32"/>
                <path d="M858.89,129.56c-.95-2.56-2.57-5.73-4.28-7.69l4.28,1.55,4.28-1.55c-1.71,1.97-3.33,5.14-4.28,7.69Z"/>
              </g>
              <g>
                <path class="cls-2" d="M160.81,342.47h-23.81"/>
                <path d="M131.57,342.47c2.56-.95,5.73-2.57,7.69-4.28l-1.55,4.28,1.55,4.28c-1.97-1.71-5.14-3.33-7.69-4.28Z"/>
              </g>
              <g>
                <path class="cls-2" d="M95.03,343.94h-23.81"/>
                <path d="M65.79,343.94c2.56-.95,5.73-2.57,7.69-4.28l-1.55,4.28,1.55,4.28c-1.97-1.71-5.14-3.33-7.69-4.28Z"/>
              </g>
              <g>
                <path class="cls-2" d="M76.75,117.82v6.32"/>
                <path d="M76.75,129.56c-.95-2.56-2.57-5.73-4.28-7.69l4.28,1.55,4.28-1.55c-1.71,1.97-3.33,5.14-4.28,7.69Z"/>
              </g>
              <g>
                <path class="cls-2" d="M248.53,230.88c1.83.49,5.38,1.3,5.23,1.42-3.75,3.25-3.1,6.48-1.79,9.7"/>
                <path d="M254.01,247.03c-1.84-2.01-4.53-4.35-6.85-5.52l4.55-.17,3.39-3.04c-.85,2.47-1.16,6.01-1.08,8.74Z"/>
              </g>
              <g>
                <path class="cls-2" d="M868.03,227.94c.33,2.13.66,4.25.99,6.38"/>
                <path d="M869.86,239.69c-1.33-2.38-3.42-5.26-5.41-6.94l4.47.87,3.99-2.19c-1.39,2.21-2.5,5.59-3.05,8.26Z"/>
              </g>
              <g>
                <path class="cls-2" d="M1282.85,198.58c-1.02,2.05-2.04,4.1-3.06,6.15"/>
                <path d="M1277.37,209.59c.29-2.71.25-6.27-.4-8.79l3.14,3.29,4.52.52c-2.41,1-5.27,3.11-7.26,4.98Z"/>
              </g>
              <g>
                <path class="cls-2" d="M984.98,243.36c-.37,2.85-.75,5.71-1.12,8.56"/>
                <path d="M983.16,257.31c-.61-2.66-1.8-6.01-3.24-8.18l4.04,2.09,4.44-.98c-1.95,1.73-3.97,4.66-5.24,7.07Z"/>
              </g>
              <g>
                <path class="cls-2" d="M597.57,219.13c.85,4.1,1.7,8.2,2.55,12.3"/>
                <path d="M601.22,236.75c-1.45-2.31-3.68-5.09-5.75-6.66l4.51.65,3.88-2.39c-1.28,2.27-2.22,5.71-2.63,8.4Z"/>
              </g>
              <g>
                <path class="cls-2" d="M1535.04,506.93h-21.98"/>
                <path d="M1507.63,506.93c2.56-.95,5.73-2.57,7.69-4.28l-1.55,4.28,1.55,4.28c-1.97-1.71-5.14-3.33-7.69-4.28Z"/>
              </g>
              <g>
                <path class="cls-2" d="M780.31,440.85c1,3.67-3.85,7.46-2.27,11.11"/>
                <path d="M782.14,455.53c-2.5-1.09-5.9-2.13-8.51-2.27l4.09-2,1.86-4.15c.22,2.6,1.38,5.97,2.56,8.42Z"/>
              </g>
              <g>
                <path class="cls-2" d="M672.49,402.67c5.89,1.48,9.07,3.4,10.46,5.6"/>
                <path d="M683.46,413.69c-1.3-2.4-3.35-5.31-5.33-7.01l4.46.93,4.02-2.14c-1.42,2.19-2.57,5.56-3.15,8.22Z"/>
              </g>
              <g>
                <path class="cls-2" d="M1125.7,605.3c-2.44,8.32-4.94,16.64-7.28,24.96-.32,1.16-.59,2.31-.83,3.48"/>
                <path d="M1116.56,639.08c-.42-2.69-1.38-6.12-2.67-8.39l3.89,2.36,4.5-.67c-2.07,1.59-4.28,4.38-5.72,6.69Z"/>
              </g>
              <g>
                <path class="cls-2" d="M453.2,227.21c6.4,2.99,7.98,6.18,6.75,9.49"/>
                <path d="M456.86,241.16c.61-2.66.99-6.2.63-8.78l2.73,3.64,4.43,1.05c-2.51.71-5.6,2.47-7.79,4.09Z"/>
              </g>
              <g>
                <path class="cls-2" d="M226.6,341h-20.15"/>
                <path d="M201.02,341c2.56-.95,5.73-2.57,7.69-4.28l-1.55,4.28,1.55,4.28c-1.97-1.71-5.14-3.33-7.69-4.28Z"/>
              </g>
              <g>
                <path class="cls-2" d="M674.32,113.41c.29,1.64.58,3.29.88,4.93"/>
                <path d="M676.15,123.69c-1.38-2.35-3.53-5.19-5.56-6.82l4.49.77,3.94-2.27c-1.34,2.23-2.38,5.64-2.87,8.32Z"/>
              </g>
              <g>
                <path class="cls-2" d="M248.53,308.7v4.85"/>
                <path d="M248.53,318.98c-.95-2.56-2.57-5.73-4.28-7.69l4.28,1.55,4.28-1.55c-1.71,1.97-3.33,5.14-4.28,7.69Z"/>
              </g>
              <g>
                <path class="cls-2" d="M1052.6,562.72c-5.67,2.66-11.34,5.32-17.01,7.97"/>
                <path d="M1030.67,573c1.91-1.94,4.1-4.75,5.15-7.14l.41,4.53,3.22,3.22c-2.51-.72-6.07-.84-8.78-.61Z"/>
              </g>
              <g>
                <path class="cls-2" d="M248.53,327.79c-.61,1.72-1.22,3.44-1.84,5.16"/>
                <path d="M244.88,338.07c-.04-2.73-.5-6.26-1.46-8.68l3.51,2.89,4.55-.02c-2.27,1.28-4.86,3.72-6.61,5.81Z"/>
              </g>
              <g>
                <path class="cls-2" d="M807.72,29.72c-.35,2.37-.69,4.74-1.04,7.11"/>
                <path d="M805.9,42.2c-.57-2.67-1.71-6.04-3.12-8.23l4.01,2.15,4.46-.91c-1.98,1.7-4.04,4.6-5.35,6.99Z"/>
              </g>
              <g>
                <path class="cls-2" d="M791.28,534.82c1.79,5.31-2.9,9.85-8.5,14.29"/>
                <path d="M778.48,552.44c1.43-2.32,2.93-5.55,3.43-8.11l1.41,4.33,3.85,2.42c-2.6-.14-6.1.54-8.7,1.36Z"/>
              </g>
              <g>
                <path class="cls-2" d="M1186,617.05c-3.39,2.38-6.78,4.77-10.18,7.15"/>
                <path d="M1171.38,627.33c1.55-2.25,3.21-5.39,3.83-7.93l1.2,4.39,3.73,2.61c-2.59-.27-6.12.23-8.75.92Z"/>
              </g>
              <g>
                <path class="cls-2" d="M778.48,530.42c.37,2.85.75,5.71,1.12,8.56"/>
                <path d="M780.31,544.37c-1.27-2.41-3.29-5.34-5.24-7.07l4.45.98,4.04-2.09c-1.44,2.17-2.64,5.53-3.24,8.18Z"/>
              </g>
              <g>
                <path class="cls-2" d="M1304.78,37.06h-20.15"/>
                <path d="M1279.2,37.06c2.56-.95,5.73-2.57,7.69-4.28l-1.55,4.28,1.55,4.28c-1.97-1.71-5.14-3.33-7.69-4.28Z"/>
              </g>
              <g>
                <path class="cls-2" d="M25.58,345.41H5.43"/>
                <path d="M0,345.41c2.56-.95,5.73-2.57,7.69-4.28l-1.55,4.28,1.55,4.28c-1.97-1.71-5.14-3.33-7.69-4.28Z"/>
              </g>
              <g>
                <path class="cls-2" d="M482.44,521.61v4.85"/>
                <path d="M482.44,531.89c-.95-2.56-2.57-5.73-4.28-7.69l4.28,1.55,4.28-1.55c-1.71,1.97-3.33,5.14-4.28,7.69Z"/>
              </g>
              <g>
                <path class="cls-2" d="M1253.62,40v4.85"/>
                <path d="M1253.62,50.27c-.95-2.56-2.57-5.73-4.28-7.69l4.28,1.55,4.28-1.55c-1.71,1.97-3.33,5.14-4.28,7.69Z"/>
              </g>
              <g>
                <path class="cls-2" d="M303.35,274.93h-20.15"/>
                <path d="M277.77,274.93c2.56-.95,5.73-2.57,7.69-4.28l-1.55,4.28,1.55,4.28c-1.97-1.71-5.14-3.33-7.69-4.28Z"/>
              </g>
              <g>
                <path class="cls-2" d="M1142.14,467.28v4.85"/>
                <path d="M1142.14,477.56c-.95-2.56-2.57-5.73-4.28-7.69l4.28,1.55,4.28-1.55c-1.71,1.97-3.33,5.14-4.28,7.69Z"/>
              </g>
              <g>
                <path class="cls-2" d="M455.03,263.18l-1.84,5.16"/>
                <path d="M451.37,273.46c-.04-2.73-.5-6.26-1.46-8.68l3.51,2.89,4.55-.02c-2.27,1.28-4.86,3.72-6.61,5.81Z"/>
              </g>
              <g>
                <path class="cls-2" d="M385.59,546.57v4.85"/>
                <path d="M385.59,556.85c-.95-2.56-2.57-5.73-4.28-7.69l4.28,1.55,4.28-1.55c-1.71,1.97-3.33,5.14-4.28,7.69Z"/>
              </g>
              <g>
                <path class="cls-2" d="M595.74,88.45c1.84,2.07,3.69,4.15,5.53,6.22"/>
                <path d="M604.88,98.73c-2.41-1.28-5.72-2.57-8.31-2.91l4.23-1.69,2.17-4c.03,2.61.92,6.05,1.91,8.59Z"/>
              </g>
              <g>
                <path class="cls-2" d="M789.45,442.32c.2,4.43-1.64,9.03,12.54,11.27,2.39.38,1.88,4.14,2,6.35.17,3.08.16,6.17.13,9.25"/>
                <path d="M804.07,474.62c-.93-2.56-2.52-5.75-4.22-7.73l4.27,1.58,4.29-1.51c-1.73,1.95-3.37,5.11-4.34,7.66Z"/>
              </g>
              <g>
                <path class="cls-2" d="M233.91,221.33v8.52"/>
                <path d="M233.91,235.28c-.95-2.56-2.57-5.73-4.28-7.69l4.28,1.55,4.28-1.55c-1.71,1.97-3.33,5.14-4.28,7.69Z"/>
              </g>
              <g>
                <path class="cls-2" d="M458.68,432.04c.87,1.4,1.74,2.8,2.61,4.2"/>
                <path d="M464.17,440.85c-2.16-1.67-5.2-3.51-7.7-4.27l4.45-.95,2.82-3.58c-.42,2.57-.11,6.12.43,8.79Z"/>
              </g>
              <g>
                <path class="cls-2" d="M807.72,524.55c-1.22,6.85-2.83,13.7-3.18,20.56-.04.71.33,4.31,5.28,3.75"/>
                <path d="M815.03,547.31c-2.21,1.6-4.83,4.01-6.26,6.19l.34-4.54-2.64-3.71c2.35,1.12,5.84,1.83,8.56,2.06Z"/>
              </g>
              <g>
                <path class="cls-2" d="M941.13,125.89c-.61,3.67-.9,7.36-2.14,11-.08.23-.72.42-1.63.6"/>
                <path d="M931.99,138.37c2.36-1.37,5.21-3.5,6.86-5.52l-.8,4.48,2.25,3.96c-2.23-1.36-5.63-2.42-8.3-2.92Z"/>
              </g>
              <g>
                <path class="cls-2" d="M599.4,590.62c5.59,1.87,11.19,3.74,16.78,5.62"/>
                <path d="M621.33,597.96c-2.72.09-6.25.62-8.65,1.62l2.83-3.57-.11-4.55c1.32,2.25,3.81,4.79,5.94,6.5Z"/>
              </g>
              <g>
                <path class="cls-2" d="M1202.45,578.87v3.38"/>
                <path d="M1202.45,587.68c-.95-2.56-2.57-5.73-4.28-7.69l4.28,1.55,4.28-1.55c-1.71,1.97-3.33,5.14-4.28,7.69Z"/>
              </g>
              <g>
                <path class="cls-2" d="M906.4,294.02c5.63,2.26,11.26,4.52,16.89,6.79"/>
                <path d="M928.33,302.83c-2.73-.07-6.27.25-8.73,1.1l3.03-3.39.16-4.55c1.19,2.32,3.52,5.01,5.54,6.84Z"/>
              </g>
              <g>
                <path class="cls-2" d="M672.49,180.96v3.38"/>
                <path d="M672.49,189.77c-.95-2.56-2.57-5.73-4.28-7.69l4.28,1.55,4.28-1.55c-1.71,1.97-3.33,5.14-4.28,7.69Z"/>
              </g>
              <g>
                <path class="cls-2" d="M551.88,562.72v3.38"/>
                <path d="M551.88,571.53c-.95-2.56-2.57-5.73-4.28-7.69l4.28,1.55,4.28-1.55c-1.71,1.97-3.33,5.14-4.28,7.69Z"/>
              </g>
              <g>
                <path class="cls-2" d="M1264.58,493.71v3.38"/>
                <path d="M1264.58,502.52c-.95-2.56-2.57-5.73-4.28-7.69l4.28,1.55,4.28-1.55c-1.71,1.97-3.33,5.14-4.28,7.69Z"/>
              </g>
              <g>
                <path class="cls-2" d="M478.79,503.99v3.38"/>
                <path d="M478.79,512.8c-.95-2.56-2.57-5.73-4.28-7.69l4.28,1.55,4.28-1.55c-1.71,1.97-3.33,5.14-4.28,7.69Z"/>
              </g>
              <g>
                <path class="cls-2" d="M950.26,335.13l-16.5-.55"/>
                <path d="M928.33,334.4c2.59-.86,5.81-2.37,7.83-4.02l-1.69,4.23,1.4,4.33c-1.91-1.78-5.02-3.5-7.55-4.53Z"/>
              </g>
              <g>
                <path class="cls-2" d="M464.17,261.71c.24,1.16.48,2.33.72,3.49"/>
                <path d="M465.99,270.52c-1.45-2.31-3.68-5.09-5.75-6.66l4.51.65,3.88-2.38c-1.28,2.27-2.22,5.71-2.63,8.4Z"/>
              </g>
              <g>
                <path class="cls-2" d="M780.31,514.27c.24,1.16.48,2.33.72,3.49"/>
                <path d="M782.14,523.08c-1.45-2.31-3.68-5.09-5.75-6.66l4.51.65,3.88-2.38c-1.28,2.27-2.22,5.71-2.63,8.4Z"/>
              </g>
              <g>
                <path class="cls-2" d="M1136.66,664.04c-2.43,2.2-3.07,4.28-1.1,6.19"/>
                <path d="M1140.31,672.85c-2.68-.48-6.24-.69-8.8-.21l3.5-2.91.83-4.47c.83,2.47,2.74,5.48,4.47,7.59Z"/>
              </g>
              <g>
                <path class="cls-2" d="M720.01,373.31c5.63,2.26,11.26,4.52,16.89,6.79"/>
                <path d="M741.94,382.12c-2.73-.07-6.27.25-8.73,1.1l3.03-3.39.16-4.55c1.19,2.32,3.52,5.01,5.54,6.84Z"/>
              </g>
              <g>
                <path class="cls-2" d="M518.99,16.5v3.38"/>
                <path d="M518.99,25.31c-.95-2.56-2.57-5.73-4.28-7.69l4.28,1.55,4.28-1.55c-1.71,1.97-3.33,5.14-4.28,7.69Z"/>
              </g>
              <g>
                <path class="cls-2" d="M445.89,301.36v3.38"/>
                <path d="M445.89,310.17c-.95-2.56-2.57-5.73-4.28-7.69l4.28,1.55,4.28-1.55c-1.71,1.97-3.33,5.14-4.28,7.69Z"/>
              </g>
              <g>
                <path class="cls-2" d="M482.44,552.44v3.38"/>
                <path d="M482.44,561.25c-.95-2.56-2.57-5.73-4.28-7.69l4.28,1.55,4.28-1.55c-1.71,1.97-3.33,5.14-4.28,7.69Z"/>
              </g>
              <g>
                <path class="cls-2" d="M416.65,549.51l-16.89,6.79"/>
                <path d="M394.72,558.32c2.02-1.83,4.36-4.52,5.54-6.84l.16,4.55,3.03,3.39c-2.46-.86-6.01-1.18-8.73-1.1Z"/>
              </g>
              <g>
                <path class="cls-2" d="M451.37,326.32c.39,3.1.77,6.2,1.16,9.29"/>
                <path d="M453.2,341c-1.26-2.42-3.25-5.37-5.2-7.1l4.44,1.01,4.06-2.06c-1.46,2.16-2.67,5.51-3.3,8.16Z"/>
              </g>
              <g>
                <path class="cls-2" d="M922.85,249.97c.47,1.04.94,2.08,1.42,3.13"/>
                <path d="M926.51,258.04c-1.92-1.94-4.7-4.16-7.07-5.24l4.54-.35,3.26-3.17c-.75,2.5-.92,6.05-.73,8.77Z"/>
              </g>
              <g>
                <path class="cls-2" d="M513.51,49.54l-.94,5.65"/>
                <path d="M511.68,60.55c-.52-2.68-1.59-6.07-2.96-8.29l3.97,2.23,4.48-.83c-2.01,1.66-4.13,4.52-5.48,6.89Z"/>
              </g>
              <g>
                <path class="cls-2" d="M500.72,86.98c.41.83.82,1.65,1.23,2.48"/>
                <path d="M504.37,94.32c-1.99-1.87-4.85-3.98-7.26-4.98l4.52-.52,3.14-3.29c-.66,2.52-.69,6.08-.4,8.79Z"/>
              </g>
              <g>
                <path class="cls-2" d="M593.91,103.87c-4.89-.18-9.78-.36-14.67-.54"/>
                <path d="M573.81,103.13c2.59-.85,5.82-2.36,7.84-4l-1.7,4.22,1.39,4.33c-1.9-1.78-5.01-3.52-7.53-4.56Z"/>
              </g>
              <g>
                <path class="cls-2" d="M672.49,468.75c.21.93.42,1.85.63,2.78"/>
                <path d="M674.32,476.83c-1.49-2.28-3.77-5.02-5.87-6.56l4.52.57,3.83-2.45c-1.24,2.3-2.12,5.75-2.48,8.45Z"/>
              </g>
              <g>
                <path class="cls-2" d="M1001.43,258.78c-.21.93-.42,1.85-.63,2.78"/>
                <path d="M999.6,266.85c-.36-2.7-1.24-6.15-2.48-8.45l3.83,2.46,4.52-.57c-2.11,1.54-4.38,4.27-5.87,6.56Z"/>
              </g>
              <g>
                <path class="cls-2" d="M1383.36,198.58h14.67"/>
                <path d="M1403.46,198.58c-2.56.95-5.73,2.57-7.69,4.28l1.55-4.28-1.55-4.28c1.97,1.71,5.14,3.33,7.69,4.28Z"/>
              </g>
              <g>
                <path class="cls-2" d="M992.29,455.53h-14.67"/>
                <path d="M972.19,455.53c2.56-.95,5.73-2.57,7.69-4.28l-1.55,4.28,1.55,4.28c-1.97-1.71-5.14-3.33-7.69-4.28Z"/>
              </g>
              <g>
                <path class="cls-2" d="M972.19,154.53v1.91"/>
                <path d="M972.19,161.87c-.95-2.56-2.57-5.73-4.28-7.69l4.28,1.55,4.28-1.55c-1.71,1.97-3.33,5.14-4.28,7.69Z"/>
              </g>
              <g>
                <path class="cls-2" d="M522.64.35v1.91"/>
                <path d="M522.64,7.69c-.95-2.56-2.57-5.73-4.28-7.69l4.28,1.55,4.28-1.55c-1.71,1.97-3.33,5.14-4.28,7.69Z"/>
              </g>
              <g>
                <path class="cls-2" d="M1123.87,545.1c-.4,3.34-.79,6.68-1.19,10.02"/>
                <path d="M1122.04,560.52c-.64-2.65-1.87-5.99-3.35-8.14l4.07,2.04,4.43-1.03c-1.93,1.75-3.91,4.71-5.16,7.14Z"/>
              </g>
              <g>
                <path class="cls-2" d="M1461.94,286.68v1.91"/>
                <path d="M1461.94,294.02c-.95-2.56-2.57-5.73-4.28-7.69l4.28,1.55,4.28-1.55c-1.71,1.97-3.33,5.14-4.28,7.69Z"/>
              </g>
              <g>
                <path class="cls-2" d="M1253.62,28.25v1.91"/>
                <path d="M1253.62,35.59c-.95-2.56-2.57-5.73-4.28-7.69l4.28,1.55,4.28-1.55c-1.71,1.97-3.33,5.14-4.28,7.69Z"/>
              </g>
              <g>
                <path class="cls-2" d="M727.32,677.25h-12.84"/>
                <path d="M709.04,677.25c2.56-.95,5.73-2.57,7.69-4.28l-1.55,4.28,1.55,4.28c-1.97-1.71-5.14-3.33-7.69-4.28Z"/>
              </g>
              <g>
                <path class="cls-2" d="M1242.65,549.51h-12.84"/>
                <path d="M1224.38,549.51c2.56-.95,5.73-2.57,7.69-4.28l-1.55,4.28,1.55,4.28c-1.97-1.71-5.14-3.33-7.69-4.28Z"/>
              </g>
              <g>
                <path class="cls-2" d="M911.89,401.94c-.41.83-.82,1.65-1.23,2.48"/>
                <path d="M908.23,409.28c.29-2.71.25-6.27-.4-8.79l3.14,3.29,4.52.52c-2.41,1-5.27,3.11-7.26,4.98Z"/>
              </g>
              <g>
                <path class="cls-2" d="M1149.45,379.18c3.98,3.57,1.26,6.18-4.03,8.42"/>
                <path d="M1140.31,389.46c2.07-1.78,4.48-4.39,5.73-6.68l.03,4.55,2.94,3.48c-2.44-.93-5.97-1.35-8.7-1.35Z"/>
              </g>
              <g>
                <path class="cls-2" d="M1465.6,270.52v1.91"/>
                <path d="M1465.6,277.87c-.95-2.56-2.57-5.73-4.28-7.69l4.28,1.55,4.28-1.55c-1.71,1.97-3.33,5.14-4.28,7.69Z"/>
              </g>
              <g>
                <path class="cls-2" d="M1198.79,138.37c-4.41,1.77-8.82,3.54-13.23,5.32"/>
                <path d="M1180.52,145.72c2.02-1.83,4.36-4.52,5.54-6.84l.16,4.55,3.03,3.39c-2.46-.86-6.01-1.18-8.73-1.1Z"/>
              </g>
              <g>
                <path class="cls-2" d="M489.75,606.77c-4.41,1.77-8.82,3.54-13.23,5.32"/>
                <path d="M471.48,614.11c2.02-1.83,4.36-4.52,5.54-6.84l.16,4.55,3.03,3.39c-2.46-.86-6.01-1.18-8.73-1.1Z"/>
              </g>
              <g>
                <path class="cls-2" d="M493.41,407.08c4.41,1.77,8.82,3.54,13.23,5.32"/>
                <path d="M511.68,414.42c-2.73-.07-6.27.25-8.73,1.1l3.03-3.4.16-4.55c1.19,2.32,3.52,5.01,5.54,6.84Z"/>
              </g>
              <g>
                <path class="cls-2" d="M548.23,307.23c-.41.83-.82,1.65-1.23,2.48"/>
                <path d="M544.57,314.57c.29-2.71.25-6.27-.4-8.79l3.14,3.29,4.52.52c-2.41,1-5.27,3.11-7.26,4.98Z"/>
              </g>
              <g>
                <path class="cls-2" d="M774.83,542.9c-6.11.38-12.22.76-18.34,1.13"/>
                <path d="M751.07,544.37c2.49-1.1,5.56-2.91,7.41-4.75l-1.28,4.37,1.81,4.18c-2.07-1.59-5.33-3.01-7.94-3.8Z"/>
              </g>
              <g>
                <path class="cls-2" d="M248.53,341v1.91"/>
                <path d="M248.53,348.35c-.95-2.56-2.57-5.73-4.28-7.69l4.28,1.55,4.28-1.55c-1.71,1.97-3.33,5.14-4.28,7.69Z"/>
              </g>
              <g>
                <path class="cls-2" d="M1187.83,194.17c4.33,1.04,8.66,2.09,12.99,3.13"/>
                <path d="M1206.1,198.58c-2.71.32-6.17,1.15-8.48,2.36l2.51-3.8-.5-4.52c1.51,2.13,4.21,4.44,6.48,5.96Z"/>
              </g>
              <g>
                <path class="cls-2" d="M1191.48,50.27v1.91"/>
                <path d="M1191.48,57.62c-.95-2.56-2.57-5.73-4.28-7.69l4.28,1.55,4.28-1.55c-1.71,1.97-3.33,5.14-4.28,7.69Z"/>
              </g>
              <g>
                <path class="cls-2" d="M215.64,235.28v1.91"/>
                <path d="M215.64,242.63c-.95-2.56-2.57-5.73-4.28-7.69l4.28,1.55,4.28-1.55c-1.71,1.97-3.33,5.14-4.28,7.69Z"/>
              </g>
              <g>
                <path class="cls-2" d="M1224.38,349.81c-4.41,1.77-8.82,3.54-13.23,5.32"/>
                <path d="M1206.1,357.16c2.02-1.83,4.36-4.52,5.54-6.84l.16,4.55,3.03,3.39c-2.46-.86-6.01-1.18-8.73-1.1Z"/>
              </g>
              <g>
                <path class="cls-2" d="M478.79,261.71v1.91"/>
                <path d="M478.79,269.06c-.95-2.56-2.57-5.73-4.28-7.69l4.28,1.55,4.28-1.55c-1.71,1.97-3.33,5.14-4.28,7.69Z"/>
              </g>
              <g>
                <path class="cls-2" d="M661.53,584.75c1.83,1.22,4.98,2.41,5.23,3.68.36,1.85.42,3.71.39,5.58"/>
                <path d="M667.01,599.43c-.89-2.58-2.44-5.78-4.1-7.79l4.24,1.65,4.31-1.45c-1.76,1.93-3.45,5.06-4.45,7.59Z"/>
              </g>
              <g>
                <path class="cls-2" d="M508.02,69.36v1.91"/>
                <path d="M508.02,76.7c-.95-2.56-2.57-5.73-4.28-7.69l4.28,1.55,4.28-1.55c-1.71,1.97-3.33,5.14-4.28,7.69Z"/>
              </g>
              <g>
                <path class="cls-2" d="M1469.25,254.37v1.91"/>
                <path d="M1469.25,261.71c-.95-2.56-2.57-5.73-4.28-7.69l4.28,1.55,4.28-1.55c-1.71,1.97-3.33,5.14-4.28,7.69Z"/>
              </g>
              <g>
                <path class="cls-2" d="M1363.26,625.86h-12.84"/>
                <path d="M1344.99,625.86c2.56-.95,5.73-2.57,7.69-4.28l-1.55,4.28,1.55,4.28c-1.97-1.71-5.14-3.33-7.69-4.28Z"/>
              </g>
              <g>
                <path class="cls-2" d="M1176.86,154.53c4.41,1.77,8.82,3.54,13.23,5.32"/>
                <path d="M1195.14,161.87c-2.73-.07-6.27.25-8.73,1.1l3.03-3.39.16-4.55c1.19,2.32,3.52,5.01,5.54,6.84Z"/>
              </g>
              <g>
                <path class="cls-2" d="M676.15,495.18v1.91"/>
                <path d="M676.15,502.52c-.95-2.56-2.57-5.73-4.28-7.69l4.28,1.55,4.28-1.55c-1.71,1.97-3.33,5.14-4.28,7.69Z"/>
              </g>
              <g>
                <path class="cls-2" d="M1111.08,634.67c.68,1.94-14.58,7.89,7.45,4.56,3.65-.55,8.2-.15,12.72.22"/>
                <path d="M1136.66,639.81c-2.62.76-5.9,2.15-7.98,3.72l1.85-4.16-1.24-4.38c1.84,1.85,4.89,3.69,7.37,4.82Z"/>
              </g>
              <g>
                <path class="cls-2" d="M603.05,631.73h-12.84"/>
                <path d="M584.78,631.73c2.56-.95,5.73-2.57,7.69-4.28l-1.55,4.28,1.55,4.28c-1.97-1.71-5.14-3.33-7.69-4.28Z"/>
              </g>
              <g>
                <path class="cls-2" d="M1191.48,97.26c4.37,1.4,8.74,2.81,13.1,4.21"/>
                <path d="M1209.76,103.13c-2.72.12-6.24.69-8.63,1.72l2.78-3.6-.16-4.55c1.35,2.23,3.87,4.74,6.01,6.43Z"/>
              </g>
              <g>
                <path class="cls-2" d="M727.32,703.68h-12.84"/>
                <path d="M709.04,703.68c2.56-.95,5.73-2.57,7.69-4.28l-1.55,4.28,1.55,4.28c-1.97-1.71-5.14-3.33-7.69-4.28Z"/>
              </g>
              <g>
                <path class="cls-2" d="M252.18,219.13v1.91"/>
                <path d="M252.18,226.47c-.95-2.56-2.57-5.73-4.28-7.69l4.28,1.55,4.28-1.55c-1.71,1.97-3.33,5.14-4.28,7.69Z"/>
              </g>
              <g>
                <path class="cls-2" d="M215.64,219.13c.76,2.52-.59,5.14.06,7.67"/>
                <path d="M219.29,230.88c-2.34-1.4-5.58-2.87-8.15-3.33l4.31-1.46,2.38-3.88c-.11,2.61.61,6.09,1.46,8.68Z"/>
              </g>
              <g>
                <path class="cls-2" d="M701.73,661.1h-12.84"/>
                <path d="M683.46,661.1c2.56-.95,5.73-2.57,7.69-4.28l-1.55,4.28,1.55,4.28c-1.97-1.71-5.14-3.33-7.69-4.28Z"/>
              </g>
              <g>
                <path class="cls-2" d="M749.25,662.57h-12.84"/>
                <path d="M730.97,662.57c2.56-.95,5.73-2.57,7.69-4.28l-1.55,4.28,1.55,4.28c-1.97-1.71-5.14-3.33-7.69-4.28Z"/>
              </g>
              <g>
                <path class="cls-2" d="M650.56,633.2h-12.84"/>
                <path d="M632.29,633.2c2.56-.95,5.73-2.57,7.69-4.28l-1.55,4.28,1.55,4.28c-1.97-1.71-5.14-3.33-7.69-4.28Z"/>
              </g>
              <g>
                <path class="cls-2" d="M1381.54,114.88v1.91"/>
                <path d="M1381.54,122.22c-.95-2.56-2.57-5.73-4.28-7.69l4.28,1.55,4.28-1.55c-1.71,1.97-3.33,5.14-4.28,7.69Z"/>
              </g>
              <g>
                <path class="cls-2" d="M1019.7,647.89c4.41,1.77,8.82,3.54,13.23,5.32"/>
                <path d="M1037.98,655.23c-2.73-.07-6.27.25-8.73,1.1l3.03-3.39.16-4.55c1.19,2.32,3.52,5.01,5.54,6.84Z"/>
              </g>
              <g>
                <path class="cls-2" d="M1089.15,117.82v1.91"/>
                <path d="M1089.15,125.16c-.95-2.56-2.57-5.73-4.28-7.69l4.28,1.55,4.28-1.55c-1.71,1.97-3.33,5.14-4.28,7.69Z"/>
              </g>
              <g>
                <path class="cls-2" d="M62.13,517.2h-12.84"/>
                <path d="M43.86,517.2c2.56-.95,5.73-2.57,7.69-4.28l-1.55,4.28,1.55,4.28c-1.97-1.71-5.14-3.33-7.69-4.28Z"/>
              </g>
              <g>
                <path class="cls-2" d="M904.58,356.42l-2.01,2.43"/>
                <path d="M899.09,363.03c.9-2.57,1.68-6.05,1.62-8.65l2.31,3.92,4.28,1.54c-2.57.42-5.84,1.83-8.21,3.19Z"/>
              </g>
              <g>
                <path class="cls-2" d="M773,236.02c-1.55,1.68-3.27,3.39.06,4.09"/>
                <path d="M778.48,240.42c-2.62.75-5.9,2.13-7.99,3.69l1.87-4.15-1.22-4.38c1.83,1.86,4.87,3.71,7.35,4.85Z"/>
              </g>
              <g>
                <path class="cls-2" d="M447.72,311.64c.61,1.47,1.15,2.94,1.84,4.4.39.83.8,1.66,1.21,2.49"/>
                <path d="M453.2,323.38c-1.98-1.87-4.84-3.99-7.25-4.99l4.52-.51,3.15-3.29c-.66,2.52-.7,6.08-.42,8.79Z"/>
              </g>
              <g>
                <path class="cls-2" d="M1134.83,651.56c-3.67.16-7.35.33-11.02.49"/>
                <path d="M1118.39,652.29c2.51-1.06,5.61-2.82,7.49-4.62l-1.36,4.35,1.74,4.21c-2.04-1.62-5.28-3.1-7.88-3.93Z"/>
              </g>
              <g>
                <path class="cls-2" d="M798.59,454.8c-13.18.79-17.38,1.04-17.22,3.31"/>
                <path d="M783.97,462.88c-1.95-1.91-4.76-4.09-7.15-5.14l4.53-.42,3.21-3.22c-.71,2.51-.83,6.07-.6,8.78Z"/>
              </g>
              <g>
                <path class="cls-2" d="M1143.97,480.5c-.36,2.61-.72,5.22-1.08,7.83"/>
                <path d="M1142.14,493.71c-.59-2.66-1.76-6.02-3.19-8.21l4.03,2.12,4.45-.95c-1.97,1.71-4,4.63-5.29,7.03Z"/>
              </g>
              <g>
                <path class="cls-2" d="M793.1,512.8c.29-4.25,3.14-9.05-9.2-10.59"/>
                <path d="M778.48,501.79c2.63-.73,5.92-2.09,8.02-3.63l-1.9,4.14,1.19,4.39c-1.82-1.87-4.85-3.74-7.31-4.9Z"/>
              </g>
              <g>
                <path class="cls-2" d="M880.82,346.88l-9.58,3.85"/>
                <path d="M866.2,352.75c2.02-1.83,4.36-4.52,5.54-6.84l.16,4.55,3.03,3.39c-2.46-.86-6.01-1.18-8.73-1.1Z"/>
              </g>
              <g>
                <path class="cls-2" d="M899.09,678.72h-9.19"/>
                <path d="M884.47,678.72c2.56-.95,5.73-2.57,7.69-4.28l-1.55,4.28,1.55,4.28c-1.97-1.71-5.14-3.33-7.69-4.28Z"/>
              </g>
              <g>
                <path class="cls-2" d="M767.52,678.72h-9.19"/>
                <path d="M752.9,678.72c2.56-.95,5.73-2.57,7.69-4.28l-1.55,4.28,1.55,4.28c-1.97-1.71-5.14-3.33-7.69-4.28Z"/>
              </g>
              <path d="M252.18,299.89c-.95-2.56-2.57-5.73-4.28-7.69l4.28,1.55,4.28-1.55c-1.71,1.97-3.33,5.14-4.28,7.69Z"/>
              <g>
                <path class="cls-2" d="M866.2,380.65c3.19,1.28,6.39,2.57,9.58,3.85"/>
                <path d="M880.82,386.52c-2.73-.07-6.27.25-8.73,1.1l3.03-3.39.16-4.55c1.19,2.32,3.52,5.01,5.54,6.84Z"/>
              </g>
              <g>
                <path class="cls-2" d="M475.13,371.84c.26.42.52.84.79,1.26"/>
                <path d="M478.79,377.71c-2.16-1.67-5.2-3.51-7.7-4.27l4.45-.95,2.82-3.58c-.42,2.57-.11,6.12.43,8.79Z"/>
              </g>
              <path d="M972.19,208.85c-.95-2.56-2.57-5.73-4.28-7.69l4.28,1.55,4.28-1.55c-1.71,1.97-3.33,5.14-4.28,7.69Z"/>
              <path d="M676.15,211.79c-.95-2.56-2.57-5.73-4.28-7.69l4.28,1.55,4.28-1.55c-1.71,1.97-3.33,5.14-4.28,7.69Z"/>
              <g>
                <path class="cls-2" d="M833.31,665.51h-9.19"/>
                <path d="M818.69,665.51c2.56-.95,5.73-2.57,7.69-4.28l-1.55,4.28,1.55,4.28c-1.97-1.71-5.14-3.33-7.69-4.28Z"/>
              </g>
              <g>
                <path class="cls-2" d="M793.1,664.04h-9.19"/>
                <path d="M778.48,664.04c2.56-.95,5.73-2.57,7.69-4.28l-1.55,4.28,1.55,4.28c-1.97-1.71-5.14-3.33-7.69-4.28Z"/>
              </g>
              <g>
                <path class="cls-2" d="M869.86,652.29h-9.19"/>
                <path d="M855.24,652.29c2.56-.95,5.73-2.57,7.69-4.28l-1.55,4.28,1.55,4.28c-1.97-1.71-5.14-3.33-7.69-4.28Z"/>
              </g>
              <path d="M1443.67,653.76c-.95-2.56-2.57-5.73-4.28-7.69l4.28,1.55,4.28-1.55c-1.71,1.97-3.33,5.14-4.28,7.69Z"/>
              <g>
                <path class="cls-2" d="M873.51,639.08h-9.19"/>
                <path d="M858.89,639.08c2.56-.95,5.73-2.57,7.69-4.28l-1.55,4.28,1.55,4.28c-1.97-1.71-5.14-3.33-7.69-4.28Z"/>
              </g>
              <g>
                <path class="cls-2" d="M811.38,225.01c-.07.23-.14.46-.21.69"/>
                <path d="M809.55,230.88c-.15-2.72-.75-6.23-1.8-8.62l3.63,2.75,4.55-.21c-2.22,1.37-4.71,3.92-6.37,6.07Z"/>
              </g>
              <g>
                <path class="cls-2" d="M829.65,637.61h-9.19"/>
                <path d="M815.03,637.61c2.56-.95,5.73-2.57,7.69-4.28l-1.55,4.28,1.55,4.28c-1.97-1.71-5.14-3.33-7.69-4.28Z"/>
              </g>
              <path d="M979.5,233.82c-.95-2.56-2.57-5.73-4.28-7.69l4.28,1.55,4.28-1.55c-1.71,1.97-3.33,5.14-4.28,7.69Z"/>
              <path d="M288.73,247.03c-.95-2.56-2.57-5.73-4.28-7.69l4.28,1.55,4.28-1.55c-1.71,1.97-3.33,5.14-4.28,7.69Z"/>
              <g>
                <path class="cls-2" d="M476.96,247.77c.26.42.52.84.79,1.26"/>
                <path d="M480.61,253.64c-2.16-1.67-5.2-3.51-7.7-4.27l4.45-.95,2.82-3.58c-.42,2.57-.11,6.12.43,8.79Z"/>
              </g>
              <g>
                <path class="cls-2" d="M411.17,531.89c2.47.28,4.93.57,7.4.85"/>
                <path d="M423.96,533.36c-2.65.65-5.98,1.9-8.13,3.38l2.03-4.08-1.05-4.43c1.76,1.93,4.72,3.9,7.15,5.13Z"/>
              </g>
              <path d="M1206.1,603.84c-.95-2.56-2.57-5.73-4.28-7.69l4.28,1.55,4.28-1.55c-1.71,1.97-3.33,5.14-4.28,7.69Z"/>
              <g>
                <path class="cls-2" d="M529.95,351.28c-3.19,1.28-6.39,2.57-9.58,3.85"/>
                <path d="M515.33,357.16c2.02-1.83,4.36-4.52,5.54-6.84l.16,4.55,3.03,3.39c-2.46-.86-6.01-1.18-8.73-1.1Z"/>
              </g>
              <g>
                <path class="cls-2" d="M888.13,583.28c.26.42.52.84.79,1.26"/>
                <path d="M891.78,589.15c-2.16-1.67-5.2-3.51-7.7-4.27l4.45-.95,2.82-3.58c-.42,2.57-.11,6.12.43,8.79Z"/>
              </g>
              <path d="M588.43,578.87c-.95-2.56-2.57-5.73-4.28-7.69l4.28,1.55,4.28-1.55c-1.71,1.97-3.33,5.14-4.28,7.69Z"/>
              <g>
                <path class="cls-2" d="M968.54,333.66h9.19"/>
                <path d="M983.16,333.66c-2.56.95-5.73,2.57-7.69,4.28l1.55-4.28-1.55-4.28c1.97,1.71,5.14,3.33,7.69,4.28Z"/>
              </g>
              <path d="M1377.88,107.54c-.95-2.56-2.57-5.73-4.28-7.69l4.28,1.55,4.28-1.55c-1.71,1.97-3.33,5.14-4.28,7.69Z"/>
              <g>
                <path class="cls-2" d="M398.38,523.08c-3.06.08-6.13.15-9.19.23"/>
                <path d="M383.76,523.44c2.53-1.01,5.66-2.71,7.58-4.47l-1.44,4.32,1.66,4.24c-2.01-1.66-5.22-3.2-7.8-4.08Z"/>
              </g>
              <g>
                <path class="cls-2" d="M1070.87,274.93c-1.03.82-2.05,1.65-3.08,2.47"/>
                <path d="M1063.56,280.8c1.4-2.34,2.86-5.59,3.32-8.15l1.47,4.31,3.89,2.37c-2.61-.1-6.09.62-8.68,1.48Z"/>
              </g>
              <g>
                <path class="cls-2" d="M614.02,556.85c-3.19,1.28-6.39,2.57-9.58,3.85"/>
                <path d="M599.4,562.72c2.02-1.83,4.36-4.52,5.54-6.84l.16,4.55,3.03,3.39c-2.46-.86-6.01-1.18-8.73-1.1Z"/>
              </g>
              <g>
                <path class="cls-2" d="M116.96,515.74h-9.19"/>
                <path d="M102.34,515.74c2.56-.95,5.73-2.57,7.69-4.28l-1.55,4.28,1.55,4.28c-1.97-1.71-5.14-3.33-7.69-4.28Z"/>
              </g>
              <g>
                <path class="cls-2" d="M354.52,509.86h-9.19"/>
                <path d="M339.9,509.86c2.56-.95,5.73-2.57,7.69-4.28l-1.55,4.28,1.55,4.28c-1.97-1.71-5.14-3.33-7.69-4.28Z"/>
              </g>
              <path d="M201.02,473.15c-.95-2.56-2.57-5.73-4.28-7.69l4.28,1.55,4.28-1.55c-1.71,1.97-3.33,5.14-4.28,7.69Z"/>
              <g>
                <path class="cls-2" d="M862.55,501.05h-9.19"/>
                <path d="M847.93,501.05c2.56-.95,5.73-2.57,7.69-4.28l-1.55,4.28,1.55,4.28c-1.97-1.71-5.14-3.33-7.69-4.28Z"/>
              </g>
              <path d="M855.24,368.9c-.95-2.56-2.57-5.73-4.28-7.69l4.28,1.55,4.28-1.55c-1.71,1.97-3.33,5.14-4.28,7.69Z"/>
              <path d="M975.85,147.18c-.95-2.56-2.57-5.73-4.28-7.69l4.28,1.55,4.28-1.55c-1.71,1.97-3.33,5.14-4.28,7.69Z"/>
              <g>
                <path class="cls-2" d="M131.57,735.99h-9.19"/>
                <path d="M116.96,735.99c2.56-.95,5.73-2.57,7.69-4.28l-1.55,4.28,1.55,4.28c-1.97-1.71-5.14-3.33-7.69-4.28Z"/>
              </g>
              <path d="M478.79,715.43c-.95-2.56-2.57-5.73-4.28-7.69l4.28,1.55,4.28-1.55c-1.71,1.97-3.33,5.14-4.28,7.69Z"/>
              <g>
                <path class="cls-2" d="M913.71,693.4h-9.19"/>
                <path d="M899.09,693.4c2.56-.95,5.73-2.57,7.69-4.28l-1.55,4.28,1.55,4.28c-1.97-1.71-5.14-3.33-7.69-4.28Z"/>
              </g>
              <g>
                <path class="cls-2" d="M877.17,691.94h-9.19"/>
                <path d="M862.55,691.94c2.56-.95,5.73-2.57,7.69-4.28l-1.55,4.28,1.55,4.28c-1.97-1.71-5.14-3.33-7.69-4.28Z"/>
              </g>
              <g>
                <path class="cls-2" d="M1560.62,167.74c3.19,1.28,6.39,2.57,9.58,3.85"/>
                <path d="M1575.24,173.61c-2.73-.07-6.27.25-8.73,1.1l3.03-3.39.16-4.55c1.19,2.32,3.52,5.01,5.54,6.84Z"/>
              </g>
              <g>
                <path class="cls-2" d="M635.94,169.21c3.19,1.28,6.39,2.57,9.58,3.85"/>
                <path d="M650.56,175.08c-2.73-.07-6.27.25-8.73,1.1l3.03-3.39.16-4.55c1.19,2.32,3.52,5.01,5.54,6.84Z"/>
              </g>
              <path d="M709.04,179.49c-.95-2.56-2.57-5.73-4.28-7.69l4.28,1.55,4.28-1.55c-1.71,1.97-3.33,5.14-4.28,7.69Z"/>
              <g>
                <path class="cls-2" d="M1355.95,686.06h-9.19"/>
                <path d="M1341.33,686.06c2.56-.95,5.73-2.57,7.69-4.28l-1.55,4.28,1.55,4.28c-1.97-1.71-5.14-3.33-7.69-4.28Z"/>
              </g>
              <path d="M654.22,188.3c-.95-2.56-2.57-5.73-4.28-7.69l4.28,1.55,4.28-1.55c-1.71,1.97-3.33,5.14-4.28,7.69Z"/>
              <g>
                <path class="cls-2" d="M1275.54,410.02l-20.19,2.32"/>
                <path d="M1249.96,412.95c2.43-1.23,5.4-3.2,7.15-5.13l-1.05,4.43,2.03,4.08c-2.15-1.48-5.48-2.72-8.13-3.37Z"/>
              </g>
              <g>
                <path class="cls-2" d="M376.45,188.3h-9.19"/>
                <path d="M361.83,188.3c2.56-.95,5.73-2.57,7.69-4.28l-1.55,4.28,1.55,4.28c-1.97-1.71-5.14-3.33-7.69-4.28Z"/>
              </g>
              <g>
                <path class="cls-2" d="M789.45,545.1h7.36"/>
                <path d="M802.24,545.1c-2.56.95-5.73,2.57-7.69,4.28l1.55-4.28-1.55-4.28c1.97,1.71,5.14,3.33,7.69,4.28Z"/>
              </g>
              <path d="M955.74,262.45c-1.38-2.35-3.53-5.19-5.56-6.82l4.49.77,3.94-2.27c-1.34,2.24-2.38,5.64-2.87,8.32Z"/>
              <g>
                <path class="cls-2" d="M1017.88,334.4c-2.46-.14-4.91-.28-7.37-.42"/>
                <path d="M1005.09,333.66c2.61-.8,5.86-2.23,7.93-3.83l-1.79,4.18,1.3,4.36c-1.86-1.82-4.94-3.62-7.43-4.71Z"/>
              </g>
              <g>
                <path class="cls-2" d="M429.45,193.44c.35,2.37.69,4.74,1.04,7.11"/>
                <path d="M431.27,205.92c-1.31-2.39-3.37-5.29-5.35-6.99l4.46.91,4.01-2.15c-1.41,2.19-2.55,5.57-3.12,8.23Z"/>
              </g>
              <g>
                <path class="cls-2" d="M793.1,452.6c-.4,1.13-.88,2.27-1.27,3.4"/>
                <path d="M791.28,461.41c-.62-2.65-1.83-6-3.28-8.17l4.05,2.07,4.44-1c-1.95,1.73-3.95,4.68-5.21,7.09Z"/>
              </g>
              <g>
                <path class="cls-2" d="M1207.93,682.39l-7.37.42"/>
                <path d="M1195.14,683.13c2.5-1.09,5.57-2.89,7.43-4.71l-1.3,4.36,1.79,4.18c-2.06-1.6-5.32-3.03-7.93-3.83Z"/>
              </g>
              <g>
                <path class="cls-2" d="M970.36,376.24c-.17.24-.34.48-.51.71"/>
                <path d="M966.71,381.38c.71-2.63,1.23-6.15.97-8.75l2.59,3.74,4.38,1.22c-2.54.61-5.69,2.26-7.95,3.79Z"/>
              </g>
              <g>
                <path class="cls-2" d="M403.86,519.41c2.45-.07,4.91-.14,7.36-.21"/>
                <path d="M416.65,519.04c-2.53,1.02-5.65,2.73-7.57,4.5l1.42-4.32-1.67-4.23c2.01,1.66,5.23,3.18,7.81,4.06Z"/>
              </g>
              <g>
                <path class="cls-2" d="M800.41,317.51c-1.97.79-3.95,1.59-5.92,2.38"/>
                <path d="M789.45,321.92c2.02-1.83,4.36-4.52,5.54-6.84l.16,4.55,3.03,3.39c-2.46-.86-6.01-1.18-8.73-1.1Z"/>
              </g>
              <g>
                <path class="cls-2" d="M910.06,224.27c-1.88.38-3.76.75-5.64,1.13"/>
                <path d="M899.09,226.47c2.32-1.43,5.11-3.64,6.7-5.71l-.67,4.5,2.36,3.89c-2.26-1.29-5.69-2.25-8.38-2.68Z"/>
              </g>
              <g>
                <path class="cls-2" d="M325.28,179.49c1.97.79,3.95,1.59,5.92,2.38"/>
                <path d="M336.25,183.89c-2.73-.07-6.27.25-8.73,1.1l3.03-3.39.16-4.55c1.19,2.32,3.52,5.01,5.54,6.84Z"/>
              </g>
              <g>
                <path class="cls-2" d="M913.71,220.6c-.24,1.16-.48,2.33-.72,3.49"/>
                <path d="M911.89,229.41c-.41-2.7-1.35-6.13-2.63-8.4l3.88,2.39,4.5-.65c-2.08,1.58-4.31,4.35-5.75,6.66Z"/>
              </g>
              <g>
                <path class="cls-2" d="M1575.24,154.53c-1.97.79-3.95,1.59-5.92,2.38"/>
                <path d="M1564.28,158.93c2.02-1.83,4.36-4.52,5.54-6.84l.16,4.55,3.03,3.39c-2.46-.86-6.01-1.18-8.73-1.1Z"/>
              </g>
              <path d="M471.48,621.46c-2.36-1.36-5.63-2.77-8.21-3.19l4.28-1.54,2.3-3.92c-.06,2.61.72,6.08,1.62,8.65Z"/>
              <g>
                <path class="cls-2" d="M449.55,421.76c1.97.79,3.95,1.59,5.92,2.38"/>
                <path d="M460.51,426.17c-2.73-.07-6.27.25-8.73,1.1l3.03-3.39.16-4.55c1.19,2.32,3.52,5.01,5.54,6.84Z"/>
              </g>
              <g>
                <path class="cls-2" d="M727.32,321.92c-1.97.79-3.95,1.59-5.92,2.38"/>
                <path d="M716.35,326.32c2.02-1.83,4.36-4.52,5.54-6.84l.16,4.55,3.03,3.39c-2.46-.86-6.01-1.18-8.73-1.1Z"/>
              </g>
              <g>
                <path class="cls-2" d="M427.62,599.43c-1.97.79-3.95,1.59-5.92,2.38"/>
                <path d="M416.65,603.84c2.02-1.83,4.36-4.52,5.54-6.84l.16,4.55,3.03,3.39c-2.46-.86-6.01-1.18-8.73-1.1Z"/>
              </g>
              <g>
                <path class="cls-2" d="M884.47,595.03c-1.97.79-3.95,1.59-5.92,2.38"/>
                <path d="M873.51,599.43c2.02-1.83,4.36-4.52,5.54-6.84l.16,4.55,3.03,3.39c-2.46-.86-6.01-1.18-8.73-1.1Z"/>
              </g>
              <g>
                <path class="cls-2" d="M926.51,416.62c1.83.73,3.65,1.47,5.48,2.2-1.29.31-2.57.62-3.86.93"/>
                <path d="M922.85,421.03c2.26-1.52,4.97-3.84,6.48-5.96l-.5,4.52,2.51,3.8c-2.31-1.21-5.77-2.04-8.48-2.36Z"/>
              </g>
              <g>
                <path class="cls-2" d="M1414.43,374.78c-1.97.79-3.95,1.59-5.92,2.38"/>
                <path d="M1403.46,379.18c2.02-1.83,4.36-4.52,5.54-6.84l.16,4.55,3.03,3.39c-2.46-.86-6.01-1.18-8.73-1.1Z"/>
              </g>
              <g>
                <path class="cls-2" d="M1158.59,266.12c1.97.79,3.95,1.59,5.92,2.38"/>
                <path d="M1169.55,270.52c-2.73-.07-6.27.25-8.73,1.1l3.03-3.39.16-4.55c1.19,2.32,3.52,5.01,5.54,6.84Z"/>
              </g>
              <g>
                <path class="cls-2" d="M449.55,288.14c-1.83.73-4.89,1.39-5.23,2.22-.06.14-.11.28-.15.42"/>
                <path d="M444.06,296.22c-.82-2.6-2.29-5.84-3.91-7.89l4.2,1.75,4.35-1.34c-1.81,1.88-3.57,4.97-4.64,7.48Z"/>
              </g>
              <g>
                <path class="cls-2" d="M1151.28,343.94c1.97.79,3.95,1.59,5.92,2.38"/>
                <path d="M1162.24,348.35c-2.73-.07-6.27.25-8.73,1.1l3.03-3.39.16-4.55c1.19,2.32,3.52,5.01,5.54,6.84Z"/>
              </g>
              <path d="M617.67,481.96c.9-2.57,1.68-6.05,1.62-8.65l2.31,3.92,4.28,1.54c-2.57.42-5.84,1.83-8.21,3.19Z"/>
              <g>
                <path class="cls-2" d="M1027.01,279.33c.89.53,1.77,1.07,2.66,1.6"/>
                <path d="M1034.32,283.74c-2.68-.51-6.23-.76-8.8-.3l3.54-2.87.88-4.46c.8,2.48,2.68,5.51,4.38,7.64Z"/>
              </g>
              <g>
                <path class="cls-2" d="M809.55,534.82c.26.42.52.84.79,1.26"/>
                <path d="M813.21,540.7c-2.16-1.67-5.2-3.51-7.7-4.27l4.45-.95,2.82-3.58c-.42,2.57-.11,6.12.43,8.79Z"/>
              </g>
              <path d="M705.39,155.99c-1.99-1.87-4.85-3.98-7.26-4.98l4.52-.52,3.14-3.29c-.66,2.52-.69,6.08-.4,8.79Z"/>
              <path d="M703.56,149.39c.29-2.71.25-6.27-.4-8.79l3.14,3.29,4.52.52c-2.41,1-5.27,3.11-7.26,4.98Z"/>
              <g>
                <path class="cls-2" d="M688.94,231.61c2.09.56,4.18,1.12,6.27,1.68"/>
                <path d="M699.9,236.02c-2.7-.4-6.25-.51-8.8.04l3.42-3,.71-4.5c.9,2.45,2.9,5.4,4.68,7.46Z"/>
              </g>
              <g>
                <path class="cls-2" d="M431.27,185.36l.38,1.37"/>
                <path d="M433.1,191.97c-1.6-2.21-4-4.84-6.18-6.27l4.54.35,3.71-2.63c-1.13,2.35-1.84,5.84-2.07,8.55Z"/>
              </g>
              <path d="M476.96,244.83c.29-2.71.25-6.27-.4-8.79l3.14,3.29,4.52.52c-2.41,1-5.27,3.11-7.26,4.98Z"/>
              <g>
                <path class="cls-2" d="M749.25,408.55c-1.37.55-2.73,1.1-4.1,1.65"/>
                <path d="M740.11,412.22c2.02-1.83,4.36-4.52,5.54-6.84l.16,4.55,3.03,3.39c-2.46-.86-6.01-1.18-8.73-1.1Z"/>
              </g>
              <g>
                <path class="cls-2" d="M1098.28,556.12c-1.24-.1-2.48-.2-3.72-.3"/>
                <path d="M1089.15,555.38c2.62-.74,5.91-2.1,8.01-3.65l-1.89,4.14,1.2,4.39c-1.82-1.87-4.85-3.73-7.33-4.88Z"/>
              </g>
              <g>
                <path class="cls-2" d="M813.21,543.63c1.32.42,2.64.85,3.97,1.27"/>
                <path d="M822.34,546.57c-2.72.12-6.24.69-8.63,1.72l2.78-3.6-.16-4.55c1.35,2.23,3.87,4.74,6.01,6.43Z"/>
              </g>
              <g>
                <path class="cls-2" d="M1242.65,341c-.76.3-1.51.61-2.27.91"/>
                <path d="M1235.34,343.94c2.02-1.83,4.36-4.52,5.54-6.84l.16,4.55,3.03,3.39c-2.46-.86-6.01-1.18-8.73-1.1Z"/>
              </g>
              <g>
                <path class="cls-2" d="M1571.59,45.87c.76.3,1.51.61,2.27.91"/>
                <path d="M1578.9,48.81c-2.73-.07-6.27.25-8.73,1.1l3.03-3.39.16-4.55c1.19,2.32,3.52,5.01,5.54,6.84Z"/>
              </g>
              <g>
                <path class="cls-2" d="M1001.43,50.27c.76.3,1.51.61,2.27.91"/>
                <path d="M1008.74,53.21c-2.73-.07-6.27.25-8.73,1.1l3.03-3.39.16-4.55c1.19,2.32,3.52,5.01,5.54,6.84Z"/>
              </g>
              <path d="M460.51,584.75c1.4-2.34,2.86-5.59,3.32-8.15l1.47,4.31,3.89,2.37c-2.61-.1-6.09.62-8.68,1.48Z"/>
              <g>
                <path class="cls-2" d="M931.99,340.27c.63-.03,1.26-.06,1.88-.09"/>
                <path d="M939.3,339.9c-2.51,1.08-5.59,2.85-7.47,4.66l1.33-4.35-1.76-4.2c2.05,1.61,5.3,3.07,7.9,3.89Z"/>
              </g>
              <path d="M1202.45,67.89c-2.59-.86-6.07-1.59-8.68-1.48l3.89-2.37,1.47-4.31c.46,2.57,1.92,5.81,3.32,8.15Z"/>
              <g>
                <path class="cls-2" d="M529.95,592.09c-.76.3-1.51.61-2.27.91"/>
                <path d="M522.64,595.03c2.02-1.83,4.36-4.52,5.54-6.84l.16,4.55,3.03,3.39c-2.46-.86-6.01-1.18-8.73-1.1Z"/>
              </g>
              <g>
                <path class="cls-2" d="M1560.62,97.26c-.76.3-1.51.61-2.27.91"/>
                <path d="M1553.31,100.2c2.02-1.83,4.36-4.52,5.54-6.84l.16,4.55,3.03,3.39c-2.46-.86-6.01-1.18-8.73-1.1Z"/>
              </g>
              <g>
                <path class="cls-2" d="M1059.91,633.2c.76.3,1.51.61,2.27.91"/>
                <path d="M1067.22,636.14c-2.73-.07-6.27.25-8.73,1.1l3.03-3.39.16-4.55c1.19,2.32,3.52,5.01,5.54,6.84Z"/>
              </g>
              <g>
                <path class="cls-2" d="M1425.39,634.67c.76.3,1.51.61,2.27.91"/>
                <path d="M1432.7,637.61c-2.73-.07-6.27.25-8.73,1.1l3.03-3.39.16-4.55c1.19,2.32,3.52,5.01,5.54,6.84Z"/>
              </g>
              <g>
                <path class="cls-2" d="M413,120.75c.76.3,1.51.61,2.27.91"/>
                <path d="M420.31,123.69c-2.73-.07-6.27.25-8.73,1.1l3.03-3.39.16-4.55c1.19,2.32,3.52,5.01,5.54,6.84Z"/>
              </g>
              <path d="M778.48,330.73c1.4-2.34,2.86-5.59,3.32-8.15l1.47,4.31,3.89,2.37c-2.61-.1-6.09.62-8.68,1.48Z"/>
              <g>
                <path class="cls-2" d="M427.62,125.16c.76.3,1.51.61,2.27.91"/>
                <path d="M434.93,128.1c-2.73-.07-6.27.25-8.73,1.1l3.03-3.39.16-4.55c1.19,2.32,3.52,5.01,5.54,6.84Z"/>
              </g>
              <path d="M1564.28,128.1c1.4-2.34,2.86-5.59,3.32-8.15l1.47,4.31,3.89,2.37c-2.61-.1-6.09.62-8.68,1.48Z"/>
              <g>
                <path class="cls-2" d="M902.75,647.89c-.66.13-1.32.27-1.98.4"/>
                <path d="M895.44,649.35c2.32-1.43,5.11-3.64,6.7-5.71l-.67,4.5,2.36,3.89c-2.26-1.29-5.69-2.25-8.38-2.68Z"/>
              </g>
              <g>
                <path class="cls-2" d="M252.18,668.44c-.76.3-1.51.61-2.27.91"/>
                <path d="M244.88,671.38c2.02-1.83,4.36-4.52,5.54-6.84l.16,4.55,3.03,3.39c-2.46-.86-6.01-1.18-8.73-1.1Z"/>
              </g>
              <g>
                <path class="cls-2" d="M1425.39,672.85c-.76.3-1.51.61-2.27.91"/>
                <path d="M1418.08,675.78c2.02-1.83,4.36-4.52,5.54-6.84l.16,4.55,3.03,3.39c-2.46-.86-6.01-1.18-8.73-1.1Z"/>
              </g>
              <path d="M478.79,683.13c1.4-2.34,2.86-5.59,3.32-8.15l1.47,4.31,3.89,2.37c-2.61-.1-6.09.62-8.68,1.48Z"/>
              <g>
                <path class="cls-2" d="M241.22,724.24c-.76.3-1.51.61-2.27.91"/>
                <path d="M233.91,727.18c2.02-1.83,4.36-4.52,5.54-6.84l.16,4.55,3.03,3.39c-2.46-.86-6.01-1.18-8.73-1.1Z"/>
              </g>
              <g>
                <path class="cls-2" d="M504.37,743.33c.76.3,1.51.61,2.27.91"/>
                <path d="M511.68,746.26c-2.73-.07-6.27.25-8.73,1.1l3.03-3.39.16-4.55c1.19,2.32,3.52,5.01,5.54,6.84Z"/>
              </g>
              <g>
                <path class="cls-2" d="M21.93,183.89c-.76.3-1.51.61-2.27.91"/>
                <path d="M14.62,186.83c2.02-1.83,4.36-4.52,5.54-6.84l.16,4.55,3.03,3.39c-2.46-.86-6.01-1.18-8.73-1.1Z"/>
              </g>
              <g>
                <path class="cls-2" d="M646.91,195.64c-.76.3-1.51.61-2.27.91"/>
                <path d="M639.6,198.58c2.02-1.83,4.36-4.52,5.54-6.84l.16,4.55,3.03,3.39c-2.46-.86-6.01-1.18-8.73-1.1Z"/>
              </g>
              <path d="M1096.46,233.82c1.4-2.34,2.86-5.59,3.32-8.15l1.47,4.31,3.89,2.37c-2.61-.1-6.09.62-8.68,1.48Z"/>
              <g>
                <path class="cls-2" d="M1165.9,241.16c-.76.3-1.51.61-2.27.91"/>
                <path d="M1158.59,244.09c2.02-1.83,4.36-4.52,5.54-6.84l.16,4.55,3.03,3.39c-2.46-.86-6.01-1.18-8.73-1.1Z"/>
              </g>
              <g>
                <path class="cls-2" d="M1059.91,264.65c.76.3,1.51.61,2.27.91"/>
                <path d="M1067.22,267.59c-2.73-.07-6.27.25-8.73,1.1l3.03-3.4.16-4.55c1.19,2.32,3.52,5.01,5.54,6.84Z"/>
              </g>
              <path d="M1301.13,302.83c1.4-2.34,2.86-5.59,3.32-8.15l1.47,4.31,3.89,2.37c-2.61-.1-6.09.62-8.68,1.48Z"/>
              <g>
                <path class="cls-2" d="M643.25,392.4c.76.3,1.51.61,2.27.91"/>
                <path d="M650.56,395.33c-2.73-.07-6.27.25-8.73,1.1l3.03-3.39.16-4.55c1.19,2.32,3.52,5.01,5.54,6.84Z"/>
              </g>
              <g>
                <path class="cls-2" d="M610.36,410.02c.76.3,1.51.61,2.27.91"/>
                <path d="M617.67,412.95c-2.73-.07-6.27.25-8.73,1.1l3.03-3.39.16-4.55c1.19,2.32,3.52,5.01,5.54,6.84Z"/>
              </g>
              <g>
                <path class="cls-2" d="M1297.47,417.36c-.76.3-1.51.61-2.27.91"/>
                <path d="M1290.16,420.29c2.02-1.83,4.36-4.52,5.54-6.84l.16,4.55,3.03,3.39c-2.46-.86-6.01-1.18-8.73-1.1Z"/>
              </g>
              <g>
                <path class="cls-2" d="M544.57,421.76c.76.3,1.51.61,2.27.91"/>
                <path d="M551.88,424.7c-2.73-.07-6.27.25-8.73,1.1l3.03-3.39.16-4.55c1.19,2.32,3.52,5.01,5.54,6.84Z"/>
              </g>
              <g>
                <path class="cls-2" d="M475.13,430.57c.76.3,1.51.61,2.27.91"/>
                <path d="M482.44,433.51c-2.73-.07-6.27.25-8.73,1.1l3.03-3.4.16-4.55c1.19,2.32,3.52,5.01,5.54,6.84Z"/>
              </g>
              <g>
                <path class="cls-2" d="M1023.36,364.5c.76.3,1.51.61,2.27.91"/>
                <path d="M1030.67,367.43c-2.73-.07-6.27.25-8.73,1.1l3.03-3.39.16-4.55c1.19,2.32,3.52,5.01,5.54,6.84Z"/>
              </g>
              <g>
                <path class="cls-2" d="M953.92,470.22c.76.3,1.51.61,2.27.91"/>
                <path d="M961.23,473.15c-2.73-.07-6.27.25-8.73,1.1l3.03-3.4.16-4.55c1.19,2.32,3.52,5.01,5.54,6.84Z"/>
              </g>
              <g>
                <path class="cls-2" d="M204.67,505.46c-.76.3-1.51.61-2.27.91"/>
                <path d="M197.36,508.39c2.02-1.83,4.36-4.52,5.54-6.84l.16,4.55,3.03,3.39c-2.46-.86-6.01-1.18-8.73-1.1Z"/>
              </g>
              <path d="M478.79,258.78c.9-2.57,1.68-6.05,1.62-8.65l2.31,3.92,4.28,1.54c-2.57.42-5.84,1.83-8.21,3.19Z"/>
              <path d="M1556.97,133.97c-2.73-.07-6.27.25-8.73,1.1l3.03-3.39.16-4.55c1.19,2.32,3.52,5.01,5.54,6.84Z"/>
              <path d="M1030.67,266.12c.9-2.57,1.68-6.05,1.62-8.65l2.31,3.92,4.28,1.54c-2.57.42-5.84,1.83-8.21,3.19Z"/>
              <path d="M1549.66,70.83c2.02-1.83,4.36-4.52,5.54-6.84l.16,4.55,3.03,3.39c-2.46-.86-6.01-1.18-8.73-1.1Z"/>
              <path d="M1140.31,370.37c2.66-.6,6.02-1.78,8.19-3.22l-2.1,4.04.97,4.45c-1.72-1.96-4.65-3.98-7.06-5.26Z"/>
              <path d="M911.89,327.79c-.95-2.56-2.57-5.73-4.28-7.69l4.28,1.55,4.28-1.55c-1.71,1.97-3.33,5.14-4.28,7.69Z"/>
              <path d="M1449.15,184.63c.9-2.57,1.68-6.05,1.62-8.65l2.31,3.92,4.28,1.54c-2.57.42-5.84,1.83-8.21,3.19Z"/>
              <path d="M1549.66,164.8c-2.73-.07-6.27.25-8.73,1.1l3.03-3.39.16-4.55c1.19,2.32,3.52,5.01,5.54,6.84Z"/>
            </g>
          </g>
        </g>
      </g>
    </g>
  </g>
</svg>