<?xml version="1.0" encoding="UTF-8"?>
<svg xmlns="http://www.w3.org/2000/svg" viewBox="0 0 1480.65 743.51">
  <defs>
    <style>
      .cls-1 {
        mix-blend-mode: difference;
      }

      .cls-2 {
        fill: none;
        stroke: #000;
        stroke-linecap: round;
        stroke-linejoin: round;
        stroke-width: 2px;
      }

      .cls-3 {
        isolation: isolate;
      }

      .cls-4 {
        mix-blend-mode: screen;
      }
    </style>
  </defs>
  <g class="cls-3">
    <g id="Layer_2" data-name="Layer 2">
      <g id="Layer_1-2" data-name="Layer 1">
        <g class="cls-1">
          <g class="cls-4">
            <g>
              <path class="cls-2" d="M390.5,637.52c-3.65-13.95-7.46-27.89-10.92-41.85-3.83-15.41-9.71-30.82-10.31-46.26-.55-14.15-4.86-28.4,4.08-42.65,5.13-8.17,3.14-17.06,4.36-25.62"/>
              <path class="cls-2" d="M1006.35,288.79c9.88-5.07,5.06-10.66,3.68-16.15-7.36-29.36-15.94-58.7-21.16-88.12-1.54-8.66,6.51-17.6,10.17-26.41"/>
              <path class="cls-2" d="M1479.65,713.14c-3.05-3.92-6.09-7.83-9.14-11.75"/>
              <path class="cls-2" d="M1403.81,640.46c-11.86-16.05-14.7-32.17-2.84-48.47,1.9-2.61,2.53-5.37,3.75-8.06"/>
              <path class="cls-2" d="M1465.03,530.33c1.22-9.54,2.44-19.09,3.65-28.63"/>
              <path class="cls-2" d="M1.26,520.79c.61-3.43,1.81-6.85,1.72-10.28-.34-12.24-3.37-24.54-1.22-36.69,3.65-20.61,9.33-41.19,16.34-61.66,4.57-13.33,13-26.45,19.7-39.67"/>
              <path class="cls-2" d="M170.3,361.48c-2.74,3.18-5.48,6.36-8.22,9.54"/>
              <path class="cls-2" d="M1081.27,711.67c3.05-3.92,6.09-7.83,9.14-11.75"/>
              <path class="cls-2" d="M1160.76,619.9c5.18-9.05,12.45-18.02,14.83-27.19,1.74-6.7-2.96-13.68-4.78-20.53"/>
              <path class="cls-2" d="M489.18,138.29c-1.83-2.69-4.31-5.34-5.37-8.08-3.95-10.26-7.43-20.55-11.08-30.83"/>
              <path class="cls-2" d="M35.98,81.02c.61-4.65,1.22-9.3,1.83-13.95"/>
              <path class="cls-2" d="M96.29,517.12c6.09-11.99,12.18-23.98,18.27-35.97"/>
              <path class="cls-2" d="M272.63,675.7c-.3-2.2-.61-4.41-.91-6.61"/>
              <path class="cls-2" d="M1028.28,439.3c3.81-15.94-4.88-31.45-11.38-46.96-4.74-11.3-9.06-22.27,4.07-33.07"/>
              <path class="cls-2" d="M1033.76,337.98c4.41-6.2,6.12-12.35-1.83-18.35"/>
              <path class="cls-2" d="M920.46,175.73c3.05-7.83,6.09-15.66,9.14-23.49"/>
              <path class="cls-2" d="M145.63,234.47c4.26-11.75,7.8-23.55,13.04-35.22,3.56-7.93,9.49-15.68,14.37-23.51"/>
              <path class="cls-2" d="M192.23,150.04c5.18-10.77,10.36-21.54,15.53-32.3"/>
              <path class="cls-2" d="M1263.1,267.5c11.05-6.25,4.18-13.17,4.62-19.82.35-5.39,1.17-10.77,1.78-16.15"/>
              <path class="cls-2" d="M445.33,147.1c6.47-7.68,4.92-15.25-1.83-22.76"/>
              <path class="cls-2" d="M94.46,642.66c-2.44-28.63-5.05-57.26-7.16-85.9-.42-5.62,1.07-11.26,1.68-16.88"/>
              <path class="cls-2" d="M1218.33,52.39c15.39-6.85,20.87-14.13,13.63-23.6-4.05-5.3.38-11.64.99-17.52"/>
              <path class="cls-2" d="M505.63,582.46c-1.83-3.18-5.03-6.35-5.26-9.55-1.64-22.26-1.96-44.55-4.23-66.8-.88-8.6-6.57-17.11-8.31-25.72-.57-2.84,4.4-5.86,6.84-8.79"/>
              <path class="cls-2" d="M1256.7,513.45v-7.34"/>
              <path class="cls-2" d="M1084.93,642.66c-3.05-5.87-6.09-11.75-9.14-17.62"/>
              <path class="cls-2" d="M759.64,445.91c3.05-7.83,6.09-15.66,9.14-23.49"/>
              <path class="cls-2" d="M920.46,418.74c1.22,5.63,2.44,11.26,3.65,16.89"/>
              <path class="cls-2" d="M379.54,144.53c5.55-5.68.31-10.75-5.48-15.78"/>
              <path class="cls-2" d="M240.65,611.83c-3.05-3.92-6.09-7.83-9.14-11.75"/>
              <path class="cls-2" d="M205.02,568.51c-3.96-9.3-7.92-18.6-11.88-27.9"/>
              <path class="cls-2" d="M514.77,513.45c1.22-6.12,2.44-12.24,3.65-18.35"/>
              <path class="cls-2" d="M296.39,133.88c-4.57-8.57-9.14-17.13-13.71-25.7"/>
              <path class="cls-2" d="M801.67,572.18c-2.44-3.67-8.22-7.58-6.74-10.97,6.79-15.56,3.71-30.96-2.96-46.25-1.82-4.17-10.41-7.87-15.89-11.79"/>
              <path class="cls-2" d="M971.62,395.98c3.05-5.87,6.09-11.75,9.14-17.62"/>
              <path class="cls-2" d="M988.99,362.94c4.86-9.57,12.54-19.16-.91-28.63"/>
              <path class="cls-2" d="M851.93,268.97c.91-12.97,1.83-25.94,2.74-38.91"/>
              <path class="cls-2" d="M1197.31,186.74c-.3,2.69-.61,5.38-.91,8.08"/>
              <path class="cls-2" d="M1190.92,210.97c-2.44,3.92-4.87,7.83-7.31,11.75"/>
              <path class="cls-2" d="M729.49,160.31c-.3-8.57-.61-17.13-.91-25.7"/>
              <path class="cls-2" d="M268.07,172.8c1.22-5.38,4.53-10.85,3.26-16.14-3.77-15.7-9.35-31.34-14.23-47"/>
              <path class="cls-2" d="M944.21,742.51c4.26-20.31,8.18-40.64,12.92-60.93,2.98-12.75,7.35-25.45,10.67-38.19.56-2.15-1.05-4.4-1.66-6.6"/>
              <path class="cls-2" d="M957.01,511.98v-48.46"/>
              <path class="cls-2" d="M988.07,37.71c14.63-9.9,6.13-20.03,1.71-30.09-1-2.26-3.53-4.41-5.36-6.62"/>
              <path class="cls-2" d="M208.67,492.16c-3.96,8.32-7.92,16.64-11.88,24.96"/>
              <path class="cls-2" d="M825.43,545.75c.61-1.47,1.22-2.94,1.83-4.41"/>
              <path class="cls-2" d="M182.18,272.64c-2.44-20.07-4.87-40.13-7.31-60.2"/>
              <path class="cls-2" d="M766.95,598.61c.61-7.59,4.84-15.47,1.14-22.7-10.43-20.32,2.09-40.75-4.6-61-.78-2.37,1.03-4.88,1.64-7.33"/>
              <path class="cls-2" d="M200.45,262.36c.8-14.69,10.82-29.38-1.51-44.09-3.87-4.62-3.97-9.75-5.8-14.64"/>
              <path class="cls-2" d="M887.56,611.83c.61-4.89,1.22-9.79,1.83-14.68"/>
              <path class="cls-2" d="M1214.67,441.5c2.44-5.63,5.26-11.24,7.22-16.89,2.8-8.06,4.96-16.15,7.4-24.22"/>
              <path class="cls-2" d="M28.67,569.25c-3.05-7.83-6.09-15.66-9.14-23.49"/>
              <path class="cls-2" d="M512.94,451.78c-1.83-3.92-5.16-7.83-5.2-11.75-.13-12.72.94-25.45,1.55-38.18"/>
              <path class="cls-2" d="M646.34,274.84c2.44-2.69,4.87-5.38,7.31-8.08"/>
              <path class="cls-2" d="M960.66,360.01c1.83-8.08,3.76-16.15,5.41-24.23.45-2.19.07-4.4.07-6.61"/>
              <path class="cls-2" d="M851.01,365.15c3.05-4.41,6.09-8.81,9.14-13.22"/>
              <path class="cls-2" d="M864.72,335.05c-.3-2.69-.61-5.38-.91-8.08"/>
              <path class="cls-2" d="M558.63,673.5v-27.9"/>
              <path class="cls-2" d="M1373.66,522.26c-.61-1.96-1.22-3.92-1.83-5.87"/>
              <path class="cls-2" d="M655.48,209.5c.61-5.38,1.22-10.77,1.83-16.15"/>
              <path class="cls-2" d="M876.6,651.47v-15.42"/>
              <path class="cls-2" d="M872.94,489.96c-1.22-4.89-2.44-9.79-3.65-14.68"/>
              <path class="cls-2" d="M681.06,208.77c-.61-4.65-1.22-9.3-1.83-13.95"/>
              <path class="cls-2" d="M337.51,147.83c7.71-5.83.49-12.4,5.54-18.35,2.74-3.22,6.04-6.37,9.08-9.55"/>
              <path class="cls-2" d="M582.38,688.18c1.83-7.34,3.65-14.68,5.48-22.03"/>
              <path class="cls-2" d="M544.01,516.39c2.44-8.81,4.87-17.62,7.31-26.43"/>
              <path class="cls-2" d="M999.04,474.54c2.64-1.06,8.99,5.25,9.12-.73.08-3.43.01-6.85.01-10.28"/>
              <path class="cls-2" d="M1037.41,539.88v-27.9"/>
              <path class="cls-2" d="M609.79,528.13c.75-7.66-4.08-14.59-16.45-20.56"/>
              <path class="cls-2" d="M509.29,384.24c-4.87-6.85-9.75-13.7-14.62-20.56"/>
              <path class="cls-2" d="M1168.99,516.39c-.61-10.28-1.22-20.56-1.83-30.84"/>
              <path class="cls-2" d="M1238.43,519.32c0-3.43,1.28-6.95-.32-10.25-2.04-4.19,3.44-5.55,11.29-6.63"/>
              <path class="cls-2" d="M1183.61,509.04v-24.96"/>
              <path class="cls-2" d="M1002.69,511.25c-1.83-.49-4.89-.85-5.29-1.49-3.97-6.35-2.11-12.49,5.29-18.33"/>
              <path class="cls-2" d="M799.85,260.9c-1.83-10.03-4.32-20.06-5.2-30.1-.43-4.87,2.75-9.78,3.22-14.68.61-6.35.15-12.72.15-19.09"/>
              <path class="cls-2" d="M975.28,501.7v-32.3"/>
              <path class="cls-2" d="M999.04,487.02c-11.81-5.37-2.26-11.81-5.33-17.63-.99-1.87-.15-3.9-.15-5.86"/>
              <path class="cls-2" d="M660.96,519.32c3.05-9.79,6.09-19.58,9.14-29.37"/>
              <path class="cls-2" d="M737.71,426.82c5.48-5.38,10.96-10.77,16.45-16.15"/>
              <path class="cls-2" d="M582.38,494.36c-1.83-6.12-3.76-12.23-5.44-18.36-.87-3.17-1.26-6.36-1.87-9.54"/>
              <path class="cls-2" d="M445.33,355.6c12.18-.49,24.37-.98,36.55-1.47"/>
              <path class="cls-2" d="M1221.98,511.25c1.83-9.05,3.65-18.11,5.48-27.16"/>
              <path class="cls-2" d="M470.91,484.08v-24.23"/>
              <path class="cls-2" d="M540.35,644.86v-30.1"/>
              <path class="cls-2" d="M1004.52,489.96c2.44-3.92,4.87-7.83,7.31-11.75"/>
              <path class="cls-2" d="M1004.52,525.2c-.61-7.83-1.22-15.66-1.83-23.49"/>
              <path class="cls-2" d="M1079.44,193.35c-.1-4.22,11.16-7.91,3.65-12.48"/>
              <path class="cls-2" d="M1064.82,526.66c-1.83-6.36-3.65-12.73-5.48-19.09"/>
              <path class="cls-2" d="M1022.79,566.31v-26.43"/>
              <path class="cls-2" d="M662.79,694.05c.61-7.34,1.22-14.68,1.83-22.03"/>
              <path class="cls-2" d="M989.9,536.94c2-8.59-5.15-17.59,7.31-25.7"/>
              <path class="cls-2" d="M1285.94,513.45v-27.9"/>
              <path class="cls-2" d="M474.56,447.37v-26.43"/>
              <path class="cls-2" d="M1148.89,210.97c6.09-3.92,12.18-7.83,18.27-11.75"/>
              <path class="cls-2" d="M777.92,202.16c-1.83-3.43-3.65-6.85-5.48-10.28"/>
              <path class="cls-2" d="M518.42,278.52c-1.83-3.92-3.65-7.83-5.48-11.75"/>
              <path class="cls-2" d="M920.46,698.46v-26.43"/>
              <path class="cls-2" d="M1194.57,516.39v-26.43"/>
              <path class="cls-2" d="M204.11,340.19c3.79-3.79,4.44-7.49-1.83-11.01"/>
              <path class="cls-2" d="M1013.66,514.92c-.61-1.96-2.86-4.12-1.53-5.84,4.69-6.07,4.52-11.88-2.12-17.66"/>
              <path class="cls-2" d="M615.28,611.09c-2.44-4.89-4.87-9.79-7.31-14.68"/>
              <path class="cls-2" d="M560.45,491.42c-14.23-2.04-6.63-8.46-14.62-11.75"/>
              <path class="cls-2" d="M536.7,657.35c.61-2.94,1.22-5.87,1.83-8.81"/>
              <path class="cls-2" d="M569.59,495.09c-6.7-.49-13.4-.98-20.1-1.47"/>
              <path class="cls-2" d="M664.62,205.1c.61-2.69,1.22-5.38,1.83-8.08"/>
              <path class="cls-2" d="M1041.07,548.69c-.61-2.45-1.22-4.89-1.83-7.34"/>
              <path class="cls-2" d="M798.02,603.75v-8.81"/>
              <path class="cls-2" d="M1028.28,553.83c1.83-.49,5.08-.91,5.25-1.48,1.06-3.65,1.45-7.33,2.06-11"/>
              <path class="cls-2" d="M670.1,252.09c-.61-1.96-1.22-3.92-1.83-5.87"/>
              <path class="cls-2" d="M558.63,489.22v-5.14"/>
              <path class="cls-2" d="M1315.18,497.3c-1.83.98-3.65,1.96-5.48,2.94,3.05.49,6.09.98,9.14,1.47"/>
              <path class="cls-2" d="M1147.06,501.7c-8.22-1.47-8.22-2.94,0-4.41"/>
              <path class="cls-2" d="M829.09,689.65c-8.22-1.47-8.22-2.94,0-4.41"/>
            </g>
          </g>
        </g>
      </g>
    </g>
  </g>
</svg>