<svg width="491" height="262" viewBox="0 0 491 262" fill="none" xmlns="http://www.w3.org/2000/svg">
<g clip-path="url(#clip0_1245_2105)">
<path d="M382.54 117.444C382.54 117.444 383.21 117.221 383.433 116.662C383.489 116.438 383.657 114.593 383.545 114.258C384.606 114.985 385.834 113.252 386.001 112.302H395.435C397.835 112.693 400.068 113.364 402.524 113.978C407.436 115.208 412.237 117.221 417.484 120.016C417.763 120.127 417.763 120.407 417.763 120.631L418.433 120.016C418.433 120.742 419.438 120.575 418.768 121.301C420.777 120.966 420.722 122.252 421.671 122.922C429.82 128.568 434.174 132.425 439.087 140.922C440.482 143.326 441.208 145.338 442.882 147.63C443.72 148.748 445.562 150.369 445.004 151.599L446.008 150.984C445.841 151.822 446.902 154.002 447.739 153.22V154.17C448.967 153.779 449.693 155.903 450.251 156.406C451.032 157.077 451.758 156.127 452.037 157.077L452.707 156.797C452.986 157.524 456.893 157.915 457.563 157.692C458.066 157.524 458.01 156.797 458.289 156.797C458.568 156.797 459.126 157.189 459.573 157.133C459.685 157.133 461.303 155.512 461.415 155.512C461.75 155.456 462.643 155.847 463.257 155.512L462.922 154.226L464.15 153.891L463.983 153.22L465.043 153.555C464.206 151.431 465.602 151.822 466.383 151.263C466.606 151.096 467.946 147.742 468.225 147.127C468.783 145.953 469.118 143.214 469.23 142.99C469.509 142.599 470.57 142.152 470.849 141.146L470.179 140.642C471.463 140.81 470.291 139.133 471.574 139.357L470.905 138.742L471.965 138.071L470.905 137.736C471.63 137.903 471.63 137.121 471.853 136.45C472.077 135.891 471.853 135.556 471.965 135.5C472.077 135.388 472.802 135.388 472.97 134.941C473.193 134.326 472.635 133.767 472.635 133.376C472.635 133.152 473.249 133.208 473.305 133.04C473.528 132.537 472.133 131.307 474.03 131.587L473.696 129.686L474.365 129.854C473.64 128.848 474.533 129.127 474.589 129.015C474.7 128.848 474.198 127.73 475.37 127.283L474.7 127.003L475.705 123.929L476.375 124.264C476.71 123.761 475.928 121.748 477.045 121.972L476.04 121.357C477.882 121.637 476.431 120.686 476.71 119.624C476.766 119.401 477.38 119.457 477.38 119.289C477.38 118.786 476.822 118.227 477.38 117.5L476.71 117.332L477.38 116.997C477.212 114.761 477.212 112.693 476.375 110.513C475.817 109.003 472.077 102.072 471.072 101.122C470.737 100.786 470.067 100.954 469.732 100.507C469.397 100.06 469.844 99.277 469.732 99.1652C469.509 98.8857 467.611 98.9975 468.002 97.2087L467.332 97.5441C467.667 96.2025 466.606 96.6497 466.048 96.1466C465.267 95.4199 464.318 94.4137 463.48 93.743L462.866 94.0224C463.257 92.2896 462.029 92.7368 461.582 92.2896C461.192 91.9542 460.857 90.1095 459.461 90.0536L459.796 88.8238L458.122 89.1033C458.122 89.1033 458.122 88.4884 458.01 88.2648C457.061 87.035 455.833 86.3642 454.326 85.8611C454.94 84.7432 454.214 85.1345 453.991 84.2401C453.321 84.1842 454.047 84.9668 453.153 84.855C452.93 84.855 452.595 84.4637 452.26 84.5755L452.595 83.6252L451.2 83.9606V83.0103L450.139 83.3457C450.251 82.619 449.916 82.1718 449.19 82.0041L449.469 81.4451L448.576 81.1097L447.739 82.06C447.851 80.0476 446.176 80.7743 445.394 80.383C441.71 78.3706 437.245 77.6439 432.891 76.7496C422.061 74.5136 415.363 73.6751 404.589 77.3645C402.468 78.0911 401.128 79.5445 398.896 79.4886C397.109 79.4886 392.588 77.588 392.476 80.1035L391.974 79.4886L391.081 81.1097L390.076 80.4389C390.076 80.8861 390.076 81.3333 389.908 81.7246C389.35 82.6749 388.066 84.0724 387.787 85.1345C385.778 91.7865 386.448 95.1404 381.926 101.178C381.814 101.289 382.484 101.848 381.48 101.737L382.149 103.022H380.754L381.48 103.525L380.698 105.873H379.693L380.363 106.264L379.693 106.6L380.363 107.55H378.968L379.303 109.507C378.465 109.171 378.354 107.438 377.237 108.724L378.633 110.177L377.628 109.227C377.126 110.904 375.004 111.016 373.497 111.463L373.832 112.413L372.437 112.078V113.028L371.599 112.357L371.432 113.028L370.762 112.413L370.594 113.42C369.366 113.308 368.138 113.475 366.966 113.867C366.296 114.09 366.296 114.537 366.129 114.593C363.84 115.264 359.877 115.32 357.477 116.27C357.253 115.096 356.137 115.655 356.639 116.606L355.467 116.27C354.406 116.885 352.174 117.444 350.89 117.891C349.438 118.339 347.15 118.283 345.977 118.674C344.805 119.065 344.47 120.91 342.907 118.842L342.572 120.127L340.284 119.513L340.005 120.127L339.112 119.848L339.446 121.134L338.777 119.848L338.274 120.463C337.828 120.072 336.935 120.463 336.767 120.463C336.711 120.463 336.767 119.96 336.488 119.904C336.32 119.904 333.585 120.127 333.474 120.183C332.86 120.575 332.804 122.978 330.962 121.19L330.403 121.749L329.399 121.469C329.399 122.755 331.241 122.084 330.794 123.258C330.738 123.481 330.124 123.481 329.901 123.761C329.734 123.984 329.901 125.326 329.287 125.661C328.896 125.885 326.217 125.102 327.278 127.003H326.217L326.887 127.953C326.831 127.171 327.836 127.059 328.059 126.668C328.338 126.276 327.11 125.717 329.622 126.332L329.455 126.947H328.394L327.557 128.904C328.394 129.127 329.008 128.512 329.678 128.401C331.687 128.121 334.758 128.792 336.711 128.568C338.33 128.345 340.786 127.059 342.628 126.947C344.917 126.779 347.82 128.177 350.387 127.618C350.555 127.786 350.276 131.363 350.052 131.866C350.052 131.978 348.489 133.32 348.434 133.376C343.075 136.506 331.073 133.99 324.71 134.326C322.7 134.438 322.979 135.612 321.081 135.332L321.751 135.835C320.746 136.674 320.132 138.015 320.691 139.245H319.63V140.866C320.635 140.363 321.305 141.649 319.965 141.537C320.523 142.208 320.97 141.593 320.3 142.823H321.305L321.361 144.891L322.365 145.114L321.695 146.4L323.091 146.065V147.015L322.086 147.183C322.589 147.294 322.589 149.027 323.091 148.412C323.426 148.021 323.091 147.798 324.152 147.965L323.091 149.251C324.598 149.251 324.263 150.034 325.045 150.872C327.389 150.257 328.952 149.978 331.297 150.984L334.478 161.213C331.241 162.22 327.836 161.605 324.542 162.052C323.817 162.164 323.258 162.667 322.812 162.723C321.807 162.89 319.128 162.331 318.96 163.785L318.29 162.834C318.402 163.785 316.672 163.561 315.778 163.897C314.885 164.232 314.55 165.406 313.099 164.456V165.406L312.429 164.791V165.35C311.089 164.847 310.81 165.741 309.861 166.077C308.912 166.412 307.684 166.244 307.461 167.027L306.233 166.747V167.642C304.893 167.698 305.172 168.928 303.665 169.319L303.833 170.325C303.609 169.822 301.544 171.555 301.488 171.667C301.377 172.058 302.437 173.064 300.707 173.232L301.377 173.567V174.238L300.707 173.903L301.042 175.524L300.372 175.188C300.874 177.033 299.981 178.71 299.702 180.555L300.372 180.834C298.865 182.008 300.149 182.176 300.26 182.455C300.484 183.014 301.265 186.815 301.321 187.374C301.321 187.989 301.042 188.492 301.042 189.051H302.102C301.209 190.225 302.158 190.952 302.326 191.846C302.381 192.293 302.437 193.691 302.437 194.026L303.107 194.194L302.437 194.529L303.051 195.032C303.33 195.759 302.381 195.927 302.437 195.983C302.605 196.374 303.33 196.486 302.772 197.436L303.442 197.101L303.777 199.225L303.107 199.393V199.84C303.107 200.119 303.554 199.84 303.777 200.231C303.944 200.567 304 205.262 303.944 206.101C303.944 206.827 303.275 207.833 303.442 208.504C303.609 209.175 304.168 209.343 304.112 209.958L303.442 209.79C303.721 211.355 303.33 213.647 302.995 215.268C302.661 216.889 301.6 220.355 300.93 222.032C300.818 222.367 298.697 226.727 298.53 226.951C298.418 227.063 297.916 226.839 297.413 227.398C296.799 228.125 295.962 230.529 295.46 231.535L294.79 231.199C294.79 231.479 294.79 231.87 294.567 232.15C294.064 232.764 292.055 233.827 292.334 234.441C292.334 234.441 293.283 233.659 293.004 234.777L290.938 235.448L291.608 235.783C291.441 237.125 289.319 237.292 288.929 237.795C288.873 237.907 289.096 238.69 288.705 239.249C288.315 239.864 286.807 240.479 286.584 241.597L286.082 240.982C286.417 242.323 285.189 241.932 284.519 242.603C284.072 243.05 284.24 244 283.291 243.888L283.961 244.503C282.342 244.503 282.844 245.342 282.732 245.454C279.941 248.416 277.932 250.54 274.583 252.944C269.001 257.025 263.251 259.484 255.659 261.105C253.427 261.553 251.919 261.385 249.966 261.385C249.519 261.385 247.621 262.168 246.84 262.223L246.337 261.609L246.114 262.279C244.83 261.72 242.988 262.279 241.816 262.112C241.09 262 240.811 260.994 240.755 262.112C239.918 261.72 239.192 262.223 238.522 262.223C237.406 262.223 236.848 261.161 236.122 262.223C235.899 261.217 234.838 262 234.057 261.273L233.722 261.944C233.443 260.938 230.875 260.938 229.87 261.273L229.703 260.658L228.642 261.273L228.81 260.602C226.912 260.714 224.567 259.82 222.781 259.093C211.449 254.453 210.277 250.317 207.877 239.808C207.877 239.584 207.374 239.64 207.319 239.472C207.207 238.69 207.988 237.46 206.872 237.684L207.542 237.181C206.649 236.622 206.481 235.504 206.314 234.553C206.202 233.827 207.039 233.771 205.142 233.491L206.202 233.156C206.314 232.429 205.476 231.926 204.807 231.87L205.476 231.088L203.746 229.97L204.416 229.466L203.299 228.348L202.295 228.628C202.685 227.734 201.122 227.119 200.229 227.007L201.625 226.392C201.178 226.112 200.341 226.392 200.118 226.392C200.006 226.392 198.555 225.777 198.443 225.721C197.494 225.274 197.662 224.156 196.043 224.491C195.764 224.547 195.819 224.995 195.54 225.106C188.116 227.622 180.804 230.361 173.547 233.212C156.689 239.808 130.453 238.69 115.94 228.125L112.926 226.392L136.538 227.398C138.715 227.23 137.989 226.392 138.324 226.057C138.715 225.721 139.496 225.889 139.664 225.106C139.999 226.28 140.166 226.56 141.562 226.392C141.394 225.609 141.673 224.827 140.501 224.771V224.436C141.617 224.436 141.45 223.262 141.562 222.479H142.957L142.79 221.193L141.283 221.529L140.892 222.814L140.501 220.411L141.562 219.908L140.166 220.131C139.775 220.746 140.668 221.808 139.496 221.529C139.496 218.79 138.157 219.46 136.426 218.79C135.31 218.342 134.361 217.672 133.523 217.113C133.3 216.945 132.909 217.057 132.574 217.001L133.244 216.386L132.407 216.051L131.905 217.001L132.24 215.38C130.342 215.044 132.016 216.777 130.174 216.33C130.453 214.485 129.448 215.1 128.946 214.765C128.165 214.15 128.779 213.423 126.713 214.094V212.808L126.378 213.423H125.709C125.764 212.641 125.039 212.529 124.313 212.473L124.648 211.858H122.973C123.141 209.958 118.396 210.181 119.512 208.337C117.894 208.728 117.168 207.498 115.94 206.995C109.52 204.368 103.994 204.2 97.4632 202.635C90.3181 200.958 85.685 199.952 78.2608 198.945C73.9068 198.386 69.1062 195.368 64.9754 193.97C64.0265 193.635 60.9005 193.803 63.6915 192.014C63.7474 192.014 65.1429 191.343 65.2545 191.287C66.7617 190.896 68.7712 190.784 70.3342 190.561L70.5017 189.61L71.5065 190.281L71.8414 188.828L69.776 188.492C71.1157 188.101 71.339 187.598 71.8414 186.424L70.4459 186.089C70.2784 187.095 71.0599 188.38 69.3853 188.045L70.0551 187.095L68.9945 187.262C69.7202 186.144 67.4874 185.082 67.9339 186.759L66.5942 186.256L67.599 185.138L66.4268 185.474L66.0918 184.859L64.8638 185.138L65.0312 185.809L63.4683 185.138C63.4683 184.579 64.0265 184.412 64.3056 184.188C64.6405 183.909 64.1381 183.573 64.0265 183.573C63.4683 183.461 63.1892 184.3 62.6868 184.412C61.2913 184.635 59.0584 184.244 57.6629 183.909L57.8304 184.579L56.6023 184.244L56.7698 184.915C55.4301 184.803 54.9277 184.691 54.3695 185.865L54.0345 185.194C53.2531 186.368 51.3551 185.138 51.8017 186.815C51.2435 186.983 51.5784 186.368 51.411 186.256C51.2435 186.2 50.7969 186.368 50.462 186.2V187.095C48.8432 186.815 48.3966 188.045 47.9501 188.325C46.4429 189.107 40.3584 190.505 38.5164 190.393C38.3489 190.393 38.4047 190.896 38.2931 190.896C37.9581 190.952 37.7349 190.728 37.1208 190.952C34.5531 192.014 32.9343 199.504 32.3202 201.964C31.5946 200.455 31.2038 198.498 30.8689 196.877C29.8083 191.958 29.2501 187.095 26.794 182.623C26.6823 182.399 26.1241 182.343 26.0683 182.232C25.9008 182.008 26.4032 180.275 26.3474 179.94C26.3474 179.716 25.6217 179.772 25.6217 179.548C25.6217 179.213 26.0125 178.766 25.9008 178.542C25.9008 178.43 24.4495 177.201 24.3937 176.865C24.282 176.474 24.4495 176.083 24.617 175.691L23.9471 175.859L24.282 174.238L23.2773 174.573C24.2262 173.288 23.054 172.896 22.7749 172.002C22.5516 171.387 22.3283 169.766 22.2167 169.487C22.2167 169.431 21.3794 169.263 21.2677 168.648L21.9376 168.201C20.6537 168.201 21.1561 166.188 19.8722 166.412C19.5373 165.853 19.5931 163.729 19.314 163.338C18.2534 161.884 18.9232 162.22 18.6441 161.717C18.5883 161.605 17.9185 161.381 17.6394 160.99C17.0812 160.263 17.4161 159.76 17.1928 159.257C17.0253 158.866 16.5229 158.866 16.4113 158.642C16.0764 158.027 16.0764 157.245 15.3507 156.797L16.0206 156.294C15.3507 156.294 14.4576 155.12 14.2343 154.561C13.6761 153.388 13.6761 150.537 11.8898 150.76C12.5597 149.53 11.8898 149.698 11.5549 149.251C10.6618 147.798 10.6618 147.742 10.4385 146.456C10.3827 146.121 9.82445 145.897 9.71281 145.617C9.37788 144.835 9.54534 144.108 8.42893 143.493L9.09878 142.99C7.42415 142.878 8.93131 140.866 7.20087 141.09C7.47997 139.077 5.35878 138.351 6.02863 136.562H4.96804C5.63789 135.779 4.74475 136.003 4.63311 135.723C4.35401 134.717 4.80057 134.438 3.7958 133.152C3.57252 132.872 3.07013 133.152 3.23759 132.705L3.90744 132.537C3.34923 132.146 3.57252 131.419 3.34923 131.084C3.23759 130.916 2.67938 130.86 2.56774 130.692C2.40028 130.469 2.4561 127.786 2.4561 127.338C2.4561 127.171 0.502369 125.941 2.17699 124.599C0.669832 124.543 1.61879 122.419 1.50714 121.581C1.45132 121.022 0.948936 120.631 0.893115 120.183C0.446549 117.5 -0.0558388 114.761 -0.16748 112.078C1.28386 112.078 2.67938 111.575 4.0749 111.407C5.02386 111.295 6.36356 111.631 7.14505 111.407C7.47997 111.295 7.36833 110.792 7.36833 110.736C7.59162 110.625 7.87072 111.239 8.20564 111.239C8.42893 111.239 10.4943 110.736 10.1036 110.066L10.7734 110.68C10.7734 109.618 12.0573 109.507 12.9504 109.73C13.2295 109.786 13.1179 110.401 13.3412 110.401C13.8435 110.401 14.1227 109.786 14.5692 109.898C14.96 110.01 15.8531 110.848 16.4671 110.68C16.6904 110.68 16.5229 109.786 17.5277 110.066C17.8626 110.177 17.4719 110.848 18.0301 110.736L18.1976 110.121C18.8674 111.295 20.9328 110.121 20.8212 111.407L21.3235 110.792C21.9934 111.239 22.6632 111.239 22.1609 112.078L22.8307 111.854L22.9982 111.128L25.3985 112.413L25.7334 111.743C27.408 112.19 29.3059 113.14 30.9247 112.413L31.2596 113.028L32.4319 112.693L32.5994 113.643L32.9343 113.028C33.7716 113.308 34.6089 113.42 35.502 113.531C36.3952 113.643 37.4558 113.587 38.3489 113.755C40.4701 114.09 43.3169 115.32 45.4381 114.649L45.6056 115.264L46.108 114.649C46.8337 115.488 47.5593 114.482 47.336 115.935C48.6199 114.985 49.4014 115.935 50.6295 115.6L50.462 116.27C52.1925 115.655 53.1972 116.214 54.7602 115.935L54.9277 116.885L55.8208 116.606L55.9883 117.221L56.8256 116.27L57.6629 116.606C57.1047 117.332 58.0536 117.165 58.0536 117.836L58.556 116.885C59.0584 117.891 60.119 117.165 60.3981 117.277C61.8495 117.836 61.2913 117.388 62.631 117.612C64.473 117.947 66.4826 119.624 68.548 118.45L68.7154 119.401L69.2178 118.73L69.6086 119.401H74.5766C74.2975 118.898 74.3533 118.395 75.079 118.395V119.401C76.1954 120.742 77.3677 119.513 77.87 119.513C78.205 119.513 78.4841 120.239 79.0423 120.072V119.289C80.8285 117.947 81.7775 119.96 83.5079 119.792L82.8381 118.506L83.8429 118.674L83.5079 119.457L84.8476 119.736L85.2384 119.121V119.68C86.0757 120.239 86.7456 118.115 87.3038 120.072L87.9736 119.904L88.3085 119.065C88.3085 119.065 88.7551 119.96 89.5924 119.96C90.039 119.96 90.3181 119.624 90.5972 119.345L90.9321 120.016L92.4951 119.345V120.295C94.4488 120.072 94.8954 121.413 96.6258 121.637L96.7933 120.686C97.9097 121.413 97.4632 121.916 97.2957 122.922C98.0772 122.475 98.4679 122.307 99.3611 122.587L99.696 121.916L100.198 123.761C101.929 122.922 101.594 124.096 102.766 124.655C103.436 124.991 104.832 125.326 105.78 125.661C112.144 128.121 118.787 129.966 125.15 132.425C129.337 134.046 133.579 136.674 137.654 138.183C142.734 140.083 156.354 141.705 159.145 146.176C159.648 147.015 160.15 148.636 160.317 149.642C160.541 150.76 159.536 151.543 161.155 152.325C161.657 152.605 162.327 152.102 162.662 152.214C162.941 152.27 162.774 152.884 163.388 152.884C164.392 152.884 164.895 152.27 165.397 152.27C165.676 152.27 166.848 152.94 167.183 152.773C167.518 152.605 167.407 152.046 167.909 151.878C168.579 151.655 169.584 152.214 169.416 151.207L170.086 151.822V151.207L171.482 151.487L171.147 150.872C172.486 150.648 174.273 150.704 175.11 149.586L175.612 150.201L175.947 149.027L176.952 149.195L177.343 148.58L177.51 149.251L179.576 147.965L179.408 148.748L180.078 148.916C180.078 147.853 182.032 145.785 183.204 146.68L183.706 145.059L184.209 146.009V144.723L186.274 145.059C185.716 143.717 187.446 144.332 187.893 143.102C189.568 143.773 188.786 143.102 189.568 142.487C190.182 141.984 191.242 142.096 191.131 141.201H191.8L191.968 141.816C194.033 141.425 193.922 139.133 195.931 139.86V139.021C197.048 139.301 197.996 137.456 198.443 137.009C198.778 136.674 200.397 136.897 199.392 134.997C199.783 134.997 200.118 135.22 200.564 135.22C201.96 135.164 201.122 134.605 201.234 134.438C201.346 134.27 202.797 133.32 203.076 132.984C203.355 132.649 203.299 132.034 203.579 131.699C204.137 130.972 205.476 130.692 205.309 129.519L205.979 130.133V128.848L206.649 129.183L206.314 128.233C207.653 127.786 208.77 125.661 209.049 124.32L210.445 124.655L210.11 123.537L210.779 123.705L209.328 122.307C206.481 121.245 197.885 120.686 194.759 120.91C194.145 120.91 189.233 122.922 188.451 123.314C186.051 124.599 184.823 126.556 183.036 128.121C179.241 131.419 176.338 133.152 174.105 138.015C173.491 139.357 173.826 140.754 173.324 142.152C172.877 142.152 171.593 136.226 171.482 135.5C170.588 129.798 169.472 124.599 175.78 121.525C183.316 117.891 198.052 118.618 206.481 118.898L211.282 122.084L213.738 120.854L213.236 120.239H214.575L214.966 118.618L215.301 119.289L215.803 118.954C216.306 116.55 215.692 114.202 216.306 111.854C217.366 111.687 217.924 112.581 218.762 112.972C219.432 113.308 220.66 113.364 220.995 114.426C221.776 116.997 221.944 120.91 222.167 123.649C222.223 124.432 223.06 124.488 222.167 125.885C223.339 126.165 222.279 127.394 223.227 128.456L222.502 128.96L223.507 129.463L222.502 130.077L223.562 131.028L222.167 132.034L222.893 133.431C221.888 133.32 222.558 133.823 222.446 133.99C222.39 134.102 221.497 133.99 222.167 134.885L221.553 135.22C219.934 142.04 213.515 149.419 207.319 153.891C206.816 154.226 206.258 154.617 205.644 154.729L206.314 155.232L204.416 156.686L203.913 156.071C203.913 157.468 201.848 157.412 201.234 158.083C200.006 159.481 198.611 160.04 196.601 161.213C196.043 161.549 195.931 162.387 194.591 162.164L194.926 163.393C194.591 163.505 194.145 163.617 193.866 163.897C193.363 164.456 192.47 165.797 192.024 166.244C191.41 166.859 189.958 167.418 191.465 168.089L190.405 169.99L191.131 170.325L190.461 170.493C190.796 172.002 191.354 173.847 190.796 175.356H192.526C192.638 175.971 191.968 175.58 191.856 175.691C191.633 175.915 194.926 179.828 195.987 178.878V180.163L198.89 180.499L199.448 179.828C199.504 180.61 200.508 181.169 200.676 180.163C201.178 180.387 200.955 181.393 202.071 181.114L201.904 180.163L202.909 181.114C202.63 180.219 204.472 180.387 204.472 181.114C205.365 179.996 207.095 180.946 208.323 180.555C208.937 180.331 209.384 179.548 210.724 179.548L211.226 180.163C211.617 177.815 214.687 179.716 214.687 177.257L215.357 178.207C215.468 177.704 216.138 176.194 216.362 175.859C216.529 175.635 218.818 173.176 218.985 173.064C221.609 171.331 226.633 171.667 229.647 171.108L230.707 173.064L231.936 172.114C231.489 172.896 231.712 173.455 232.773 173.455L233.331 172.785C233.164 173.679 233.443 173.735 234.224 174.07C235.229 173.288 234.95 172.729 235.229 171.778C236.736 167.251 240.978 150.537 244.774 148.077C245.556 147.574 246.728 147.518 247.398 146.624L248.403 147.239L248.626 146.288H249.631L248.961 145.003L250.356 143.885L249.687 144.052C249.017 140.587 245.444 137.68 242.932 135.22C240.811 131.699 236.904 129.127 233.833 126.332C236.569 125.773 236.959 126.779 238.69 127.73C241.983 129.519 245.277 131.195 248.179 133.543L257.446 142.487L257.613 141.201L258.618 141.537L257.948 142.152C259.678 141.928 263.139 142.934 263.139 140.531L264.144 140.866L264.312 139.916L265.54 140.531C265.205 140.028 264.591 139.245 263.977 139.86L263.809 139.245H266.21C266.21 138.462 266.265 138.351 266.935 138.127L266.265 137.792L267.605 136.953L267.326 136.059L268.275 135.5C267.549 134.382 268.442 133.655 268.498 132.928C268.554 132.146 266.879 130.022 267.27 129.574C267.717 129.742 269.335 129.127 269.335 128.736C269.335 127.786 268.442 128.065 270.005 127.003L268.945 126.053L270.675 126.388L270.005 125.885L270.675 125.55L270.34 124.096C269.224 125.55 269.559 124.655 268.498 124.767C266.656 124.991 265.484 125.494 263.809 125.997C264.423 124.879 265.149 123.761 265.875 122.699C266.042 122.475 267.438 121.19 267.493 121.078C267.605 120.798 267.158 120.072 267.884 119.736C267.884 119.233 265.261 119.065 265.875 118.283C265.986 118.171 266.656 118.506 266.544 117.947C266.154 117.556 264.87 117.332 264.814 117.277C264.814 117.277 265.149 116.718 265.093 116.494C264.981 115.991 264.256 115.991 263.977 115.655C263.753 115.32 264.758 114.817 262.972 114.985L262.414 115.655C262.414 114.929 262.749 114.09 261.8 113.978L262.079 113.42L260.683 114.034L259.79 112.413L258.953 113.028L258.618 111.407C257.557 112.469 257.501 111.407 256.441 111.407C255.715 111.463 254.264 112.302 253.427 112.469C250.915 113.084 248.403 113.196 246.002 113.587C245.277 113.699 242.486 115.152 242.039 114.034C241.816 113.587 244.16 112.581 244.216 111.743C248.291 108.836 251.64 106.097 254.431 102.184C254.822 101.681 255.659 102.407 254.431 101.01L255.436 101.345L255.771 99.3888L256.832 99.6124C257.278 99.3329 257.557 97.4323 257.892 96.7615C258.506 95.5317 259.567 96.5379 259.232 95.364L258.562 94.8609C260.293 95.0286 259.734 93.8547 260.181 93.0163C260.516 92.4014 261.297 93.0163 260.683 91.7306C262.135 91.507 261.353 90.7244 261.409 90.5567C261.521 90.2772 262.47 90.2213 262.023 89.1033L262.693 89.6064C263.028 88.9356 263.418 88.3207 263.809 87.7058C264.088 87.2027 264.423 86.1965 264.647 85.5817C264.702 85.3581 265.261 85.0786 265.149 84.9109C265.037 84.7991 264.312 85.1345 264.479 84.5755L265.93 83.5134L268.275 73.7869L267.549 73.6192L268.275 73.1161C268.107 65.7933 266.544 58.5264 265.037 51.3154C264.535 49.0235 264.144 46.6198 263.53 44.328C263.084 42.651 262.916 42.3715 262.023 41.1417C261.688 40.6945 260.739 38.9057 260.627 38.8498C260.46 38.738 257.948 39.8001 258.562 37.5083L257.557 37.8436L257.892 36.8934H256.72L256.162 37.5083C255.883 35.8313 253.594 36.6698 252.533 35.5518L252.198 36.1667C251.361 35.999 249.407 35.7195 248.682 36.0549C247.789 36.3903 244.328 41.1417 243.267 41.9243C241.481 42.2597 240.755 43.769 239.136 44.6634C236.792 45.949 232.605 47.1788 229.926 46.3403C229.312 46.1726 224.735 43.4336 223.953 42.9305C222.111 41.7566 220.325 39.9678 218.371 38.7939C217.422 38.2349 216.194 37.3965 215.078 37.5083L215.413 36.8934L213.515 36.558L213.347 37.5083L212.845 36.8934C211.449 37.3406 211.393 38.3467 209.719 37.5083C209.44 38.4026 208.547 37.7877 207.653 38.5144L207.319 37.8436L207.151 38.7939C206.649 38.9616 206.872 37.5083 206.146 38.179C205.756 38.4585 205.7 41.3094 203.355 40.415L203.69 41.3653C202.183 41.7007 202.909 42.2597 203.02 43.3218H201.96L202.071 44.2162L202.685 44.4398C201.625 44.6634 202.183 45.3342 202.071 46.1726H202.685L202.016 46.8993L202.685 47.2347C201.457 47.2347 202.016 48.9676 201.681 49.8061L202.685 49.6384L201.681 50.7564L202.35 50.5887C201.625 51.6508 203.523 51.3154 202.016 52.8247L202.685 53.3278L203.02 52.3775C203.076 52.9365 202.741 53.4954 202.853 53.9985C203.299 56.1227 204.472 58.0233 205.309 60.0357C205.811 61.2655 205.476 62.9983 207.151 63.3337L206.481 63.9486H207.095C206.705 64.6753 207.263 64.5076 207.374 64.6753C207.765 65.3461 208.1 66.6877 208.491 67.3585C209.328 68.9237 210.612 70.2093 211.003 71.9981L211.505 71.3273L211.673 72.2776L212.342 71.9422C211.617 73.2838 212.789 72.9484 213.012 73.2838C213.068 73.3956 212.566 73.9546 212.845 74.5136C213.068 74.9608 215.022 76.9732 215.803 76.8055L215.133 77.3086C216.306 78.7619 217.813 79.9917 219.097 81.3892C223.339 85.917 228.028 90.2213 232.773 94.4137C235.452 96.8174 240.141 100.004 242.262 102.631C242.541 102.966 242.932 103.022 242.765 103.581C241.258 103.022 239.471 103.134 237.908 102.799C235.955 102.296 232.382 100.227 230.093 99.4447C228.977 99.1093 228.084 98.6062 226.856 99.0534L226.521 98.4385C225.963 99.3888 226.8 99.5006 226.856 100.395C225.851 99.5006 225.349 100.563 223.953 99.7242C223.618 100.674 221.162 100.507 222.055 102.016L221.05 101.345L220.716 102.631L219.711 101.681L219.878 102.687C218.762 103.358 218.371 103.581 217.31 102.687L216.808 103.973L215.58 103.358C216.027 104.979 217.925 103.917 217.98 103.973C218.315 104.308 217.757 105.202 219.767 105.705C220.604 105.929 221.832 105.705 222.167 106.208C216.641 106.376 211.561 106.544 206.314 104.699C198.945 102.128 189.568 92.2337 185.604 85.9729C184.544 84.2401 183.148 80.6066 182.143 79.3209C181.864 78.9296 181.027 79.1532 180.748 78.6501L181.418 77.9793L179.017 76.8614L179.352 75.5757L178.738 75.8552C178.627 75.1285 178.013 75.0167 177.287 74.9608L177.566 74.4577L176.785 73.9546L176.282 74.9049C176.673 73.3956 175.11 73.9546 174.663 73.5074C174.44 73.2838 174.552 72.6689 174.273 72.4453C173.994 72.2217 172.486 72.8366 171.984 71.9981L171.482 72.613L172.151 72.9484L170.086 73.2838V74.2341L169.36 73.6192L168.635 75.5757L167.239 74.9049L166.569 77.4762H165.174C165.676 78.4265 164.727 78.7619 163.778 78.7619L164.448 79.7122L163.053 80.0476L163.722 80.6625L162.662 80.8302C163.388 81.8923 162.55 81.501 162.215 82.0041C156.242 89.8859 152.112 96.5938 142.287 101.122C129.951 106.767 118.229 109.562 104.162 109.395C103.157 109.395 100.198 109.954 99.8635 109.898C99.3611 109.898 98.8029 109.395 98.3563 109.395C98.2447 109.395 97.9097 110.345 96.9608 110.066L97.1282 109.395H94.7279L95.7885 110.68C94.1697 111.184 94.5047 109.674 93.3882 109.73L93.7232 110.68L92.3276 111.016L91.9927 109.395C90.8205 110.513 90.7647 109.618 89.8157 109.507C89.2575 109.451 88.3085 109.451 87.7503 109.451C86.7456 109.451 85.5733 109.339 84.3453 109.003C82.9497 108.668 81.8891 107.83 80.2703 108.109C80.2145 107.55 81.0518 107.83 81.4984 107.774C82.3357 107.774 83.2288 107.774 84.0662 107.774L83.8429 107.215L84.4011 106.991C84.0662 105.985 84.1778 105.482 83.0614 105.035L83.7312 104.699L82.3357 104.196L82.6706 103.246L80.6053 103.414C80.2703 101.625 79.8796 102.184 79.2097 101.737C78.9865 101.569 78.9306 101.122 78.819 101.01C78.7074 100.898 78.205 101.289 77.7584 101.233C69.7202 99.5565 61.1238 101.345 52.9739 97.8795C49.5689 96.4261 47.8384 94.805 45.4381 92.1778C45.4381 92.1778 45.7731 91.7306 44.8799 91.0598C44.6008 90.8362 43.4286 90.8921 43.317 90.8362C43.2611 90.8362 43.1495 89.9418 42.2005 90.2772L42.8704 89.6623L41.6423 88.9915L41.4749 89.6064H40.805C40.4701 88.7679 39.577 87.7617 38.5722 87.9853L38.7396 87.3145C37.1208 88.2648 37.065 85.8052 36.5626 85.4139C35.502 84.5196 33.1576 85.8611 32.097 86.3642C26.5149 88.7679 20.7095 93.0163 15.2949 95.9789C14.2901 96.5379 11.9456 97.5441 10.7176 97.4323C13.2295 95.5876 15.0716 92.9604 17.4161 90.948C23.7797 85.3022 32.1528 80.383 37.065 74.1223C37.2325 73.8987 39.2978 72.5571 39.7444 72.4453L38.7396 71.8304C40.5817 71.8863 40.191 70.936 40.5259 70.6006C40.6934 70.4329 41.1958 70.6006 41.3632 70.4329C41.8098 70.0416 41.9214 69.2032 42.8704 69.2591L42.2005 68.756C43.4844 68.3647 43.4286 68.0293 44.0984 66.9672L44.4334 67.638L45.2707 66.8554L44.6008 66.3523C45.9405 66.5759 46.0522 65.7374 46.5546 65.402C46.8895 65.1784 47.6152 65.1225 47.671 65.0666C47.7268 65.0107 46.6662 63.3896 48.7316 64.1163C48.0059 63.1101 49.4014 62.3275 50.462 62.1598L50.1271 61.545C51.6342 61.6567 52.1366 61.0978 53.1414 60.1475C54.7044 58.6382 56.4907 57.073 58.8351 55.3401C59.2259 55.0606 61.0122 54.3339 61.1796 54.1103L60.9005 53.5513C63.0775 52.7688 64.5847 50.5328 66.7617 49.9738L66.4268 49.3589C66.7617 49.3589 67.0966 49.3589 67.4315 49.1353C74.5766 44.3839 81.6659 40.3032 89.4808 36.1667C96.8491 32.3096 106.953 27.3905 115.661 26.3843C124.369 25.3781 135.924 24.316 144.688 25.7135C145.246 25.8253 146.027 25.3781 145.86 26.2166L138.771 28.2849C124.927 30.2413 111.753 34.6015 99.8635 41.3094C93.779 44.7193 88.1411 49.3589 83.3405 53.6072C82.8939 53.9985 81.7775 53.719 82.3357 54.7252H81.3309L81.6659 55.396C79.6563 54.7252 79.2097 56.9053 78.205 57.7997C77.6468 58.2469 76.3629 58.5823 75.9163 59.0295C75.5814 59.3649 75.5814 60.0916 75.4139 60.2034C75.1348 60.3711 74.4091 60.0916 74.13 60.3152C74.0184 60.3711 74.13 60.8183 73.9068 61.0978C73.0694 62.3834 71.6181 62.607 70.3342 64.0045C69.2736 65.1784 68.6596 67.5821 66.8175 67.6939L67.1524 68.6442H66.3151C65.7569 69.2032 65.9244 70.2652 65.7011 70.4888C65.5336 70.6565 64.9754 70.5447 64.7521 70.7124C64.1939 71.1037 64.7521 72.1658 63.3566 71.8304L64.0265 72.1658V72.7807L63.1333 73.0602C63.6357 74.4018 62.0727 73.7869 63.0217 75.1844L62.296 75.3521L62.9659 76.3024H61.9053C63.0775 77.588 61.5145 78.9296 62.5751 79.7122C61.068 80.1035 62.8542 81.6687 62.8542 82.619C62.8542 83.1221 62.4635 83.6252 62.5193 84.1842C62.5193 84.4078 63.1333 84.4078 63.3566 84.7991C63.5799 85.3022 63.245 86.3083 63.3566 86.5319C63.4683 86.6996 65.5336 87.9294 63.5799 87.3145L63.245 88.0971L65.0312 90.1654L65.6453 89.8859L64.6405 91.507C66.3151 90.7244 66.0918 91.8424 67.3757 91.8424L66.7059 92.7927C67.2083 93.0722 68.3247 92.7927 68.6038 92.8486C73.4044 93.9666 76.1954 93.184 81.2193 92.2337C82.7823 91.9542 83.6196 91.7865 85.0151 91.2834C86.1873 90.8921 87.2479 90.0536 88.476 90.5008V89.5505C89.1459 89.9977 91.3229 89.271 91.267 88.6002L91.9369 89.2151C91.8811 88.0971 92.83 88.6002 93.165 88.4884C93.4441 88.3766 93.165 87.4822 94.5047 88.2648L95.2861 87.3145L96.2909 87.594C96.7375 86.6996 98.2446 87.5381 98.5238 85.7493L99.3611 86.0288L99.5285 85.0786L100.533 86.0288C101.203 84.1283 104.162 83.9606 105.725 83.2339C107.288 82.5072 108.739 81.4451 110.134 80.8861C110.637 80.6625 111.474 80.8861 111.586 80.7184C111.921 80.4389 111.586 79.9917 111.586 79.9358C111.977 79.6004 113.428 79.9358 113.26 78.9296L113.93 79.5445C114.098 77.8116 116.61 79.3768 116.386 77.3086L117 77.588L118.117 76.0229L118.284 76.6937H118.954C118.954 76.6937 120.629 75.0726 120.852 74.9049C121.466 74.4577 122.303 74.7372 122.694 74.4018C123.197 74.0664 123.141 73.5633 123.252 73.4515C123.587 73.0602 123.476 74.5695 124.257 74.1223C124.201 73.3397 124.927 72.3894 125.653 72.054C126.378 71.7186 127.271 71.8863 127.495 71.7745C127.774 71.6627 128.834 70.6006 129.169 70.4888C129.504 70.377 130.007 70.6006 130.063 70.4888C133.523 66.4641 136.761 61.6567 139.664 57.073L142.343 53.4396C143.069 53.3278 142.901 53.719 142.845 54.2221C142.455 56.3463 141.897 58.4705 141.729 60.5947C141.729 60.986 141.394 61.1537 142.008 61.489L142.678 60.8742L143.515 61.1537L144.241 59.2531L144.911 59.868V57.9115L145.971 58.5823L146.139 56.9612H146.976C146.865 55.4519 148.763 53.6631 149.377 52.5452C149.879 51.6508 149.767 49.0794 151.107 48.9117L150.102 48.5763L151.163 47.1229L150.437 46.3403H151.442C151.609 45.7813 150.884 46.1726 150.772 45.8372C150.66 45.3901 150.66 43.8808 151.442 43.9367L150.381 42.651L151.107 42.3156L150.772 40.9181L151.442 40.7504L150.828 40.5268C151.442 39.6324 149.488 38.5144 151.107 38.6262L150.437 38.2908C151.833 37.1729 149.6 36.8375 151.107 36.558L150.102 35.2723C150.549 34.881 151.051 34.0984 151.107 33.5953C151.163 33.0922 150.158 33.3158 150.549 32.0301C150.549 31.8624 151.051 31.8624 151.051 31.8065C151.107 31.5829 150.772 31.1916 150.884 30.8003C150.995 30.2972 151.721 29.9059 151.777 29.4029C151.833 28.8439 150.94 28.1172 151.163 27.3346L151.833 27.9495C152.893 26.2166 152.67 23.1421 154.233 21.7447C154.456 21.577 158.978 20.2354 159.703 20.0118C160.931 19.6764 162.271 19.4528 163.555 19.2851L163.22 18.6702L164.727 19.0056C165.006 18.782 165.899 17.8317 166.011 17.7758C166.123 17.7199 166.737 18.1112 167.183 18.0553C168.97 17.8317 170.198 16.7696 171.761 16.2106C173.603 15.4839 175.78 15.1485 177.622 14.4218C177.789 14.3659 178.403 13.248 178.627 13.248C179.241 13.1921 179.631 13.5275 179.966 13.5275C180.078 13.5275 180.413 12.4095 181.473 12.7449L181.139 12.2418C181.418 11.2915 182.088 11.9064 182.869 11.9064L182.534 6.42824C183.26 6.42824 183.93 6.42824 184.599 6.59594C187.335 7.32263 191.298 9.5027 194.089 10.6207C195.038 11.012 196.322 11.4033 197.382 11.571L197.048 12.1859C198.443 11.571 197.885 12.2977 198.331 12.5213C199.001 12.8567 200.508 13.3039 201.122 13.6952C203.355 15.0926 205.421 17.8876 208.156 18.1671V18.9497H209.105C208.714 20.6826 210.556 20.5708 211.282 21.1857C214.799 23.9247 218.315 26.7756 221.999 29.347C223.395 30.2972 225.014 30.8003 226.242 32.1419L226.912 31.4711L227.749 32.1419L228.084 31.1916C227.861 32.5891 228.586 32.1978 229.647 31.9183L230.149 33.4276H232.215L230.484 33.1481C231.656 31.6388 233.778 34.2102 235.341 33.4835L235.173 34.4338L236.066 33.4835L237.071 34.4338V33.4835L237.573 34.4338L238.132 33.1481C239.974 33.5953 241.704 32.5891 243.1 31.527C245.891 29.4588 252.422 21.3534 253.427 18.3348C253.538 17.9435 253.203 17.4404 253.315 17.3845L254.32 17.7199C254.041 16.2106 255.659 15.9311 254.99 14.8131L255.994 14.6454C255.436 13.6951 256.106 13.9746 256.329 13.5834C257.557 11.2915 259.344 7.43443 260.683 5.47795C260.795 5.36615 261.074 5.03076 261.186 5.14256L261.521 6.87544L262.19 7.04313C262.302 5.53385 264.479 6.87544 263.698 5.08666L264.87 4.75126C264.814 0.614714 264.87 -0.391474 269.559 -0.000178583C272.127 0.223419 275.141 1.06191 277.541 1.9004L278.044 1.22961C277.932 2.34759 279.272 1.7886 279.886 2.0122C285.133 3.57738 290.938 4.69536 295.795 7.76982C298.865 9.7263 301.823 13.248 305.34 14.2541C305.954 14.4218 306.68 14.2541 307.238 14.7572L307.74 14.1423L307.908 15.0926L308.745 14.4218C309.024 16.3224 310.643 15.3721 311.704 15.428C311.871 15.428 311.815 15.9311 312.373 16.0988C313.155 16.3224 314.104 15.5957 313.936 16.6578C314.606 16.7696 314.104 15.8752 314.271 15.7075C314.271 15.7075 314.941 16.0988 315.555 15.8193C316.169 15.5398 316.392 14.8131 316.895 14.4777C324.989 9.6145 334.311 8.77601 343.8 9.6145C346.815 9.894 349.55 11.6828 351.783 13.1921C359.598 18.2789 366.687 25.0986 371.934 32.2537L372.604 31.9183C372.604 32.9804 373.888 34.3779 374.725 34.9369C375.06 35.1605 375.618 35.0487 375.73 35.1605C375.73 35.1605 375.395 35.6636 375.563 36.1108C375.73 36.4462 376.4 36.8375 376.511 37.3965L377.126 37.117C377.349 37.6201 377.293 38.5703 377.572 38.9616C378.465 40.3032 379.637 41.5889 380.307 42.9864C380.642 43.6572 380.531 44.7193 380.698 45.0547C380.865 45.446 381.535 45.3901 381.647 45.7254C381.814 46.2844 381.256 47.3465 381.312 47.4024C381.424 47.5701 381.982 47.4024 382.149 47.9055C382.261 48.185 382.54 49.9738 382.261 50.3651H383.322C383.154 50.7005 383.098 50.98 383.154 51.3154C383.377 52.9924 383.88 53.9985 384.382 55.3401C384.717 56.1786 384.661 58.8618 385.052 59.4767C385.275 59.868 385.722 59.6444 386.113 59.7003L385.443 60.3152H386.503C386.28 60.8183 386.224 61.3772 386.336 61.8803C386.503 63.0542 386.838 64.3399 388.234 63.8368L387.564 64.6194L388.625 64.7871C388.792 65.5697 388.513 65.3461 387.955 65.5697L388.29 66.6877L389.964 66.4082L390.355 68.6442L393.425 68.3647L392.42 69.9857C393.314 69.7062 394.095 70.3211 394.318 69.3149H395.211L395.379 69.9857C396.942 68.756 400.18 66.4082 402.189 66.0169C403.25 65.7933 404.366 66.2405 405.371 66.1287C409.167 65.7374 409.669 65.1784 414.023 65.1784C419.382 65.1784 422.117 66.0169 426.806 66.4641C429.095 66.6877 431.774 66.1846 434.007 66.4641C435.458 66.6318 436.463 67.5821 437.635 67.8616C438.696 68.0852 440.65 67.5821 441.822 67.8616C447.013 69.0914 451.87 71.7745 456.838 73.0602C461.806 74.3459 464.318 76.4142 468.281 78.9855C469.118 79.5445 470.793 79.9358 471.407 80.4389C472.858 81.6687 473.137 83.737 474.086 85.0227C475.203 86.6437 477.491 88.3207 478.552 90.3331C480.673 94.3578 481.008 97.7677 482.013 101.904C483.073 106.208 486.869 111.687 487.372 115.935C487.539 117.221 486.981 118.842 487.204 120.239C487.427 121.469 488.321 123.09 488.544 124.432C488.711 125.438 487.986 126.388 489.102 127.562L488.432 127.394V128.065C489.549 127.953 488.99 130.413 489.102 131.084C489.214 131.754 489.772 132.817 489.939 133.711C489.939 133.99 490.163 136.338 490.051 136.394C489.884 136.562 489.27 136.226 489.437 136.73H490.498C490.777 137.68 489.772 137.065 489.772 137.847C489.772 139.021 490.442 140.642 490.442 142.04C490.442 143.158 490.163 144.5 489.772 145.562L490.498 145.897L489.828 146.4L490.498 146.568C488.879 147.071 490.051 148.245 489.995 148.804C489.939 149.698 489.381 151.207 489.214 152.102C489.046 152.829 489.884 153.555 488.432 154.338L489.102 154.841C489.102 154.841 488.6 154.785 488.488 155.009C488.265 155.4 487.651 158.922 487.539 159.089C486.367 160.543 487.316 159.816 486.981 160.822C486.088 163.449 484.636 164.847 482.906 167.027C482.404 167.642 482.348 168.592 481.566 169.263C481.12 169.598 480.338 169.654 480.115 169.934C479.836 170.325 479.947 171.052 479.668 171.555C479.278 172.281 476.487 173.958 476.654 175.188L476.152 174.573C475.593 174.909 475.37 175.58 474.924 176.027C474.142 176.753 472.97 177.368 472.244 177.927C471.407 178.542 472.021 179.66 469.732 179.437L470.067 180.051C469.621 180.051 469.23 180.107 468.839 180.387C467.555 181.225 465.992 182.567 464.876 183.405C463.313 184.579 461.527 186.089 460.41 186.759C459.015 187.542 459.071 188.325 458.01 188.772L458.68 189.387C458.401 189.387 458.01 189.387 457.787 189.498C455.442 191.064 453.209 196.542 452.651 199.057C452.484 199.952 452.651 200.79 452.819 201.629H451.758C452.874 203.082 451.423 203.641 451.423 203.753C451.423 204.144 451.87 204.591 451.423 205.318L450.753 205.15C450.362 205.653 452.651 206.548 450.753 206.268L450.418 207.554C452.149 208.504 450.418 209.063 450.195 209.51C450.083 209.734 450.53 210.517 450.418 210.74C450.307 210.964 449.804 210.908 449.748 211.187C449.693 211.411 450.083 212.305 450.028 212.417C450.028 212.473 448.911 213.479 448.799 213.703C447.125 217.616 445.674 222.703 442.603 226.112C442.38 226.392 441.878 226.783 441.487 226.783L442.157 227.398H440.817C440.985 228.404 439.924 228.516 439.812 228.796C439.645 229.019 440.091 229.466 439.924 229.69C439.645 230.137 437.635 231.143 437.691 232.261L437.021 231.647C436.798 232.261 435.737 233.324 435.235 233.715C434.9 233.938 434.342 233.882 434.23 233.938C434.23 233.938 434.509 234.386 434.454 234.497C433.839 235.448 431.383 236.286 430.323 236.845C425.466 239.472 422.229 240.926 416.535 242.1C411.902 243.106 408.05 243.441 403.417 243.721C402.468 243.777 401.463 244.336 400.514 244.559L400.291 243.609H399.175C398.896 244.056 397.221 244.336 396.384 244.559C396.216 244.559 396.216 244.056 396.105 244C395.267 243.665 393.816 244 392.979 244.224L392.755 243.553L392.253 244.224L392.085 243.274C391.416 243.162 392.141 244.112 391.248 243.944C391.081 243.944 390.857 242.267 390.243 243.944C389.685 243.274 388.234 243.609 388.346 242.659L387.955 243.218C387.285 242.938 386.336 243.274 385.722 243.162C384.215 242.77 384.382 241.373 382.652 242.659L382.484 241.373L380.419 241.988L380.251 241.038L376.623 241.988V241.038C374.949 241.093 372.995 241.652 371.767 240.367L371.599 241.317H370.204L370.036 241.988C370.929 242.491 371.711 243.106 372.604 243.665C377.684 247.019 389.239 251.603 395.435 252.609C397.723 253 400.738 252.329 403.194 252.944C402.747 254.118 401.687 253.224 400.961 253.28C398.003 253.447 394.988 253.839 391.974 253.615C382.429 252.888 363.003 245.286 355.3 239.808C350.499 236.398 349.829 230.808 347.987 225.777C347.54 225.106 346.647 225.609 346.592 225.553C346.033 224.771 347.708 225.106 347.261 224.268L344.135 224.771L343.8 223.597L343.466 224.547L342.238 223.597L341.568 224.883L341.4 223.932H339.335L340.005 224.883C339.112 225.33 338.888 224.268 338.777 224.268C338.33 224.268 337.66 224.715 337.046 224.38C336.097 226.28 335.483 224.212 334.311 224.268C334.143 224.268 334.143 224.771 333.864 224.883C333.362 225.05 332.58 224.883 332.134 225.33C331.297 226.057 329.957 229.411 329.287 230.473C328.896 231.088 328.45 231.87 328.003 232.541C326.329 235.168 324.319 237.572 322.868 240.311L319.295 243.609C319.518 243.106 319.853 242.715 320.077 242.211C321.305 239.472 320.746 233.882 321.416 230.249C323.147 221.305 325.212 212.082 327.501 203.361C328.226 200.567 328.673 198.163 329.678 195.088C329.734 194.809 331.464 194.641 329.678 194.082C331.018 192.629 332.078 190.728 332.078 188.772L332.748 189.107C332.413 188.101 333.529 187.374 333.641 187.095C333.976 186.424 334.255 184.971 334.981 184.244C335.483 183.797 336.209 185.138 335.483 182.679L336.153 182.343L335.483 182.008H336.879L336.209 180.387L336.6 181.002L337.604 180.722L336.935 180.219L337.604 179.716H336.935L337.549 179.325L337.269 178.71L338.497 178.374C338.442 177.48 338.609 176.418 339 175.58C339.614 174.35 340.954 174.35 339.726 173.176C340.842 173.288 340.116 172.617 340.284 172.226C340.73 171.275 341.847 171.275 341.456 169.99L342.461 169.822L342.126 168.369L342.796 168.704C342.182 167.083 344.247 166.133 344.415 165.685C344.582 165.294 344.303 164.4 344.973 163.617C345.252 163.282 347.261 161.884 347.429 161.549C347.708 160.99 347.485 160.151 347.652 159.984C347.875 159.76 349.271 160.151 348.657 158.977H349.662L349.327 157.971H350.276L350.332 156.35L351.392 156.518C351.95 155.623 352.564 154.505 353.123 153.611C354.183 151.99 353.513 152.661 353.792 151.99C353.904 151.711 354.351 151.766 354.574 151.487C354.686 151.319 354.406 150.928 354.518 150.872C356.807 149.419 356.249 148.189 357.588 146.176C358.202 145.226 360.323 144.164 359.989 142.767H360.993C359.877 141.649 362.277 139.357 363.394 139.469V138.518L364.119 138.854V137.847L364.789 138.183C364.398 136.171 367.357 136.171 367.189 134.661L367.859 135.276V133.655C367.859 133.655 368.473 134.046 368.92 133.823C369.031 133.823 370.427 132.425 370.539 132.258C370.539 132.258 370.706 131.14 370.762 131.14C372.66 128.848 374.669 127.059 376.511 125.047C376.735 124.767 376.679 124.264 376.902 124.04C376.958 123.984 377.628 124.32 377.907 123.817L377.237 123.481L377.851 123.146L377.572 122.699L378.968 122.196L378.298 121.413L380.028 120.91L379.023 120.127L379.749 120.295L380.084 118.842C381.591 119.513 381.535 118.171 382.149 117.221L380.754 116.718L382.149 116.214V117.165L382.54 117.444ZM350.946 20.7944C343.633 15.987 334.199 16.6019 325.715 16.8255C323.035 16.8814 320.3 16.7696 317.565 16.8255L318.067 18.4466L319.63 17.7758C319.239 18.4466 320.691 19.4528 321.193 20.1795C321.584 20.7385 321.975 22.08 322.365 22.4154C322.756 22.8067 323.705 22.3036 323.761 24.0924C322.03 24.875 324.263 25.0986 324.319 25.2104C324.542 25.5458 324.598 28.3408 325.491 28.9557L324.821 29.4029C326.329 29.4588 325.491 30.3531 325.603 30.6326C325.603 30.6885 326.105 30.6326 326.161 30.9121C326.384 31.8065 325.826 33.763 325.882 33.8748C325.938 34.0425 327.11 35.6636 327.333 36.2226C328.282 38.4026 331.408 45.2783 329.399 47.1788C327.501 48.9676 323.593 48.2968 321.584 50.7005C321.472 50.8682 321.695 51.2595 321.64 51.3154C321.193 51.6508 319.184 52.0421 318.904 52.1539C318.458 52.3216 318.402 52.9924 318.123 53.216C317.565 53.6632 315.22 54.6134 314.439 54.6134L314.774 55.5637L311.704 56.5699C311.536 57.0171 313.043 56.7935 312.373 57.5202C312.318 57.632 311.871 57.2407 311.759 57.2966C311.089 57.632 310.029 58.9736 308.912 58.8059L309.582 59.7562C307.461 60.0916 308.689 61.2655 308.41 62.3834C308.243 62.9983 307.573 62.8306 307.461 63.4455C307.349 64.284 307.238 65.1784 308.187 65.402L307.573 66.6318C308.801 68.0852 309.136 70.0416 310.196 71.6068C311.759 73.8987 314.885 76.8055 317.062 78.147C317.676 78.5383 318.402 78.4824 318.569 79.4327L320.412 78.8178L320.97 80.0476H321.975L322.309 79.4327V80.383L323.203 80.1035L323.37 80.7184L323.872 80.1035L325.435 81.0538L325.603 80.1035C326.049 80.383 326.552 80.8302 327.11 80.9979C328.506 81.4451 331.52 81.6128 332.19 81.7805C332.357 81.7805 332.301 82.3395 332.581 82.3954C334.032 82.6749 344.08 81.6128 345.419 80.9979C345.531 80.942 346.871 79.6563 346.926 79.5445C347.15 79.4327 347.652 79.7122 347.875 79.6004C349.717 78.706 350.555 77.2527 351.56 76.2465C352.397 75.408 353.402 75.1844 353.513 73.731C355.132 73.731 353.96 73.4515 354.351 72.5012C354.518 72.1658 355.02 72.054 355.02 71.9981C355.355 71.1596 355.02 70.0416 356.528 69.3149L355.858 68.9796C355.858 68.9796 356.36 68.5324 356.472 68.2529C357.7 64.7871 357.812 62.3275 358.426 58.75C358.481 58.4146 358.928 58.0792 358.984 57.6879L358.258 57.073C360.1 56.4581 358.202 53.6073 359.654 53.216C358.258 52.098 359.654 51.6508 359.654 51.539C359.709 51.0918 359.263 50.0856 359.263 49.303C359.263 47.9055 359.263 46.2844 359.598 44.9429L358.928 44.7752L359.598 44.4398L358.928 43.1541C358.928 43.1541 360.1 43.1541 359.598 42.3715L358.928 42.2038L359.598 41.4212C358.426 41.533 358.872 40.0237 359.207 39.297L358.537 38.9616C359.375 37.4524 358.37 37.5642 358.314 37.3965C358.035 36.5021 359.207 34.9369 357.923 33.9866L358.593 33.6512C357.086 33.5394 358.035 32.7009 357.867 31.6388C357.756 30.8003 356.974 30.1295 357.142 29.1793L356.583 28.788L357.253 28.6203L355.858 25.5458L355.188 26.1607C355.132 24.2042 352.732 22.0241 350.89 20.7944H350.946ZM292.055 22.3036L288.594 21.6888L288.929 22.639L287.924 22.0241C288.035 23.3098 287.031 22.3036 286.417 22.3595C286.305 22.3595 285.97 23.4775 284.854 23.0303C285.412 24.0924 284.184 25.3222 282.844 25.3222C282.621 25.6576 283.235 26.7756 282.118 26.552L282.788 27.5023L281.393 27.1669C282.844 28.5085 281.058 30.3531 281.393 31.8065C281.393 31.8624 281.672 32.3655 281.839 33.1481C282.286 34.881 283.012 35.999 283.57 37.5642C284.351 39.856 285.021 42.2597 285.524 44.6075L286.584 44.2721L286.249 45.5577L286.919 45.2224C286.807 46.4521 288.091 46.0608 287.254 47.4583L288.649 46.7875V47.7378H289.543L290.045 49.0794L291.608 48.4086L292.11 49.0794V48.1291H293.171L292.501 49.0794C293.171 48.7999 293.952 48.6881 294.622 48.3527C295.515 47.8496 295.515 46.6757 296.632 47.1788V45.5577L297.302 46.8434C298.027 45.6695 298.976 44.8311 298.697 43.3218L299.367 43.9367V42.651C300.651 43.3218 300.651 41.3094 300.539 40.415C300.428 39.6883 300.874 40.1355 301.432 40.0796L300.372 39.7442L300.539 39.1293L301.432 39.4647C301.042 38.6262 301.6 37.4524 301.432 36.7816C301.377 36.5021 300.707 36.558 300.707 36.3903C300.763 35.6636 302.214 35.9431 301.377 33.8748C301.265 33.5953 300.818 33.5953 300.763 33.3717C300.428 32.3655 300.763 31.527 300.372 30.5767L301.042 30.0736H299.981L300.651 29.1234C299.535 29.1234 299.646 27.67 299.144 26.9992C298.53 26.1607 296.911 25.5458 296.799 24.0365L296.185 24.316L296.52 22.6949C296.185 22.8626 295.125 22.6949 294.957 22.7508C294.622 22.8626 295.013 23.4775 294.455 23.3098L294.12 22.0241L292.613 22.3595L291.887 21.6888L292.055 22.3595V22.3036ZM175.724 72.2776H175.054V73.2279H176.115L175.78 72.2776H175.724ZM215.078 102.296C214.408 102.184 213.905 102.296 213.682 102.91L215.078 103.246V102.296ZM103.548 142.934C103.548 142.934 104.385 142.878 104.608 142.431L103.938 142.096C104.329 141.537 105.055 141.705 105.669 141.425C105.892 141.313 105.948 140.81 106.115 140.754C106.618 140.475 107.567 141.034 107.399 140.028L107.734 140.642L108.404 140.139L107.455 139.58L107.678 139.021H107.064L107.79 138.462L107.399 136.394C105.334 136.953 106.283 134.605 104.664 135.053V134.158H103.603L104.273 135.108C102.152 135.332 102.599 132.872 99.8076 134.158L100.143 133.208C94.7838 132.313 89.4808 130.133 84.122 129.519C77.7026 128.792 71.1715 129.295 64.7521 129.015L64.0823 129.686C63.7474 128.568 63.6915 129.351 63.0217 129.351C61.1796 129.295 62.0169 129.574 61.682 129.63C60.5098 129.798 59.2259 129.742 58.0536 129.798C57.2722 129.798 56.7139 130.692 55.8208 129.686L55.4859 130.357L54.9835 129.686L54.816 130.636L53.9787 130.022L53.6438 131.307L53.3089 130.357L50.6853 131.643L49.5131 131.028L49.1781 131.699L48.8432 131.028C49.1223 132.705 47.1686 131.587 46.6104 133.264L46.108 132.649C45.9405 133.655 45.9963 134.549 44.8799 134.885L44.3775 134.214L45.0474 135.332C43.8752 136.282 43.5961 137.736 44.7125 138.91L44.0426 139.245L44.7125 141.649L46.108 141.313C46.2196 143.214 47.4477 144.555 49.5689 144.555L48.899 145.17L50.6295 145.506C49.9038 147.462 51.4668 146.344 51.8575 146.568C52.2483 146.791 52.1925 147.294 52.639 147.462C53.5322 147.742 58.5002 148.301 59.7841 148.412C66.5384 149.027 73.1811 148.58 79.8238 148.412C83.3963 148.301 86.9688 148.524 90.4855 148.412L90.8763 147.742L91.2112 148.357C91.7136 148.021 92.5509 148.189 92.4393 147.406L92.9417 148.077H93.8348L93.4999 147.406L95.9002 147.742C96.1793 146.512 96.2351 146.344 97.6306 146.456V145.506C98.3005 145.506 99.9751 147.183 99.7518 145.841L100.254 146.456C100.924 146.121 100.366 145.506 100.589 145.17C101.036 144.611 102.04 144.611 101.817 143.214L102.152 143.996L102.822 144.164C102.822 143.717 103.492 143.102 103.883 142.878L103.548 142.934ZM111.474 135.835L109.744 135.5L110.246 135.891L110.414 136.785L111.418 135.835H111.474ZM120.461 136.506L119.233 136.171L119.01 136.674L118.396 136.45L118.061 138.071L119.791 138.239L120.461 136.45V136.506ZM129.002 138.854C126.49 137.512 123.811 136.171 120.852 136.506L121.187 137.959C120.238 138.127 120.852 138.91 120.517 139.692L122.583 139.077L121.522 140.028L122.917 140.363C122.638 139.86 122.471 138.183 123.587 138.406C122.75 139.692 124.034 141.313 125.318 140.642L125.988 141.593L125.318 139.972C126.211 139.692 125.876 140.363 126.267 140.587C126.769 140.81 127.327 140.754 127.941 141.257C128.611 141.76 128.5 142.655 129.114 142.878L129.448 140.922V142.543C130.342 142.655 130.509 141.872 130.509 141.257H130.844C130.677 142.319 132.63 141.872 133.412 142.208L133.579 141.369C133.579 141.369 130.174 139.804 129.672 139.524C129.225 139.301 129.114 138.798 129.002 138.742V138.854ZM110.079 138.406L109.576 137.121L108.013 137.792L108.851 138.462L109.018 137.792H109.52L110.023 138.406H110.079ZM117.67 137.121L116.275 137.456V137.792L117.67 138.127V137.177V137.121ZM407.38 138.742L406.878 137.792C406.264 138.742 406.32 138.854 405.148 138.462L404.813 139.077L403.417 138.518C403.082 138.518 402.524 139.189 402.357 139.524C402.077 140.251 402.022 143.829 401.91 145.059C401.463 151.263 400.626 157.524 399.956 163.673C399.845 164.791 399.175 165.909 399.398 167.139L401.631 166.859L402.189 167.81C402.747 167.921 402.468 167.195 402.747 166.859C403.082 166.412 404.924 164.847 405.482 164.903L405.985 165.574C406.152 164.288 408.608 165.35 408.776 163.338L413.074 164.959C413.521 163.505 414.302 164.959 415.251 165.182C415.754 165.294 416.982 164.903 417.261 165.015C417.484 165.07 417.317 165.629 417.596 165.629C418.154 165.629 418.545 164.959 419.159 164.791C420.163 164.511 422.954 164.456 423.568 163.561C423.903 163.114 423.792 162.779 424.517 162.499C424.964 162.331 425.913 162.331 426.304 161.996C426.862 161.549 426.471 159.201 427.811 158.977L427.476 158.027L428.146 157.748L427.42 156.462L428.034 156.238L427.755 155.512L428.425 155.176L428.09 153.052L427.085 153.388L427.811 151.934L427.085 151.431L427.755 150.76L427.42 149.978L426.75 150.145L427.085 148.86C425.578 149.083 424.35 147.574 426.025 147.239C425.69 146.568 424.462 146.624 424.629 145.282C423.736 146.009 423.234 144.444 423.624 143.661H421.894L422.229 142.711C421.001 142.319 419.494 141.649 418.377 141.034C418.042 140.866 417.317 140.195 416.982 140.028C416.312 139.636 414.916 139.86 414.972 138.854L413.967 139.524V138.91H413.297V139.524L412.46 138.63L409.837 138.854V137.903L407.436 138.854L407.38 138.742ZM112.87 138.127L111.865 139.413L112.2 138.462L112.87 138.127ZM115.27 138.742L113.54 138.91L114.209 139.692L115.103 139.357L115.27 138.742ZM395.658 142.319L394.988 143.605L393.983 142.99L393.816 143.941C392.755 143.27 391.36 144.891 390.802 145.17C390.634 145.282 389.797 144.779 389.518 145.45L390.188 145.953L389.183 146.903L390.188 147.239C389.071 147.406 388.29 147.518 387.564 148.301C387.508 148.357 387.731 148.636 387.676 148.804C387.676 148.916 387.117 148.86 387.173 149.027C387.173 149.419 387.676 149.978 387.508 150.593C387.397 150.984 386.001 150.872 386.783 152.437L386.113 152.102C386.113 152.437 386.113 152.773 385.889 153.052C385.331 154.002 384.94 154.897 384.606 155.568C384.606 155.679 383.601 155.847 384.047 156.965L382.652 156.63L383.322 157.412L382.317 157.245L383.712 158.195H381.982L382.987 158.977C382.652 159.704 381.759 159.145 381.647 159.201C381.2 159.425 380.698 161.381 380.475 161.661C380.196 161.996 378.13 162.611 377.795 163.505L378.465 163.785C378.186 165.35 377.74 164.567 377.293 164.903C377.014 165.126 375.507 166.188 375.451 166.3C375.228 166.636 375.451 167.251 375.339 167.474C375.228 167.586 374.223 167.586 373.72 167.921C372.939 168.48 371.376 171.052 370.483 171.834C369.59 172.617 367.301 173.623 366.799 174.014C366.464 174.294 365.459 175.356 365.347 175.859L364.677 175.244C364.677 176.139 364.119 176.698 363.449 177.201C361.831 178.374 359.374 179.548 357.979 181.114C357.7 181.393 357.477 181.952 357.421 182.343L356.751 181.728C356.751 183.014 356.639 183.517 355.355 184.132L356.025 184.635C354.072 185.585 353.681 188.772 352.564 190.616L353.29 190.784V191.399C352.118 191.287 353.29 192.629 352.229 193.523L352.955 193.859C352.174 194.641 352.285 194.865 352.955 195.647L351.95 195.312L352.62 197.101C351.001 197.827 352.62 198.554 352.62 198.666C352.564 199.952 352.285 199.784 352.453 201.461C352.564 202.299 351.839 202.914 352.955 203.194L351.895 203.865L352.955 204.032L352.285 204.815C353.011 205.318 353.011 205.709 352.62 206.436L353.29 206.268L352.955 208.504L353.625 207.889L353.96 208.672L352.955 209.175L353.346 210.74H354.686C354.127 212.529 354.686 213.703 356.751 213.703L356.081 215.939C357.812 216.442 356.583 214.541 357.644 215.268L357.477 214.318C358.593 214.038 357.923 214.933 358.258 215.212C358.258 215.212 359.319 215.603 359.43 215.603C359.598 215.603 359.821 213.144 360.993 215.603H361.663C361.161 214.206 363.561 214.038 363.673 213.926C363.952 213.647 364.008 212.753 364.063 212.697C364.398 212.473 365.236 213.312 365.626 212.697L365.459 211.746L367.524 211.579L368.194 209.79L369.199 210.74C369.199 208.616 369.869 209.622 370.483 209.399C371.488 209.007 370.874 208.225 370.929 208.169C371.153 207.889 373.051 208.504 372.66 206.883L373.665 207.219L373.386 206.66C374.502 206.604 374.558 205.094 375.06 204.815C375.283 204.703 375.842 205.038 376.065 204.927C376.288 204.815 376.623 203.585 376.902 203.417C376.958 203.417 377.349 203.697 377.46 203.585C378.8 202.635 380.866 201.237 381.814 200.175C382.987 198.89 386.169 196.654 386.838 195.312C388.736 191.567 392.197 183.741 393.258 179.94C393.648 178.486 393.593 176.474 393.928 174.909C394.151 174.07 395.044 172.617 395.044 172.505C395.044 172.281 394.486 171.946 394.486 171.555C394.486 171.331 395.491 168.536 395.658 167.754C396.216 164.903 396.719 160.319 396.607 157.3C397.668 156.797 396.607 153.891 396.607 152.493C396.495 150.313 396.384 148.189 396.328 146.065C396.328 145.114 397.054 143.27 395.77 142.99L395.937 142.319H395.658ZM133.579 142.599L132.184 142.767C132.574 143.717 132.686 143.326 133.579 143.549V142.599ZM249.91 147.462H248.235C248.068 148.189 248.012 149.083 247.677 149.698C243.993 157.412 240.03 167.027 238.187 175.076C237.462 178.319 237.741 177.983 239.136 180.555C239.416 181.058 239.248 181.784 239.36 181.952C239.527 182.176 239.974 181.952 240.253 182.12C240.979 182.567 243.993 184.412 244.719 184.635C245.109 184.747 245.556 184.412 245.891 184.468C246.17 184.468 246.17 185.082 246.281 185.138C247.23 185.362 247.063 184.691 247.286 184.579C248.514 184.076 250.133 183.238 251.64 183.405C252.087 182.511 253.594 180.778 255.045 180.61C254.655 179.996 255.994 179.045 256.05 177.871L257.111 177.76V177.145L256.441 176.977L257.446 174.07C256.441 173.847 256.776 173.176 256.776 172.337L257.781 172.673L256.385 170.884L257.39 171.052C257.39 169.878 257.39 169.151 255.994 168.816L256.664 168.48L255.994 167.195H256.664V166.524H256.05L256.329 165.909C254.71 166.021 254.934 164.735 254.599 163.617L253.594 163.952C254.376 162.555 253.203 163.17 252.924 162.443C252.813 162.108 253.203 160.934 252.924 160.375L251.919 160.71C252.31 158.81 250.412 157.524 250.859 155.847H249.463L249.687 155.288C248.291 155.009 250.356 153.164 248.793 152.829L249.073 151.99L248.068 152.325C249.296 151.487 247.956 150.928 248.068 150.704L249.463 149.419C248.849 149.251 247.844 149.307 248.068 148.468L249.798 147.518L249.91 147.462ZM111.028 161.158C109.688 160.599 107.79 160.99 106.171 160.822C101.147 160.319 97.0724 159.089 92.2718 158.195C82.7823 156.35 72.6787 156.853 63.0217 157.133C61.4587 157.133 57.5513 156.965 56.2674 157.245C55.3742 157.468 51.7459 159.76 51.4668 160.487L52.1366 160.99L50.4062 160.654L51.076 162.723L49.3456 163.729L50.0154 164.232L49.3456 164.4L50.0154 166.188H48.8432L48.6199 167.139L50.3504 166.803L49.2898 167.139C49.1781 168.313 49.7922 168.313 49.9596 168.648C50.462 169.542 50.3504 170.604 51.6901 170.381L51.0202 171.331H53.4205C52.2483 174.126 53.2531 172.673 54.9835 173.232C55.5417 173.399 55.8766 174.294 56.7698 174.517C59.0026 174.965 63.0775 174.965 65.6453 175.3C73.2369 176.139 79.3214 176.977 86.5781 178.989C90.5972 180.107 97.519 181.505 101.65 182.008C103.045 182.176 104.552 181.784 105.948 182.343L78.0375 181.784C77.4235 182.846 76.6978 183.685 77.3118 184.915L77.9259 183.964L77.3118 183.797L78.5399 182.343C78.9306 182.343 79.433 183.853 79.3772 184.132C79.3772 184.3 78.205 184.3 78.7632 184.915C78.819 185.027 80.6611 184.076 81.1635 185.418L80.5494 185.641V186.592L81.8333 186.871C81.945 186.703 80.7727 185.194 82.8939 185.921C82.8939 185.921 82.2241 187.039 82.1124 187.151C81.8333 187.374 81.0518 186.983 81.1635 187.542C82.4473 188.66 83.6196 187.374 84.5685 188.995L83.9545 189.778L85.5175 190.449L85.685 189.778C88.3644 190.337 86.1873 189.946 86.3548 191.399L87.3596 191.064L87.6945 192.797L88.7551 193.02L88.0853 193.355V195.591C94.393 195.983 100.589 196.15 106.897 196.262C109.074 196.262 111.586 196.542 113.763 196.486C115.047 196.486 116.945 195.2 118.843 195.815L119.345 194.641L119.512 195.256L120.517 194.977L121.187 195.927L121.02 194.977C122.248 196.15 122.415 194.977 123.587 194.529C124.313 194.25 125.597 194.585 126.378 194.641L126.043 194.026C127.16 194.529 127.886 193.914 128.667 193.859C129.448 193.803 130.453 194.138 131.011 194.026C131.123 194.026 131.681 193.076 132.854 193.076C132.965 194.473 135.086 192.797 135.254 192.797C136.203 192.685 137.71 193.132 138.715 192.07L139.217 192.685L140.278 192.349L139.943 191.734C139.943 191.734 141.785 191.734 142.176 191.679C142.343 191.679 142.343 191.175 142.622 191.12C143.571 190.84 145.357 191.064 145.469 189.834L146.139 190.449L146.641 189.163L147.144 189.778C147.702 188.269 149.935 188.436 149.935 186.256L150.605 187.207L150.94 184.971L151.833 185.25L152.67 184.635L152 183.853C153.786 182.958 152.893 182.735 153.172 182.064C153.34 181.617 153.842 181.281 153.954 180.834C154.289 179.716 154.512 176.753 153.675 175.747L154.345 175.412L153.675 175.132C154.065 174.517 153.675 173.623 154.624 173.623V173.008C154.065 173.008 154.01 172.561 153.507 172.337C143.794 167.977 131.57 165.35 121.354 162.387L121.02 163.058L118.619 162.443L118.117 163.058L117.949 162.108C117 162.22 115.382 162.331 114.544 162.108C114.265 162.052 114.321 161.381 114.154 161.437C113.205 161.716 112.926 162.22 111.474 161.717C111.139 161.605 111.139 161.269 111.083 161.213L111.028 161.158ZM146.697 160.04L146.362 158.754C146.251 159.816 145.86 159.704 144.967 159.425L145.637 160.71C144.743 160.263 143.739 160.207 144.241 161.325L143.571 160.375L141.897 161.046L142.176 161.661L139.44 160.878C140.724 161.549 141.841 162.499 143.125 163.226C143.739 163.617 144.576 163.673 145.302 164.12C146.306 164.735 151.944 170.996 152.893 170.045L152.558 168.145L153.563 167.474L152.502 167.642V164.903C151.051 165.741 150.828 164.232 152.502 164.12C151.051 163.617 151.665 162.834 150.94 162.052H149.6L148.707 163.002C149.265 160.878 149.042 161.884 147.646 160.766L148.707 160.431L146.641 160.095L146.697 160.04ZM150.493 160.375L149.097 160.543L149.935 161.046L150.437 160.431L150.493 160.375ZM400.459 167.474H399.063L399.398 169.095H400.459V167.474ZM399.454 179.381L398.058 178.71C398.784 179.492 397.668 180.555 397.723 180.61C397.723 180.61 398.84 180.499 398.393 181.561L397.388 180.89C396.774 183.238 396.942 185.697 396.495 188.045C395.77 192.182 394.597 196.262 393.872 200.343C393.76 200.902 393.369 201.461 393.258 202.076L393.983 202.523L393.314 202.97C394.039 203.809 394.151 205.094 394.597 205.989C394.877 206.66 395.77 206.101 395.044 208.001C396.16 207.051 396.83 207.442 395.714 208.616C396.44 208.504 396.44 208.951 396.384 209.566L397.054 208.951C397.054 211.076 397.891 210.013 398.617 210.517C399.063 210.852 399.342 211.802 400.012 212.194L400.514 211.243C400.514 211.746 400.514 212.249 401.073 212.473C402.133 212.864 404.478 212.529 405.538 212.697C405.985 212.697 406.487 213.256 406.878 213.2L407.213 212.585C407.883 212.417 411.288 212.585 411.455 212.417C411.679 212.249 411.679 211.69 412.014 211.523H412.516L412.683 212.194C414.47 211.579 415.809 210.181 417.261 209.287C417.651 209.063 418.098 209.287 418.21 209.175C418.433 209.063 418.6 208.225 419.773 208.616L419.438 208.001L421.168 207.666L420.833 207.051C422.731 207.107 423.066 205.318 424.797 204.815L424.629 203.809C425.745 204.368 425.69 203.194 426.359 202.691C426.639 202.467 427.253 202.579 427.364 202.467C427.42 202.411 427.197 201.293 427.532 200.622C428.09 199.56 428.09 198.834 428.202 198.666C428.202 198.61 428.76 198.61 428.927 198.219C429.151 197.66 429.095 196.039 428.871 195.424C430.546 195.088 429.318 194.362 428.871 193.188C428.537 192.182 428.369 191.958 428.09 191.287C427.978 191.008 428.202 190.505 428.09 190.169C428.034 190.002 425.634 187.933 425.131 187.654L424.964 188.269L424.294 187.318L423.624 187.933C424.127 187.43 422.117 186.033 422.005 185.977C420.722 185.809 421.112 185.809 420.163 185.53C419.27 185.306 418.154 185.921 418.433 184.356L417.205 185.026C416.926 183.964 416.2 185.138 416.312 184.076L415.809 184.691C414.637 183.741 410.674 184.523 409.892 184.3C409.446 184.132 409.557 183.517 409.167 183.461C408.888 183.461 407.883 183.853 407.325 183.461C407.939 185.418 406.934 183.517 406.655 183.294C406.431 183.126 405.706 183.294 405.427 183.405L405.259 182.791L404.589 183.741C404.254 182.176 402.189 182.232 400.794 182.12L401.854 180.499C401.184 180.499 400.403 180.778 400.459 181.449C399.286 181.617 400.068 181.169 399.9 180.834C399.677 180.387 399.063 180.107 398.728 179.716L399.398 179.213L399.454 179.381ZM73.8509 185.865H73.1811L73.516 187.151H74.1859L73.8509 185.865ZM276.983 195.424C276.704 195.144 276.592 194.641 276.146 194.585L275.978 195.536C274.08 194.865 274.638 195.703 273.913 196.206C273.578 196.43 273.131 196.43 272.796 196.598C272.35 196.877 272.629 197.716 271.289 197.157L271.959 198.442C269.95 198.275 270.117 199.169 268.945 200.063C268.163 200.622 267.158 200.902 266.433 201.517L267.103 202.02C266.656 201.908 265.037 202.858 264.814 203.082C261.521 206.156 261.744 206.38 257.39 208.448C256.776 208.728 256.72 209.79 255.045 209.454L254.822 210.405C252.143 211.02 249.575 211.97 246.84 212.529C242.151 213.423 237.462 213.759 233.499 214.821C233.275 214.821 232.438 214.541 231.936 214.877L232.605 215.492H229.87L230.205 216.162H229.144C229.814 216.889 228.81 216.721 228.81 217.448L228.475 216.833L227.972 217.504L227.47 216.833C227.414 217.895 226.409 218.398 225.739 219.237C225.293 219.852 224.902 220.243 224.567 220.69C223.897 221.585 224.511 223.821 223.004 224.715L224.4 225.218L223.339 225.553C224.009 227.175 224.623 229.131 224.735 231.032L225.795 231.143C225.684 231.982 226.577 233.771 227.191 234.162C227.302 234.218 227.637 233.882 227.749 233.938C228.81 234.609 230.763 238.913 232.829 239.025L233.052 239.976H234.336V240.982H236.736L236.401 241.932C237.908 241.261 238.634 242.603 240.197 242.435V243.274H240.867L241.034 242.659C241.872 243.721 243.602 243.944 244.942 244.224C245.612 244.392 247.454 244.727 248.124 244.783C248.905 244.895 249.854 244.503 250.747 244.951L250.58 244.28H251.752L252.31 244.895C252.143 243.944 253.594 244.783 254.376 243.609L255.045 244.559C255.157 243.05 256.553 243.665 256.943 243.497C257.111 243.441 257.725 242.267 258.283 243.497L259.846 243.218L259.176 242.267C260.572 242.826 260.683 241.988 261.465 241.708C261.8 241.597 262.358 241.876 262.749 241.652C263.251 241.373 263.028 240.646 263.586 240.311C264.256 239.864 265.372 240.423 265.428 240.311C265.484 240.199 265.316 239.752 265.54 239.472C266.042 238.802 266.935 238.634 267.493 238.187C268.107 237.684 267.94 236.677 269.224 237.404L269.056 236.398L272.015 234.777L271.68 233.827L273.075 233.659C271.233 233.044 273.69 232.765 274.248 231.591C275.029 229.858 275.755 229.131 276.257 227.342C276.481 226.56 277.541 224.883 278.267 224.38L277.262 223.877L278.323 223.653C278.378 222.311 279.16 221.082 279.551 219.796C279.83 218.79 279.327 217.001 280.723 216.274L280.053 215.771L280.667 215.603C279.886 214.485 280.946 213.423 281.058 212.641C281.225 211.355 280.89 211.411 281.337 210.069C281.784 208.616 281.114 208.784 281.114 208.113C281.114 207.33 281.17 206.212 281.616 205.542L280.723 204.424L281.784 204.256L281.058 203.92L281.337 202.635L280.388 202.188V201.74L281.393 201.237V200.734L280.667 200.399L280.89 198.666L279.662 198.331L279.997 196.374L278.267 197.045L278.937 194.809L278.267 196.43C277.876 196.206 277.374 195.647 277.039 195.312L276.983 195.424ZM185.046 199.393L184.376 198.442L184.711 200.063C182.311 199.169 180.078 201.629 179.52 203.641L178.85 203.361C178.403 203.92 178.459 205.038 178.18 205.486C177.901 205.989 175.501 208.951 175.277 209.063C175.054 209.231 174.44 209.063 173.994 209.287C173.156 209.79 172.598 211.355 171.984 211.97C171.035 212.864 169.639 213.256 168.579 214.374C168.077 214.877 168.188 215.771 167.128 215.939L167.407 216.498L165.006 216.162L165.676 216.777C164.113 216.945 164.169 217.336 164.281 218.734C163.555 218.846 164.337 217.001 163.443 217.448C162.997 217.672 161.936 218.901 162.606 219.405H160.876L161.211 220.243L160.541 220.411L160.373 219.46C158.922 220.97 157.917 222.926 155.405 221.752L155.014 222.367L154.68 221.082L155.014 223.988L152.949 223.318V224.268C153.396 224.38 155.182 224.883 155.294 224.994C155.628 225.386 154.791 226.504 156.019 226.224C155.796 225.833 155.908 225.162 155.684 224.827C155.461 224.491 154.847 224.827 154.959 224.268L156.354 224.603C156.912 223.877 155.294 223.932 155.684 223.653C155.908 223.429 156.968 223.597 156.689 222.703H155.294L157.024 222.367C156.745 222.814 156.633 227.063 157.359 226.56L157.861 225.274L158.029 226.895H160.094L158.699 228.181C164.337 228.907 169.751 226.783 175.11 225.609C177.622 225.05 181.808 224.994 184.041 223.597C185.772 222.535 188.116 221.752 189.623 220.634C190.07 220.299 193.196 216.386 193.419 215.939C193.642 215.324 193.587 214.485 193.922 213.871L192.861 213.032L194.089 212.753L194.256 210.125L193.196 209.958C194.536 209.51 194.089 208.392 193.531 207.33L194.201 207.051L192.805 205.597L193.81 205.094L193.14 204.312L193.81 203.976L192.079 203.641C192.191 203.306 192.135 201.517 192.079 201.405C191.912 201.237 190.963 201.405 190.572 201.07C189.902 200.455 189.735 199.225 189.679 199.113C189.568 199.057 187.893 199.672 187.279 198.778L187.446 200.063L185.548 198.442L185.381 199.393H184.879H185.046ZM143.571 222.647C142.064 222.367 143.348 223.988 143.906 223.597L143.571 222.647ZM149.823 224.883C151.386 225.609 151.554 224.044 151.219 222.926L150.884 224.212L149.823 224.883ZM158.42 227.119H157.75L157.415 228.069C158.029 228.181 158.531 227.734 158.475 227.119H158.42Z" fill="black"/>
<path d="M222.987 106.171L222.987 106.506L227.118 106.507L227.118 106.172L222.987 106.171Z" fill="black"/>
<path d="M141.171 222.926L141.003 223.932L139.775 224.212L141.171 222.926Z" fill="black"/>
<path d="M231.991 125.829C232.047 126.388 231.21 126.109 230.763 126.165C230.038 126.165 229.256 126.165 228.53 126.165C228.475 125.606 229.312 125.885 229.759 125.829C230.484 125.829 231.266 125.829 231.991 125.829Z" fill="black"/>
<path d="M6.86606 100.395L4.52158 101.568L2.40039 101.96L5.30307 100.674L6.86606 100.395Z" fill="black"/>
<path d="M238.522 115.543C238.746 116.55 238.132 115.991 237.685 116.158C236.848 116.438 236.01 116.885 235.117 116.829C235.285 116.438 236.569 115.991 237.015 115.823C237.517 115.655 237.908 115.376 238.578 115.543H238.522Z" fill="black"/>
<path d="M334.199 121.022C334.199 120.407 335.204 120.798 335.706 120.686C336.097 120.574 335.706 119.904 336.265 120.015L335.762 121.245L334.199 121.022Z" fill="black"/>
<path d="M106.618 138.406L106.283 140.027H105.948V138.406H106.618Z" fill="black"/>
<path d="M161.211 225.553L160.876 226.839H160.541L160.206 226.057C160.485 225.721 160.708 225.498 161.211 225.553Z" fill="black"/>
</g>
<defs>
<clipPath id="clip0_1245_2105">
<rect width="491" height="262" fill="white"/>
</clipPath>
</defs>
</svg>
